<!-- moduino mega audio mixer mod eqpad -->
<svg xmlns="http://www.w3.org/2000/svg" style="background: #111; width: 100%; height: 100%;">
<defs>
  <filter id="blur">
    <feGaussianBlur stdDeviation="0.5"></feGaussianBlur>
  </filter>
  <pattern id="grid" x="0.0" y="0.0" width="10" height="10" patternUnits="userSpaceOnUse">
    <rect width="10" height="10" fill="#111"></rect>
    <rect width="1" height="1" fill="#FFF"></rect>
  </pattern>
  <pattern id="vent" width="50" height="50" patternUnits="userSpaceOnUse">
    <rect width="50" height="50" fill="#000"></rect>
    <path d="m 0 0 l 0 25 l 25 -25 z m 50 0 l 0 25 l -25 25 l -25 0 z" fill="#111"></path>
  </pattern>
  <pattern id="hdr1" x="4.5" y="2.5" width="6" height="6" patternUnits="userSpaceOnUse">
    <rect width="6" height="6" fill="#000"></rect>
    <rect width="3" height="3" fill="#333"></rect>
  </pattern>
  <pattern id="hdr2" x="4.5" y="1.5" width="6" height="6" patternUnits="userSpaceOnUse">
    <rect width="6" height="6" fill="#000"></rect>
    <rect width="3" height="3" fill="#333"></rect>
  </pattern>
  <pattern id="hdr3" x="2.5" y="2.5" width="6" height="6" patternUnits="userSpaceOnUse">
    <rect width="6" height="6" fill="#000"></rect>
    <rect width="3" height="3" fill="#333"></rect>
  </pattern>
  <pattern id="hdr4" x="2.5" y="1.5" width="6" height="6" patternUnits="userSpaceOnUse">
    <rect width="6" height="6" fill="#000"></rect>
    <rect width="3" height="3" fill="#333"></rect>
  </pattern>
  <pattern id="hdr5" x="5.5" y="2.5" width="6" height="6" patternUnits="userSpaceOnUse">
    <rect width="6" height="6" fill="#000"></rect>
    <rect width="3" height="3" fill="#333"></rect>
  </pattern>
  <pattern id="hdr6" x="5.5" y="1.5" width="6" height="6" patternUnits="userSpaceOnUse">
    <rect width="6" height="6" fill="#000"></rect>
    <rect width="3" height="3" fill="#333"></rect>
  </pattern>
  <pattern id="hdr7" x="5.5" y="2.5" width="6" height="6" patternUnits="userSpaceOnUse">
    <rect width="6" height="6" fill="#000"></rect>
    <rect width="3" height="3" fill="#333"></rect>
  </pattern>
  <pattern id="hdr8" x="5.5" y="1.5" width="6" height="6" patternUnits="userSpaceOnUse">
    <rect width="6" height="6" fill="#000"></rect>
    <rect width="3" height="3" fill="#333"></rect>
  </pattern>
  <pattern id="hdr9" x="1.9" y="2.0" width="6" height="6" patternUnits="userSpaceOnUse">
    <rect width="6" height="6" fill="#000"></rect>
    <rect width="3" height="3" fill="#333"></rect>
  </pattern>
  <pattern id="jmp1" x="2.5" y="1.0" width="4" height="4" patternUnits="userSpaceOnUse">
    <rect width="4" height="4" fill="#000"></rect>
    <rect width="2" height="2" fill="#333"></rect>
  </pattern>
  <pattern id="jmp2" x="0.7" y="1.0" width="4" height="4" patternUnits="userSpaceOnUse">
    <rect width="4" height="4" fill="#000"></rect>
    <rect width="2" height="2" fill="#333"></rect>
  </pattern>
  <pattern id="jmp3" x="2.5" y="3.0" width="4" height="4" patternUnits="userSpaceOnUse">
    <rect width="4" height="4" fill="#000"></rect>
    <rect width="2" height="2" fill="#333"></rect>
  </pattern>
  <pattern id="jmp4" x="0.7" y="3.0" width="4" height="4" patternUnits="userSpaceOnUse">
    <rect width="4" height="4" fill="#000"></rect>
    <rect width="2" height="2" fill="#333"></rect>
  </pattern>
  <pattern id="jmp5" x="3.5" y="1.0" width="4" height="4" patternUnits="userSpaceOnUse">
    <rect width="4" height="4" fill="#000"></rect>
    <rect width="2" height="2" fill="#333"></rect>
  </pattern>
  <pattern id="jmp6" x="3.5" y="3.0" width="4" height="4" patternUnits="userSpaceOnUse">
    <rect width="4" height="4" fill="#000"></rect>
    <rect width="2" height="2" fill="#333"></rect>
  </pattern>
</defs>
<rect width="100%" height="100%" fill="url(#grid)"></rect>
<g id="moduino" fill="none" font-size="20pt" font-family="Consolas" transform="scale(2.5)">
  <g id="EDGE" fill="url(#vent)" stroke="#333" stroke-width="6">
    <path d="m 100 100 l 0 190 l 510 0 l 10 -10 l 0 -10 l 10 -10 l 0 -130 l -10 -10 l 0 -10 l -10 -10 l -510 0 z"></path>
    <path d="m 652 78 l -50 0 l 50 50 z" fill="#FFF" stroke="#FFF" stroke-width="15" stroke-linejoin="round"></path>
    <path d="m 652 312 l -50 0 l 50 -50 z" fill="#FFF" stroke="#FFF" stroke-width="15" stroke-linejoin="round"></path>
    <path d="m 80 80 l 0 220 l 0 10 l 10 0 l 525 0 l 25 -25 l 0 -10 l 10 -10 l 0 -140 l -10 -10 l 0 -10 l -25 -25 l -500 0 z" fill="none" stroke="#477" stroke-width="20" stroke-linejoin="round"></path>
  </g>
  <g id="TABS" fill="#FFF" stroke="#FFF" stroke-width="6">
    <rect x="93.00" y="110" width="1" height="15"></rect>
    <rect x="93.00" y="265" width="1" height="15"></rect>
    <rect x="355.3" y="93" width="15" height="1"></rect>
    <rect x="355.3" y="296" width="15" height="1"></rect>
  </g>
  <g id="SPACER" fill="#FFF" stroke="#FFF">
    <rect x="160" y="117.5" width="411" height="1" stroke="#FF0"></rect>
    <rect x="160" y="272.5" width="411" height="1" stroke="#FF0"></rect>
    <rect x="170" y="114" width="1" height="163"></rect>
    <rect x="570" y="134" width="1" height="123"></rect>
    <rect x="111" y="108" width="373" height="1"></rect><rect x="520.5" y="108" width="88" height="1"></rect>
    <rect x="111" y="282" width="373" height="1"></rect><rect x="520.5" y="282" width="88" height="1"></rect>
  </g>
  <g id="WIRE" fill="none" stroke="#477" stroke-width="1" stroke-linejoin="round" stroke-linecap="round">
    <path d="m 535.5 145 l -10 0 l 0 30 l 10 0"></path>
    <path d="m 535.5 215 l -10 0 l 0 30 l 10 0"></path>
    <path d="m 565 137.5 l 10 0 m -10 15 l 10 0 m -10 15 l 10 0 m -10 15 l 10 0"></path>
    <path d="m 565 207.5 l 10 0 m -10 15 l 10 0 m -10 15 l 10 0 m -10 15 l 10 0"></path>
    <path d="m 235 172.5 l 24.5 0 l 0 -50 m 0 50 l 8 0 l 0 -48 l 57 0 l 0 4.5 l -22 0 l 0 31 l 5 0 l 0 -18 l 15 0 m -50.5 17.5 l 0 5 l 37.5 0 l 0 -17 l 6 0 l 0 25 l -48 0 m 48 0 l 9 0 l 0 -25 l -9 0 m 9 25 l 11 0 l 0 -50 m 0 50 l 8 0 l 0 -48 l 57 0 l 0 4.5 l -22 0 l 0 31 l 5 0 l 0 -18 l 15 0 m -50.5 17.5 l 0 5 l 37.5 0 l 0 -17 l 6 0 l 0 25 l -48 0 m 48 0 l 9 0 l 0 -25 l -9 0 m 9 25 l 11 0 l 0 -50 m 0 50 l 8 0 l 0 -48 l 57 0 l 0 4.5 l -22 0 l 0 31 l 5 0 l 0 -18 l 15 0 m -50.5 17.5 l 0 5 l 37.5 0 l 0 -17 l 6 0 l 0 25 l -48 0 m 48 0 l 9 0 l 0 -25 l -9 0 m 9 25 l 9 0 l 0 -50 l -235 0 l 0 45 l -15 0"></path>
    <path d="m 235 177.5 l 260 0 s 0 0 0 0 l 0 -11"></path>
    <path d="m 235 182.5 l 260 0 s 5 0 5 -5 l 0 -11"></path>
    <path d="m 235 187.5 l 260 0 s 10 0 10 -10 l 0 -11"></path>
    <path d="m 235 192.5 l 260 0 s 15 0 15 -15 l 0 -11"></path>
    <path d="m 235 197.5 l 260 0 s 15 0 15 15 l 0 11"></path>
    <path d="m 235 202.5 l 260 0 s 10 0 10 10 l 0 11"></path>
    <path d="m 235 207.5 l 260 0 s 5 0 5 5 l 0 11"></path>
    <path d="m 235 212.5 l 260 0 s 0 0 0 0 l 0 11"></path>
    <path d="m 235 217.5 l 24.5 0 l 0 50 m 0 -50 l 8 0 l 0 48 l 57 0 l 0 -4.5 l -22 0 l 0 -31 l 5 0 l 0 18 l 15 0 m -50.5 -17.5 l 0 -5 l 37.5 0 l 0 17 l 6 0 l 0 -25 l -48 0 m 48 0 l 9 0 l 0 25 l -9 0 m 9 -25 l 11 0 l 0 50 m 0 -50 l 8 0 l 0 48 l 57 0 l 0 -4.5 l -22 0 l 0 -31 l 5 0 l 0 18 l 15 0 m -50.5 -17.5 l 0 -5 l 37.5 0 l 0 17 l 6 0 l 0 -25 l -48 0 m 48 0 l 9 0 l 0 25 l -9 0 m 9 -25 l 11 0 l 0 50 m 0 -50 l 8 0 l 0 48 l 57 0 l 0 -4.5 l -22 0 l 0 -31 l 5 0 l 0 18 l 15 0 m -50.5 -17.5 l 0 -5 l 37.5 0 l 0 17 l 6 0 l 0 -25 l -48 0 m 48 0 l 9 0 l 0 25 l -9 0 m 9 -25 l 9 0 l 0 50 l -235 0 l 0 -45 l -15 0"></path>
  </g>
  <g id="REG" fill="#17F" stroke="#999">
    <path d="m 110 230 l 40 0 l 0 30 l -40 0 l 0 -30.5 m 5 15.5 a 5 5 360 1 0 0 -0.001 z"></path>
    <path d="m 110 230 l 3 3 l 18 0 l 0 -3 m 0 30 l 0 -3 l -18 0 l -3 3 m 3 -3 l 0 -24 m 18 0 l 0 24"></path>
    <path d="m 150 235.5 l 10 0 l 1 1 l 5 0 l 0 1 l -5 0 l -1 1 l -10 0" fill="#999"></path>
    <path d="m 150 243.5 l 10 0 l 1 1 l 5 0 l 0 1 l -5 0 l -1 1 l -10 0" fill="#999"></path>
    <path d="m 150 251.5 l 10 0 l 1 1 l 5 0 l 0 1 l -5 0 l -1 1 l -10 0" fill="#999"></path>
    <circle id="REGLED" cx="120" cy="245" r="5" fill="#F05C"></circle>
    <use href="#REGLED" filter="url(#blur)" fill="#FFF"></use>
  </g>
  <g id="USB_2B" fill="#333" stroke="#FFF">
    <rect x="92" y="130" width="70" height="50" fill="#777"></rect>
  </g>
  <g id="JACK_QI" fill="#333" stroke="#FFF">
    <path d="m 487.5  95 l 30 0 l 0 80 l -30 0 l 0 -40 z m 2.5 0 l 0 -10 l 25 0 l 0 10 z"></path>
    <path d="m 487.5 295 l 30 0 l 0 -80 l -30 0 l 0 80 z m 2.5 0 l 0 10 l 25 0 l 0 -10 z"></path>
  </g>
  <g id="XLR_3P" fill="#333" stroke="#FFF">
    <path d="m 575 130 l 60 0 l 0 60 l -60 0 l 0 -60 z"></path><path d="m 575 130 m 60 0 m 0 5 l 5 0 l 0 50 l -5 0 z"></path>
    <path d="m 575 200 l 60 0 l 0 60 l -60 0 l 0 -60 z"></path><path d="m 575 200 m 60 0 m 0 5 l 5 0 l 0 50 l -5 0 z"></path>
  </g>
  <g id="LED">
    <rect x="110" y="187" width="7" height="4"></rect>
    <rect x="121" y="187" width="7" height="4"></rect>
    <rect x="132" y="187" width="7" height="4"></rect>
    <rect x="143" y="187" width="7" height="4"></rect>
    <rect x="154" y="187" width="7" height="4"></rect>
    <rect x="110" y="195" width="7" height="4"></rect>
    <rect x="121" y="195" width="7" height="4"></rect>
    <rect x="132" y="195" width="7" height="4"></rect>
    <rect x="143" y="195" width="7" height="4"></rect>
    <rect x="154" y="195" width="7" height="4"></rect>
    <rect x="110" y="203" width="7" height="4"></rect>
    <rect x="121" y="203" width="7" height="4"></rect>
    <rect x="132" y="203" width="7" height="4"></rect>
    <rect x="143" y="203" width="7" height="4"></rect>
    <rect x="154" y="203" width="7" height="4"></rect>
    <rect x="110" y="211" width="7" height="4"></rect>
    <rect x="121" y="211" width="7" height="4"></rect>
    <rect x="132" y="211" width="7" height="4"></rect>
    <rect x="143" y="211" width="7" height="4"></rect>
    <rect x="154" y="211" width="7" height="4"></rect>
    <rect x="110" y="219" width="7" height="4"></rect>
    <rect x="121" y="219" width="7" height="4"></rect>
    <rect x="132" y="219" width="7" height="4"></rect>
    <rect x="143" y="219" width="7" height="4"></rect>
    <rect x="154" y="219" width="7" height="4"></rect>
  </g>
  <use href="#LED" filter="url(#blur)" stroke="#FFF"></use>
  <use href="#LED" fill="#F055" stroke="#FFF" stroke-width="0.1"></use>
  <g id="HEADER" stroke="#FF0">
    <rect x="110" y="115" width="50" height="6" fill="url(#hdr1)"></rect>
    <rect x="110" y="270" width="50" height="6" fill="url(#hdr2)"></rect>
    <rect x="570" y="115" width="50" height="6" fill="url(#hdr3)"></rect>
    <rect x="570" y="270" width="50" height="6" fill="url(#hdr4)"></rect>
    <rect x="207.5" y="115" width="25" height="6" fill="url(#hdr5)"></rect>
    <rect x="207.5" y="270" width="25" height="6" fill="url(#hdr6)"></rect>
    <rect x="537.5" y="115" width="25" height="6" fill="url(#hdr7)"></rect>
    <rect x="537.5" y="270" width="25" height="6" fill="url(#hdr8)"></rect>
    <rect x="177.5" y="115" width="20" height="161" fill="url(#hdr9)" stroke="#FFF" stroke-width="3"></rect>
  </g>
  <g id="SOCKET" fill="#212A" stroke="#FFF" stroke-width="4" stroke-linejoin="round">
    <rect x="205" y="125" width="30" height="140"></rect>
    <rect x="535" y="125" width="30" height="140"></rect>
  </g>
  <g id="CAP">
    <rect x="522.5" y="150" width="6" height="20" fill="#F06" stroke="#F06"></rect>
    <rect x="522.5" y="220" width="6" height="20" fill="#0AF" stroke="#0AF"></rect>
    <rect x="256.5" y="150" width="6" height="20" fill="#F06" stroke="#F06"></rect>
    <rect x="312.5" y="150" width="6" height="20" fill="#F06" stroke="#F06"></rect>
    <rect x="332.5" y="150" width="6" height="20" fill="#F06" stroke="#F06"></rect>
    <rect x="388.5" y="150" width="6" height="20" fill="#F06" stroke="#F06"></rect>
    <rect x="408.5" y="150" width="6" height="20" fill="#F06" stroke="#F06"></rect>
    <rect x="464.5" y="150" width="6" height="20" fill="#F06" stroke="#F06"></rect>
    <rect x="256.5" y="220" width="6" height="20" fill="#0AF" stroke="#0AF"></rect>
    <rect x="312.5" y="220" width="6" height="20" fill="#0AF" stroke="#0AF"></rect>
    <rect x="332.5" y="220" width="6" height="20" fill="#0AF" stroke="#0AF"></rect>
    <rect x="388.5" y="220" width="6" height="20" fill="#0AF" stroke="#0AF"></rect>
    <rect x="408.5" y="220" width="6" height="20" fill="#0AF" stroke="#0AF"></rect>
    <rect x="464.5" y="220" width="6" height="20" fill="#0AF" stroke="#0AF"></rect>
    <!--________________________________________________________________________-->
    <rect x="290.5" y="167" width="20" height="6" fill="#F06" stroke="#F06"></rect>
    <rect x="366.5" y="167" width="20" height="6" fill="#F06" stroke="#F06"></rect>
    <rect x="442.5" y="167" width="20" height="6" fill="#F06" stroke="#F06"></rect>
    <rect x="290.5" y="217" width="20" height="6" fill="#0AF" stroke="#0AF"></rect>
    <rect x="366.5" y="217" width="20" height="6" fill="#0AF" stroke="#0AF"></rect>
    <rect x="442.5" y="217" width="20" height="6" fill="#0AF" stroke="#0AF"></rect>
  </g>
  <g id="PAD2" fill="#FED" stroke="none">
    <rect x="255.5" y="126" width="8" height="20"></rect><rect x="255.5" y="134" width="8" height="4" fill="#000" stroke="none"></rect>
    <rect x="269.5" y="166" width="20" height="8"></rect><rect x="277.5" y="166" width="4" height="8" fill="#000" stroke="none"></rect>
    <rect x="331.5" y="126" width="8" height="20"></rect><rect x="331.5" y="134" width="8" height="4" fill="#000" stroke="none"></rect>
    <rect x="345.5" y="166" width="20" height="8"></rect><rect x="353.5" y="166" width="4" height="8" fill="#000" stroke="none"></rect>
    <rect x="407.5" y="126" width="8" height="20"></rect><rect x="407.5" y="134" width="8" height="4" fill="#000" stroke="none"></rect>
    <rect x="421.5" y="166" width="20" height="8"></rect><rect x="429.5" y="166" width="4" height="8" fill="#000" stroke="none"></rect>
    <rect x="255.5" y="244" width="8" height="20"></rect><rect x="255.5" y="252" width="8" height="4" fill="#000" stroke="none"></rect>
    <rect x="269.5" y="216" width="20" height="8"></rect><rect x="277.5" y="216" width="4" height="8" fill="#000" stroke="none"></rect>
    <rect x="331.5" y="244" width="8" height="20"></rect><rect x="331.5" y="252" width="8" height="4" fill="#000" stroke="none"></rect>
    <rect x="345.5" y="216" width="20" height="8"></rect><rect x="353.5" y="216" width="4" height="8" fill="#000" stroke="none"></rect>
    <rect x="407.5" y="244" width="8" height="20"></rect><rect x="407.5" y="252" width="8" height="4" fill="#000" stroke="none"></rect>
    <rect x="421.5" y="216" width="20" height="8"></rect><rect x="429.5" y="216" width="4" height="8" fill="#000" stroke="none"></rect>
    <!--____________________________________________________________________________________________________________________________-->
    <rect x="320.5" y="150" width="8" height="20"></rect><rect x="320.5" y="158" width="8" height="4" fill="#000" stroke="none"></rect>
    <rect x="396.5" y="150" width="8" height="20"></rect><rect x="396.5" y="158" width="8" height="4" fill="#000" stroke="none"></rect>
    <rect x="472.5" y="150" width="8" height="20"></rect><rect x="472.5" y="158" width="8" height="4" fill="#000" stroke="none"></rect>
    <rect x="320.5" y="150" width="8" height="20"></rect><rect x="320.5" y="158" width="8" height="4" fill="#000" stroke="none"></rect>
    <rect x="396.5" y="150" width="8" height="20"></rect><rect x="396.5" y="158" width="8" height="4" fill="#000" stroke="none"></rect>
    <rect x="472.5" y="150" width="8" height="20"></rect><rect x="472.5" y="158" width="8" height="4" fill="#000" stroke="none"></rect>
    <rect x="320.5" y="220" width="8" height="20"></rect><rect x="320.5" y="228" width="8" height="4" fill="#000" stroke="none"></rect>
    <rect x="396.5" y="220" width="8" height="20"></rect><rect x="396.5" y="228" width="8" height="4" fill="#000" stroke="none"></rect>
    <rect x="472.5" y="220" width="8" height="20"></rect><rect x="472.5" y="228" width="8" height="4" fill="#000" stroke="none"></rect>
    <rect x="320.5" y="220" width="8" height="20"></rect><rect x="320.5" y="228" width="8" height="4" fill="#000" stroke="none"></rect>
    <rect x="396.5" y="220" width="8" height="20"></rect><rect x="396.5" y="228" width="8" height="4" fill="#000" stroke="none"></rect>
    <rect x="472.5" y="220" width="8" height="20"></rect><rect x="472.5" y="228" width="8" height="4" fill="#000" stroke="none"></rect>
  </g>
  <g id="PADM3" fill="#FED" stroke="none">
    <path d="m 308.5 126 l 20 0 l 0 20 l -8 0 l 0 -12 l -12 0 z"></path><rect x="320.5" y="134" width="8" height="4" fill="#000"></rect><rect x="316.5" y="126" width="4" height="8" fill="#000"></rect>
    <path d="m 384.5 126 l 20 0 l 0 20 l -8 0 l 0 -12 l -12 0 z"></path><rect x="396.5" y="134" width="8" height="4" fill="#000"></rect><rect x="392.5" y="126" width="4" height="8" fill="#000"></rect>
    <path d="m 460.5 126 l 20 0 l 0 20 l -8 0 l 0 -12 l -12 0 z"></path><rect x="472.5" y="134" width="8" height="4" fill="#000"></rect><rect x="468.5" y="126" width="4" height="8" fill="#000"></rect>
    <path d="m 308.5 264 l 20 0 l 0 -20 l -8 0 l 0 12 l -12 0 z"></path><rect x="320.5" y="252" width="8" height="4" fill="#000"></rect><rect x="316.5" y="256" width="4" height="8" fill="#000"></rect>
    <path d="m 384.5 264 l 20 0 l 0 -20 l -8 0 l 0 12 l -12 0 z"></path><rect x="396.5" y="252" width="8" height="4" fill="#000"></rect><rect x="392.5" y="256" width="4" height="8" fill="#000"></rect>
    <path d="m 460.5 264 l 20 0 l 0 -20 l -8 0 l 0 12 l -12 0 z"></path><rect x="472.5" y="252" width="8" height="4" fill="#000"></rect><rect x="468.5" y="256" width="4" height="8" fill="#000"></rect>
  </g>
  <g id="JUMPER" stroke="#BB8">
    <rect x="257.5" y="128" width="4" height="16" fill="url(#jmp1)"></rect>
<!--<rect x="271.5" y="168" width="16" height="4" fill="url(#jmp2)"></rect>-->
    <rect x="333.5" y="128" width="4" height="16" fill="url(#jmp1)"></rect>
<!--<rect x="347.5" y="168" width="16" height="4" fill="url(#jmp2)"></rect>-->
    <rect x="409.5" y="128" width="4" height="16" fill="url(#jmp1)"></rect>
<!--<rect x="423.5" y="168" width="16" height="4" fill="url(#jmp2)"></rect>-->
    <rect x="257.5" y="246" width="4" height="16" fill="url(#jmp3)"></rect>
<!--<rect x="271.5" y="218" width="16" height="4" fill="url(#jmp4)"></rect>-->
    <rect x="333.5" y="246" width="4" height="16" fill="url(#jmp3)"></rect>
<!--<rect x="347.5" y="218" width="16" height="4" fill="url(#jmp4)"></rect>-->
    <rect x="409.5" y="246" width="4" height="16" fill="url(#jmp3)"></rect>
<!--<rect x="423.5" y="218" width="16" height="4" fill="url(#jmp4)"></rect>-->
    <!--________________________________________________________________-->
    <rect x="322.5" y="128" width="4" height="16" fill="url(#jmp5)"></rect>
    <rect x="398.5" y="128" width="4" height="16" fill="url(#jmp5)"></rect>
    <rect x="474.5" y="128" width="4" height="16" fill="url(#jmp5)"></rect>
    <rect x="310.5" y="258" width="16" height="4" fill="url(#jmp6)"></rect>
    <rect x="386.5" y="258" width="16" height="4" fill="url(#jmp6)"></rect>
    <rect x="462.5" y="258" width="16" height="4" fill="url(#jmp6)"></rect>
    <!--___________________________________________________________________
    <rect x="322.5" y="152" width="4" height="16" fill="url(#jmp5)"></rect>
    <rect x="398.5" y="152" width="4" height="16" fill="url(#jmp5)"></rect>
    <rect x="474.5" y="152" width="4" height="16" fill="url(#jmp5)"></rect>
    <rect x="322.5" y="222" width="4" height="16" fill="url(#jmp6)"></rect>
    <rect x="398.5" y="222" width="4" height="16" fill="url(#jmp6)"></rect>
    <rect x="474.5" y="222" width="4" height="16" fill="url(#jmp6)"></rect>
    ____________________________________________________________________-->
  </g>
  <g id="POT">
    <rect x="270" y="127" width="35" height="35" fill="#F17" stroke="#AAA"></rect><circle cx="287.5" cy="145" r="7" fill="#FFF" stroke="#FFF"></circle><rect x="282.5" y="143.5" width="10" height="3" fill="#777"></rect><rect x="286" y="140" width="3" height="10" fill="#777"></rect>
    <rect x="346" y="127" width="35" height="35" fill="#F17" stroke="#AAA"></rect><circle cx="363.5" cy="145" r="7" fill="#FFF" stroke="#FFF"></circle><rect x="358.5" y="143.5" width="10" height="3" fill="#777"></rect><rect x="362" y="140" width="3" height="10" fill="#777"></rect>
    <rect x="422" y="127" width="35" height="35" fill="#F17" stroke="#AAA"></rect><circle cx="439.5" cy="145" r="7" fill="#FFF" stroke="#FFF"></circle><rect x="434.5" y="143.5" width="10" height="3" fill="#777"></rect><rect x="438" y="140" width="3" height="10" fill="#777"></rect>
    <rect x="270" y="228" width="35" height="35" fill="#17F" stroke="#AAA"></rect><circle cx="287.5" cy="245" r="7" fill="#FFF" stroke="#FFF"></circle><rect x="282.5" y="243.5" width="10" height="3" fill="#777"></rect><rect x="286" y="240" width="3" height="10" fill="#777"></rect>
    <rect x="346" y="228" width="35" height="35" fill="#17F" stroke="#AAA"></rect><circle cx="363.5" cy="245" r="7" fill="#FFF" stroke="#FFF"></circle><rect x="358.5" y="243.5" width="10" height="3" fill="#777"></rect><rect x="362" y="240" width="3" height="10" fill="#777"></rect>
    <rect x="422" y="228" width="35" height="35" fill="#17F" stroke="#AAA"></rect><circle cx="439.5" cy="245" r="7" fill="#FFF" stroke="#FFF"></circle><rect x="434.5" y="243.5" width="10" height="3" fill="#777"></rect><rect x="438" y="240" width="3" height="10" fill="#777"></rect>
  </g>
  <g id="MISC">
    <rect x="150" y="150" width="20" height="20" fill="#F055"></rect>
  </g>
</g>
</svg>