<!-- moduino mod launch control patch -->
<svg xmlns="http://www.w3.org/2000/svg" style="background: #111; width: 100%; height: 100%;">
<defs>
  <filter id="blur">
    <feGaussianBlur stdDeviation="0.2"></feGaussianBlur>
  </filter>
  <pattern id="grid" x="0.0" y="0.0" width="10" height="10" patternUnits="userSpaceOnUse">
    <rect width="10" height="10" fill="#111"></rect>
    <rect width="1" height="1" fill="#FFF"></rect>
  </pattern>
  <pattern id="vent" width="50" height="50" patternUnits="userSpaceOnUse">
    <rect width="50" height="50" fill="#000"></rect>
    <path d="m 0 0 l 0 25 l 25 -25 z m 50 0 l 0 25 l -25 25 l -25 0 z" fill="#111"></path>
  </pattern>
</defs>
<rect width="100%" height="100%" fill="url(#grid)"></rect>
<g id="moduino" fill="none" font-size="20pt" font-family="Consolas" transform="scale(2.5)">
  <g id="EDGE" fill="url(#vent)" stroke="#333" stroke-width="6">
    <path d="m 100 100 l 0 200 l 200 0 l 0 -200 z"></path>
    <path d="m 80 80 l 0 240 l 240 0 l 0 -240 z" fill="none" stroke="#F05" stroke-width="20" stroke-linejoin="round"></path>
  </g>
  <g id="TABS" fill="#FFF">
    <path d="m 190  90 l 20 0 l 0 2 l -7 0 s -1.5 0 -1.5 1.5 l 0 0 s 0 1.5 1.5 1.5 l 0 0 l 7 0 l 0 2 l -20 0 l 0 -2 l 7 0 s 1.5 0 1.5 -1.5 l 0 0 s 0 -1.5 -1.5 -1.5 l 0 0 l -7 0 l 0 -2 z"></path>
    <path d="m 190 303 l 20 0 l 0 2 l -7 0 s -1.5 0 -1.5 1.5 l 0 0 s 0 1.5 1.5 1.5 l 0 0 l 7 0 l 0 2 l -20 0 l 0 -2 l 7 0 s 1.5 0 1.5 -1.5 l 0 0 s 0 -1.5 -1.5 -1.5 l 0 0 l -7 0 l 0 -2 z"></path>
    <path d="m  90 190 l 0 20 l 2 0 l 0 -7 s 0 -1.5 1.5 -1.5 l 0 0 s 1.5 0 1.5 1.5 l 0 0 l 0 7 l 2 0 l 0 -20 l -2 0 l 0 7 s 0 1.5 -1.5 1.5 l 0 0 s -1.5 0 -1.5 -1.5 l 0 0 l 0 -7 l -2 0 z"></path>
    <path d="m 303 190 l 0 20 l 2 0 l 0 -7 s 0 -1.5 1.5 -1.5 l 0 0 s 1.5 0 1.5 1.5 l 0 0 l 0 7 l 2 0 l 0 -20 l -2 0 l 0 7 s 0 1.5 -1.5 1.5 l 0 0 s -1.5 0 -1.5 -1.5 l 0 0 l 0 -7 l -2 0 z"></path>
  </g>
  <g id="FRAME" fill="none" stroke="#477" stroke-width="1" stroke-linejoin="round" stroke-linecap="round">
    <path d="m  50  50 l  15 0 m -15 0 l 0  15"></path>
    <path d="m 350  50 l -15 0 m  15 0 l 0  15"></path>
    <path d="m  50 350 l  15 0 m -15 0 l 0 -15"></path>
    <path d="m 350 350 l -15 0 m  15 0 l 0 -15"></path>
  </g>
  <g id="FEINT" fill="none" stroke="#4777" stroke-width="1" stroke-linejoin="round" stroke-linecap="round">
    
    <path d="m 137.5 297 l -22.5 -194"></path><path d="m 141.5 297 l -22.5 -194"></path><path d="m 145.5 297 l -22.5 -194"></path><path d="m 149.5 297 l -22.5 -194"></path>
    <path d="m 160.0 297 l -22.5 -194"></path><path d="m 164.0 297 l -22.5 -194"></path><path d="m 168.0 297 l -22.5 -194"></path><path d="m 172.0 297 l -22.5 -194"></path>
    <path d="m 182.5 297 l -22.5 -194"></path><path d="m 186.5 297 l -22.5 -194"></path><path d="m 190.5 297 l -22.5 -194"></path><path d="m 194.5 297 l -22.5 -194"></path>
    <path d="m 205.0 297 l -22.5 -194"></path><path d="m 209.0 297 l -22.5 -194"></path><path d="m 213.0 297 l -22.5 -194"></path><path d="m 217.0 297 l -22.5 -194"></path>
    <path d="m 227.5 297 l -22.5 -194"></path><path d="m 231.5 297 l -22.5 -194"></path><path d="m 235.5 297 l -22.5 -194"></path><path d="m 239.5 297 l -22.5 -194"></path>
    <path d="m 250.0 297 l -22.5 -194"></path><path d="m 254.0 297 l -22.5 -194"></path><path d="m 258.0 297 l -22.5 -194"></path><path d="m 262.0 297 l -22.5 -194"></path>
    <path d="m 272.5 297 l -22.5 -194"></path><path d="m 276.5 297 l -22.5 -194"></path><path d="m 280.5 297 l -22.5 -194"></path><path d="m 284.5 297 l -22.5 -194"></path>
  </g>
  <g id="WIRE" fill="none" stroke="#477" stroke-width="1" stroke-linejoin="round" stroke-linecap="round">
    <path d="m 115.0 297 l 0 -194"></path><path d="m 119.0 297 l 0 -194"></path><path d="m 123.0 297 l 0 -194"></path><path d="m 127.0 297 l 0 -194"></path>
    <path d="m 137.5 297 l 0 -194"></path><path d="m 141.5 297 l 0 -194"></path><path d="m 145.5 297 l 0 -194"></path><path d="m 149.5 297 l 0 -194"></path>
    <path d="m 160.0 297 l 0 -194"></path><path d="m 164.0 297 l 0 -194"></path><path d="m 168.0 297 l 0 -194"></path><path d="m 172.0 297 l 0 -194"></path>
    <path d="m 182.5 297 l 0 -194"></path><path d="m 186.5 297 l 0 -194"></path><path d="m 190.5 297 l 0 -194"></path><path d="m 194.5 297 l 0 -194"></path>
    <path d="m 205.0 297 l 0 -194"></path><path d="m 209.0 297 l 0 -194"></path><path d="m 213.0 297 l 0 -194"></path><path d="m 217.0 297 l 0 -194"></path>
    <path d="m 227.5 297 l 0 -194"></path><path d="m 231.5 297 l 0 -194"></path><path d="m 235.5 297 l 0 -194"></path><path d="m 239.5 297 l 0 -194"></path>
    <path d="m 250.0 297 l 0 -194"></path><path d="m 254.0 297 l 0 -194"></path><path d="m 258.0 297 l 0 -194"></path><path d="m 262.0 297 l 0 -194"></path>
    <path d="m 272.5 297 l 0 -194"></path><path d="m 276.5 297 l 0 -194"></path><path d="m 280.5 297 l 0 -194"></path><path d="m 284.5 297 l 0 -194"></path>
  </g>
  <g id="ENCODER"><!--5mm with 1.5mm spacing and 8mm stride-->
    <g transform="translate(111.0, 111.0)"><circle transform="translate(10, 0)" r="9" cx="0" cy="10"></circle><line transform="translate(10, 10) rotate(270, 0, 0)" x1="0" y1="0" x2="-7" y2="7"></line></g>
    <g transform="translate(133.5, 111.0)"><circle transform="translate(10, 0)" r="9" cx="0" cy="10"></circle><line transform="translate(10, 10) rotate(240, 0, 0)" x1="0" y1="0" x2="-7" y2="7"></line></g>
    <g transform="translate(156.0, 111.0)"><circle transform="translate(10, 0)" r="9" cx="0" cy="10"></circle><line transform="translate(10, 10) rotate(270, 0, 0)" x1="0" y1="0" x2="-7" y2="7"></line></g>
    <g transform="translate(178.5, 111.0)"><circle transform="translate(10, 0)" r="9" cx="0" cy="10"></circle><line transform="translate(10, 10) rotate(180, 0, 0)" x1="0" y1="0" x2="-7" y2="7"></line></g>
    <g transform="translate(201.0, 111.0)"><circle transform="translate(10, 0)" r="9" cx="0" cy="10"></circle><line transform="translate(10, 10) rotate(225, 0, 0)" x1="0" y1="0" x2="-7" y2="7"></line></g>
    <g transform="translate(223.5, 111.0)"><circle transform="translate(10, 0)" r="9" cx="0" cy="10"></circle><line transform="translate(10, 10) rotate(225, 0, 0)" x1="0" y1="0" x2="-7" y2="7"></line></g>
    <g transform="translate(246.0, 111.0)"><circle transform="translate(10, 0)" r="9" cx="0" cy="10"></circle><line transform="translate(10, 10) rotate(225, 0, 0)" x1="0" y1="0" x2="-7" y2="7"></line></g>
    <g transform="translate(268.5, 111.0)"><circle transform="translate(10, 0)" r="9" cx="0" cy="10"></circle><line transform="translate(10, 10) rotate(225, 0, 0)" x1="0" y1="0" x2="-7" y2="7"></line></g>

    <g transform="translate(111.0, 133.5)"><circle transform="translate(10, 0)" r="9" cx="0" cy="10"></circle><line transform="translate(10, 10) rotate(270, 0, 0)" x1="0" y1="0" x2="-7" y2="7"></line></g>
    <g transform="translate(133.5, 133.5)"><circle transform="translate(10, 0)" r="9" cx="0" cy="10"></circle><line transform="translate(10, 10) rotate(135, 0, 0)" x1="0" y1="0" x2="-7" y2="7"></line></g>
    <g transform="translate(156.0, 133.5)"><circle transform="translate(10, 0)" r="9" cx="0" cy="10"></circle><line transform="translate(10, 10) rotate(135, 0, 0)" x1="0" y1="0" x2="-7" y2="7"></line></g>
    <g transform="translate(178.5, 133.5)"><circle transform="translate(10, 0)" r="9" cx="0" cy="10"></circle><line transform="translate(10, 10) rotate(200, 0, 0)" x1="0" y1="0" x2="-7" y2="7"></line></g>
    <g transform="translate(201.0, 133.5)"><circle transform="translate(10, 0)" r="9" cx="0" cy="10"></circle><line transform="translate(10, 10) rotate(225, 0, 0)" x1="0" y1="0" x2="-7" y2="7"></line></g>
    <g transform="translate(223.5, 133.5)"><circle transform="translate(10, 0)" r="9" cx="0" cy="10"></circle><line transform="translate(10, 10) rotate(200, 0, 0)" x1="0" y1="0" x2="-7" y2="7"></line></g>
    <g transform="translate(246.0, 133.5)"><circle transform="translate(10, 0)" r="9" cx="0" cy="10"></circle><line transform="translate(10, 10) rotate(175, 0, 0)" x1="0" y1="0" x2="-7" y2="7"></line></g>
    <g transform="translate(268.5, 133.5)"><circle transform="translate(10, 0)" r="9" cx="0" cy="10"></circle><line transform="translate(10, 10) rotate(150, 0, 0)" x1="0" y1="0" x2="-7" y2="7"></line></g>

    <g transform="translate(111.0, 156.0)"><circle transform="translate(10, 0)" r="9" cx="0" cy="10"></circle><line transform="translate(10, 10) rotate(270, 0, 0)" x1="0" y1="0" x2="-7" y2="7"></line></g>
    <g transform="translate(133.5, 156.0)"><circle transform="translate(10, 0)" r="9" cx="0" cy="10"></circle><line transform="translate(10, 10) rotate(135, 0, 0)" x1="0" y1="0" x2="-7" y2="7"></line></g>
    <g transform="translate(156.0, 156.0)"><circle transform="translate(10, 0)" r="9" cx="0" cy="10"></circle><line transform="translate(10, 10) rotate(135, 0, 0)" x1="0" y1="0" x2="-7" y2="7"></line></g>
    <g transform="translate(178.5, 156.0)"><circle transform="translate(10, 0)" r="9" cx="0" cy="10"></circle><line transform="translate(10, 10) rotate(190, 0, 0)" x1="0" y1="0" x2="-7" y2="7"></line></g>
    <g transform="translate(201.0, 156.0)"><circle transform="translate(10, 0)" r="9" cx="0" cy="10"></circle><line transform="translate(10, 10) rotate(090, 0, 0)" x1="0" y1="0" x2="-7" y2="7"></line></g>
    <g transform="translate(223.5, 156.0)"><circle transform="translate(10, 0)" r="9" cx="0" cy="10"></circle><line transform="translate(10, 10) rotate(270, 0, 0)" x1="0" y1="0" x2="-7" y2="7"></line></g>
    <g transform="translate(246.0, 156.0)"><circle transform="translate(10, 0)" r="9" cx="0" cy="10"></circle><line transform="translate(10, 10) rotate(090, 0, 0)" x1="0" y1="0" x2="-7" y2="7"></line></g>
    <g transform="translate(268.5, 156.0)"><circle transform="translate(10, 0)" r="9" cx="0" cy="10"></circle><line transform="translate(10, 10) rotate(270, 0, 0)" x1="0" y1="0" x2="-7" y2="7"></line></g>
  </g>
  <use href="#ENCODER" filter="url(#blur)" stroke="#FFF"></use>
  <use href="#ENCODER" fill="#F055" stroke="#FFF" stroke-width="0.1"></use>
  <g id="FADER" fill="#003A" stroke="#FFF" filter="url(#blur)">
    <rect x="111.0" y="180" width="20" height="80"></rect><rect x="111.0" y="180" width="20" height="10" fill="#104A" transform="translate(0, 10)"></rect>
    <rect x="133.5" y="180" width="20" height="80"></rect><rect x="133.5" y="180" width="20" height="10" fill="#104A" transform="translate(0, 10)"></rect>
    <rect x="156.0" y="180" width="20" height="80"></rect><rect x="156.0" y="180" width="20" height="10" fill="#104A" transform="translate(0, 10)"></rect>
    <rect x="178.5" y="180" width="20" height="80"></rect><rect x="178.5" y="180" width="20" height="10" fill="#104A" transform="translate(0, 10)"></rect>
    <rect x="201.0" y="180" width="20" height="80"></rect><rect x="201.0" y="180" width="20" height="10" fill="#104A" transform="translate(0, 10)"></rect>
    <rect x="223.5" y="180" width="20" height="80"></rect><rect x="223.5" y="180" width="20" height="10" fill="#104A" transform="translate(0, 10)"></rect>
    <rect x="246.0" y="180" width="20" height="80"></rect><rect x="246.0" y="180" width="20" height="10" fill="#104A" transform="translate(0, 10)"></rect>
    <rect x="268.5" y="180" width="20" height="80"></rect><rect x="268.5" y="180" width="20" height="10" fill="#104A" transform="translate(0, 10)"></rect>
  </g>
  <g id="BUTTON" fill="#101A" stroke="#FFF" filter="url(#blur)">
    <rect x="111.0" y="265" width="20" height="10" fill="#703A"></rect><rect x="111.0" y="280" width="20" height="10" fill="#101A"></rect>
    <rect x="133.5" y="265" width="20" height="10" fill="#101A"></rect><rect x="133.5" y="280" width="20" height="10" fill="#703A"></rect>
    <rect x="156.0" y="265" width="20" height="10" fill="#703A"></rect><rect x="156.0" y="280" width="20" height="10" fill="#101A"></rect>
    <rect x="178.5" y="265" width="20" height="10" fill="#703A"></rect><rect x="178.5" y="280" width="20" height="10" fill="#101A"></rect>
    <rect x="201.0" y="265" width="20" height="10" fill="#703A"></rect><rect x="201.0" y="280" width="20" height="10" fill="#101A"></rect>
    <rect x="223.5" y="265" width="20" height="10" fill="#703A"></rect><rect x="223.5" y="280" width="20" height="10" fill="#101A"></rect>
    <rect x="246.0" y="265" width="20" height="10" fill="#703A"></rect><rect x="246.0" y="280" width="20" height="10" fill="#101A"></rect>
    <rect x="268.5" y="265" width="20" height="10" fill="#703A"></rect><rect x="268.5" y="280" width="20" height="10" fill="#101A"></rect>
  </g>
  <g id="TEXT" font-size="5pt" font-weight="bold" font-family="sans-serif">
    <text transform="translate(291, 104) rotate( 90, 0, 0)" fill="#FFF">|| MODUINO || MOD || LAUNCH || CONTROL || PATCH ||_\/\/\/ ||</text>
    <text transform="translate(109, 296) rotate(-90, 0, 0)" fill="#FFF">|| MODUINO || MOD || LAUNCH || CONTROL || PATCH ||_\/\/\/ ||</text>
  </g>
  <g id="MEMO" transform="translate(400, 100)">
    <path d="m 0 0 l 200 0 l 0 180 l -20 20 l -180 0 z" fill="#FFB" stroke="#777"></path>
    <text fill="#111" font-size="5pt" font-weight="bold" font-family="consolas">
      <tspan x="6" y="011" fill="#03F" font-size="7.1pt">__MODUINO_MOD_LAUNCH_CONTROL_PATCH__</tspan>
      <tspan x="6" y="021">Live Mixer Control Panel Patching Information</tspan>
      <tspan x="6" y="041" fill="#0AF">[Control Change]</tspan>
      <tspan x="6" y="051">CC: 31, 32, 33, 34, 35, 36, 37, 38</tspan>
      <tspan x="6" y="061">CC: 21, 22, 23, 24, 25, 26, 27, 28</tspan>
      <tspan x="6" y="071">CC: 11, 12, 13, 14, 15, 16, 17, 18</tspan>
      <tspan x="6" y="081">CC: 01, 02, 03, 04, 05, 06, 07, 08</tspan>
      <tspan x="6" y="091">CC: 41, 42, 43, 44, 45, 46, 47, 48</tspan>
      <tspan x="6" y="101">CC: 51, 52, 53, 54, 55, 56, 57, 58</tspan>
      <tspan x="6" y="121" fill="#0AF">[Patch Notes]</tspan>
      <tspan x="6" y="131">* Faders 1->8 as <tspan fill="#F00">Gain Volume</tspan> for Channels 1->8</tspan>
      <tspan x="6" y="141">* Encoders 11, 21, 31 etc. as EQ <tspan fill="#F00">Bass, Mid, Treble</tspan></tspan>
      <tspan x="6" y="151">* Buttons 41, 51 etc. as <tspan fill="#F00">Selective Focus</tspan> (Solo/Mute)</tspan>
      <tspan x="6" y="161">* Faders modified by the formula <tspan fill="#F00">"input / 127 x 100"</tspan></tspan>
      <tspan x="6" y="171">* Encoders with crossover of <tspan fill="#F00">150Hz, 1500Hz, 8000Hz</tspan></tspan>
      <tspan x="6" y="181">* Top Row of Buttons to Mute all other channels</tspan>
      <tspan x="6" y="191">* Lower Row of Buttons to Mute only the channel</tspan>
    </text>
    <!--<text fill="#111" font-size="5pt" font-weight="bold" font-family="sans-serif">
      <tspan x="6" y="011">MEMOPADMEMOPADMEMOPADMEMOPADMEMOPADMEMO</tspan>
      <tspan x="6" y="021">MEMOPADMEMOPADMEMOPADMEMOPADMEMOPADMEMO</tspan>
      <tspan x="6" y="031">MEMOPADMEMOPADMEMOPADMEMOPADMEMOPADMEMO</tspan>
      <tspan x="6" y="041">MEMOPADMEMOPADMEMOPADMEMOPADMEMOPADMEMO</tspan>
      <tspan x="6" y="051">MEMOPADMEMOPADMEMOPADMEMOPADMEMOPADMEMO</tspan>
      <tspan x="6" y="061">MEMOPADMEMOPADMEMOPADMEMOPADMEMOPADMEMO</tspan>
      <tspan x="6" y="071">MEMOPADMEMOPADMEMOPADMEMOPADMEMOPADMEMO</tspan>
      <tspan x="6" y="081">MEMOPADMEMOPADMEMOPADMEMOPADMEMOPADMEMO</tspan>
      <tspan x="6" y="091">MEMOPADMEMOPADMEMOPADMEMOPADMEMOPADMEMO</tspan>
      <tspan x="6" y="101">MEMOPADMEMOPADMEMOPADMEMOPADMEMOPADMEMO</tspan>
      <tspan x="6" y="111">MEMOPADMEMOPADMEMOPADMEMOPADMEMOPADMEMO</tspan>
      <tspan x="6" y="121">MEMOPADMEMOPADMEMOPADMEMOPADMEMOPADMEMO</tspan>
      <tspan x="6" y="131">MEMOPADMEMOPADMEMOPADMEMOPADMEMOPADMEMO</tspan>
      <tspan x="6" y="141">MEMOPADMEMOPADMEMOPADMEMOPADMEMOPADMEMO</tspan>
      <tspan x="6" y="151">MEMOPADMEMOPADMEMOPADMEMOPADMEMOPADMEMO</tspan>
      <tspan x="6" y="161">MEMOPADMEMOPADMEMOPADMEMOPADMEMOPADMEMO</tspan>
      <tspan x="6" y="171">MEMOPADMEMOPADMEMOPADMEMOPADMEMOPADMEMO</tspan>
      <tspan x="6" y="181">MEMOPADMEMOPADMEMOPADMEMOPADMEMOPADMEMO</tspan>
      <tspan x="6" y="191">MEMOPADMEMOPADMEMOPADMEMOPADMEMOPADME</tspan>
    </text>-->
  </g>
</g>
</svg>