<!-- moduino mega audio tape -->
<svg xmlns="http://www.w3.org/2000/svg" style="background: #111; width: 100%; height: 100%;">
<defs>
  <pattern id="grid" width="10" height="10" patternUnits="userSpaceOnUse">
    <rect width="10" height="10" fill="#111"></rect>
    <rect width="1" height="1" fill="#FFF"></rect>
  </pattern>
  <pattern id="vent" width="50" height="50" patternUnits="userSpaceOnUse">
    <rect width="50" height="50" fill="#0F1F2F"></rect>
    <path d="m 0 0 l 0 25 l 25 -25 z m 50 0 l 0 25 l -25 25 l -25 0 z" fill="#1F2F3F"></path>
  </pattern>
  <pattern id="pins" width="8" height="6" patternUnits="userSpaceOnUse">
    <rect width="8" height="6" fill="#000"></rect>
    <rect width="3" height="3" fill="#333" x="2.5" y="1.5"></rect>
  </pattern>
  <clipPath id="hole">
    <path d="m 189 97 l 336 0 l 0 196 l -336 0 z m 20 20 l 100 0 z
    a 2 2 360 1 0 0 -0.001 m 0 6.18 a 2 2 360 1 0 0 -0.001 m 0 6.18 a 2 2 360 1 0 0 -0.001 m 0 6.18 a 2 2 360 1 0 0 -0.001 m 0 6.18 a 2 2 360 1 0 0 -0.001 m 0 6.18 a 2 2 360 1 0 0 -0.001 m 0 6.18 a 2 2 360 1 0 0 -0.001 m 0 6.18 a 2 2 360 1 0 0 -0.001 m 6.18 -43.26
    a 2 2 360 1 0 0 -0.001 m 0 6.18 a 2 2 360 1 0 0 -0.001 m 0 6.18 a 2 2 360 1 0 0 -0.001 m 0 6.18 a 2 2 360 1 0 0 -0.001 m 0 6.18 a 2 2 360 1 0 0 -0.001 m 0 6.18 a 2 2 360 1 0 0 -0.001 m 0 6.18 a 2 2 360 1 0 0 -0.001 m 0 6.18 a 2 2 360 1 0 0 -0.001 m 6.18 -43.26
    a 2 2 360 1 0 0 -0.001 m 0 6.18 a 2 2 360 1 0 0 -0.001 m 0 6.18 a 2 2 360 1 0 0 -0.001 m 0 6.18 a 2 2 360 1 0 0 -0.001 m 0 6.18 a 2 2 360 1 0 0 -0.001 m 0 6.18 a 2 2 360 1 0 0 -0.001 m 0 6.18 a 2 2 360 1 0 0 -0.001 m 0 6.18 a 2 2 360 1 0 0 -0.001 m 6.18 -43.26
    a 2 2 360 1 0 0 -0.001 m 0 6.18 a 2 2 360 1 0 0 -0.001 m 0 6.18 a 2 2 360 1 0 0 -0.001 m 0 6.18 a 2 2 360 1 0 0 -0.001 m 0 6.18 a 2 2 360 1 0 0 -0.001 m 0 6.18 a 2 2 360 1 0 0 -0.001 m 0 6.18 a 2 2 360 1 0 0 -0.001 m 0 6.18 a 2 2 360 1 0 0 -0.001 m 6.18 -43.26
    a 2 2 360 1 0 0 -0.001 m 0 6.18 a 2 2 360 1 0 0 -0.001 m 0 6.18 a 2 2 360 1 0 0 -0.001 m 0 6.18 a 2 2 360 1 0 0 -0.001 m 0 6.18 a 2 2 360 1 0 0 -0.001 m 0 6.18 a 2 2 360 1 0 0 -0.001 m 0 6.18 a 2 2 360 1 0 0 -0.001 m 0 6.18 a 2 2 360 1 0 0 -0.001 m 6.18 -43.26
    a 2 2 360 1 0 0 -0.001 m 0 6.18 a 2 2 360 1 0 0 -0.001 m 0 6.18 a 2 2 360 1 0 0 -0.001 m 0 6.18 a 2 2 360 1 0 0 -0.001 m 0 6.18 a 2 2 360 1 0 0 -0.001 m 0 6.18 a 2 2 360 1 0 0 -0.001 m 0 6.18 a 2 2 360 1 0 0 -0.001 m 0 6.18 a 2 2 360 1 0 0 -0.001 m 6.18 -43.26
    a 2 2 360 1 0 0 -0.001 m 0 6.18 a 2 2 360 1 0 0 -0.001 m 0 6.18 a 2 2 360 1 0 0 -0.001 m 0 6.18 a 2 2 360 1 0 0 -0.001 m 0 6.18 a 2 2 360 1 0 0 -0.001 m 0 6.18 a 2 2 360 1 0 0 -0.001 m 0 6.18 a 2 2 360 1 0 0 -0.001 m 0 6.18 a 2 2 360 1 0 0 -0.001 m 6.18 -43.26
    a 2 2 360 1 0 0 -0.001 m 0 6.18 a 2 2 360 1 0 0 -0.001 m 0 6.18 a 2 2 360 1 0 0 -0.001 m 0 6.18 a 2 2 360 1 0 0 -0.001 m 0 6.18 a 2 2 360 1 0 0 -0.001 m 0 6.18 a 2 2 360 1 0 0 -0.001 m 0 6.18 a 2 2 360 1 0 0 -0.001 m 0 6.18 a 2 2 360 1 0 0 -0.001 m 6.18 -43.26
    a 2 2 360 1 0 0 -0.001 m 0 6.18 a 2 2 360 1 0 0 -0.001 m 0 6.18 a 2 2 360 1 0 0 -0.001 m 0 6.18 a 2 2 360 1 0 0 -0.001 m 0 6.18 a 2 2 360 1 0 0 -0.001 m 0 6.18 a 2 2 360 1 0 0 -0.001 m 0 6.18 a 2 2 360 1 0 0 -0.001 m 0 6.18 a 2 2 360 1 0 0 -0.001 m 6.18 -43.26
    a 2 2 360 1 0 0 -0.001 m 0 6.18 a 2 2 360 1 0 0 -0.001 m 0 6.18 a 2 2 360 1 0 0 -0.001 m 0 6.18 a 2 2 360 1 0 0 -0.001 m 0 6.18 a 2 2 360 1 0 0 -0.001 m 0 6.18 a 2 2 360 1 0 0 -0.001 m 0 6.18 a 2 2 360 1 0 0 -0.001 m 0 6.18 a 2 2 360 1 0 0 -0.001 m 6.18 -43.26
    a 2 2 360 1 0 0 -0.001 m 0 6.18 a 2 2 360 1 0 0 -0.001 m 0 6.18 a 2 2 360 1 0 0 -0.001 m 0 6.18 a 2 2 360 1 0 0 -0.001 m 0 6.18 a 2 2 360 1 0 0 -0.001 m 0 6.18 a 2 2 360 1 0 0 -0.001 m 0 6.18 a 2 2 360 1 0 0 -0.001 m 0 6.18 a 2 2 360 1 0 0 -0.001 m 6.18 -43.26
    a 2 2 360 1 0 0 -0.001 m 0 6.18 a 2 2 360 1 0 0 -0.001 m 0 6.18 a 2 2 360 1 0 0 -0.001 m 0 6.18 a 2 2 360 1 0 0 -0.001 m 0 6.18 a 2 2 360 1 0 0 -0.001 m 0 6.18 a 2 2 360 1 0 0 -0.001 m 0 6.18 a 2 2 360 1 0 0 -0.001 m 0 6.18 a 2 2 360 1 0 0 -0.001 m 6.18 -43.26
    a 2 2 360 1 0 0 -0.001 m 0 6.18 a 2 2 360 1 0 0 -0.001 m 0 6.18 a 2 2 360 1 0 0 -0.001 m 0 6.18 a 2 2 360 1 0 0 -0.001 m 0 6.18 a 2 2 360 1 0 0 -0.001 m 0 6.18 a 2 2 360 1 0 0 -0.001 m 0 6.18 a 2 2 360 1 0 0 -0.001 m 0 6.18 a 2 2 360 1 0 0 -0.001 m 6.18 -43.26
    a 2 2 360 1 0 0 -0.001 m 0 6.18 a 2 2 360 1 0 0 -0.001 m 0 6.18 a 2 2 360 1 0 0 -0.001 m 0 6.18 a 2 2 360 1 0 0 -0.001 m 0 6.18 a 2 2 360 1 0 0 -0.001 m 0 6.18 a 2 2 360 1 0 0 -0.001 m 0 6.18 a 2 2 360 1 0 0 -0.001 m 0 6.18 a 2 2 360 1 0 0 -0.001 m 6.18 -43.26
    a 2 2 360 1 0 0 -0.001 m 0 6.18 a 2 2 360 1 0 0 -0.001 m 0 6.18 a 2 2 360 1 0 0 -0.001 m 0 6.18 a 2 2 360 1 0 0 -0.001 m 0 6.18 a 2 2 360 1 0 0 -0.001 m 0 6.18 a 2 2 360 1 0 0 -0.001 m 0 6.18 a 2 2 360 1 0 0 -0.001 m 0 6.18 a 2 2 360 1 0 0 -0.001 m 6.18 -43.26
    a 2 2 360 1 0 0 -0.001 m 0 6.18 a 2 2 360 1 0 0 -0.001 m 0 6.18 a 2 2 360 1 0 0 -0.001 m 0 6.18 a 2 2 360 1 0 0 -0.001 m 0 6.18 a 2 2 360 1 0 0 -0.001 m 0 6.18 a 2 2 360 1 0 0 -0.001 m 0 6.18 a 2 2 360 1 0 0 -0.001 m 0 6.18 a 2 2 360 1 0 0 -0.001 m 6.18 -43.26
    a 2 2 360 1 0 0 -0.001 m 0 6.18 a 2 2 360 1 0 0 -0.001 m 0 6.18 a 2 2 360 1 0 0 -0.001 m 0 6.18 a 2 2 360 1 0 0 -0.001 m 0 6.18 a 2 2 360 1 0 0 -0.001 m 0 6.18 a 2 2 360 1 0 0 -0.001 m 0 6.18 a 2 2 360 1 0 0 -0.001 m 0 6.18 a 2 2 360 1 0 0 -0.001 m 6.18 -43.26
    a 2 2 360 1 0 0 -0.001 m 0 6.18 a 2 2 360 1 0 0 -0.001 m 0 6.18 a 2 2 360 1 0 0 -0.001 m 0 6.18 a 2 2 360 1 0 0 -0.001 m 0 6.18 a 2 2 360 1 0 0 -0.001 m 0 6.18 a 2 2 360 1 0 0 -0.001 m 0 6.18 a 2 2 360 1 0 0 -0.001 m 0 6.18 a 2 2 360 1 0 0 -0.001 m 6.18 -43.26
    a 2 2 360 1 0 0 -0.001 m 0 6.18 a 2 2 360 1 0 0 -0.001 m 0 6.18 a 2 2 360 1 0 0 -0.001 m 0 6.18 a 2 2 360 1 0 0 -0.001 m 0 6.18 a 2 2 360 1 0 0 -0.001 m 0 6.18 a 2 2 360 1 0 0 -0.001 m 0 6.18 a 2 2 360 1 0 0 -0.001 m 0 6.18 a 2 2 360 1 0 0 -0.001 m 6.18 -43.26
    a 2 2 360 1 0 0 -0.001 m 0 6.18 a 2 2 360 1 0 0 -0.001 m 0 6.18 a 2 2 360 1 0 0 -0.001 m 0 6.18 a 2 2 360 1 0 0 -0.001 m 0 6.18 a 2 2 360 1 0 0 -0.001 m 0 6.18 a 2 2 360 1 0 0 -0.001 m 0 6.18 a 2 2 360 1 0 0 -0.001 m 0 6.18 a 2 2 360 1 0 0 -0.001 m 6.18 -43.26
    a 2 2 360 1 0 0 -0.001 m 0 6.18 a 2 2 360 1 0 0 -0.001 m 0 6.18 a 2 2 360 1 0 0 -0.001 m 0 6.18 a 2 2 360 1 0 0 -0.001 m 0 6.18 a 2 2 360 1 0 0 -0.001 m 0 6.18 a 2 2 360 1 0 0 -0.001 m 0 6.18 a 2 2 360 1 0 0 -0.001 m 0 6.18 a 2 2 360 1 0 0 -0.001 m 6.18 -43.26
    a 2 2 360 1 0 0 -0.001 m 0 6.18 a 2 2 360 1 0 0 -0.001 m 0 6.18 a 2 2 360 1 0 0 -0.001 m 0 6.18 a 2 2 360 1 0 0 -0.001 m 0 6.18 a 2 2 360 1 0 0 -0.001 m 0 6.18 a 2 2 360 1 0 0 -0.001 m 0 6.18 a 2 2 360 1 0 0 -0.001 m 0 6.18 a 2 2 360 1 0 0 -0.001 m 6.18 -43.26
    a 2 2 360 1 0 0 -0.001 m 0 6.18 a 2 2 360 1 0 0 -0.001 m 0 6.18 a 2 2 360 1 0 0 -0.001 m 0 6.18 a 2 2 360 1 0 0 -0.001 m 0 6.18 a 2 2 360 1 0 0 -0.001 m 0 6.18 a 2 2 360 1 0 0 -0.001 m 0 6.18 a 2 2 360 1 0 0 -0.001 m 0 6.18 a 2 2 360 1 0 0 -0.001 m 6.18 -43.26
    a 2 2 360 1 0 0 -0.001 m 0 6.18 a 2 2 360 1 0 0 -0.001 m 0 6.18 a 2 2 360 1 0 0 -0.001 m 0 6.18 a 2 2 360 1 0 0 -0.001 m 0 6.18 a 2 2 360 1 0 0 -0.001 m 0 6.18 a 2 2 360 1 0 0 -0.001 m 0 6.18 a 2 2 360 1 0 0 -0.001 m 0 6.18 a 2 2 360 1 0 0 -0.001 m 6.18 -43.26
    a 2 2 360 1 0 0 -0.001 m 0 6.18 a 2 2 360 1 0 0 -0.001 m 0 6.18 a 2 2 360 1 0 0 -0.001 m 0 6.18 a 2 2 360 1 0 0 -0.001 m 0 6.18 a 2 2 360 1 0 0 -0.001 m 0 6.18 a 2 2 360 1 0 0 -0.001 m 0 6.18 a 2 2 360 1 0 0 -0.001 m 0 6.18 a 2 2 360 1 0 0 -0.001 m 6.18 -43.26
    a 2 2 360 1 0 0 -0.001 m 0 6.18 a 2 2 360 1 0 0 -0.001 m 0 6.18 a 2 2 360 1 0 0 -0.001 m 0 6.18 a 2 2 360 1 0 0 -0.001 m 0 6.18 a 2 2 360 1 0 0 -0.001 m 0 6.18 a 2 2 360 1 0 0 -0.001 m 0 6.18 a 2 2 360 1 0 0 -0.001 m 0 6.18 a 2 2 360 1 0 0 -0.001 m 6.18 -43.26
    a 2 2 360 1 0 0 -0.001 m 0 6.18 a 2 2 360 1 0 0 -0.001 m 0 6.18 a 2 2 360 1 0 0 -0.001 m 0 6.18 a 2 2 360 1 0 0 -0.001 m 0 6.18 a 2 2 360 1 0 0 -0.001 m 0 6.18 a 2 2 360 1 0 0 -0.001 m 0 6.18 a 2 2 360 1 0 0 -0.001 m 0 6.18 a 2 2 360 1 0 0 -0.001 m 6.18 -43.26
    a 2 2 360 1 0 0 -0.001 m 0 6.18 a 2 2 360 1 0 0 -0.001 m 0 6.18 a 2 2 360 1 0 0 -0.001 m 0 6.18 a 2 2 360 1 0 0 -0.001 m 0 6.18 a 2 2 360 1 0 0 -0.001 m 0 6.18 a 2 2 360 1 0 0 -0.001 m 0 6.18 a 2 2 360 1 0 0 -0.001 m 0 6.18 a 2 2 360 1 0 0 -0.001 m 6.18 -43.26
    a 2 2 360 1 0 0 -0.001 m 0 6.18 a 2 2 360 1 0 0 -0.001 m 0 6.18 a 2 2 360 1 0 0 -0.001 m 0 6.18 a 2 2 360 1 0 0 -0.001 m 0 6.18 a 2 2 360 1 0 0 -0.001 m 0 6.18 a 2 2 360 1 0 0 -0.001 m 0 6.18 a 2 2 360 1 0 0 -0.001 m 0 6.18 a 2 2 360 1 0 0 -0.001 m 6.18 -43.26
    a 2 2 360 1 0 0 -0.001 m 0 6.18 a 2 2 360 1 0 0 -0.001 m 0 6.18 a 2 2 360 1 0 0 -0.001 m 0 6.18 a 2 2 360 1 0 0 -0.001 m 0 6.18 a 2 2 360 1 0 0 -0.001 m 0 6.18 a 2 2 360 1 0 0 -0.001 m 0 6.18 a 2 2 360 1 0 0 -0.001 m 0 6.18 a 2 2 360 1 0 0 -0.001 m 6.18 -43.26
    a 2 2 360 1 0 0 -0.001 m 0 6.18 a 2 2 360 1 0 0 -0.001 m 0 6.18 a 2 2 360 1 0 0 -0.001 m 0 6.18 a 2 2 360 1 0 0 -0.001 m 0 6.18 a 2 2 360 1 0 0 -0.001 m 0 6.18 a 2 2 360 1 0 0 -0.001 m 0 6.18 a 2 2 360 1 0 0 -0.001 m 0 6.18 a 2 2 360 1 0 0 -0.001 m 6.18 -43.26
    a 2 2 360 1 0 0 -0.001 m 0 6.18 a 2 2 360 1 0 0 -0.001 m 0 6.18 a 2 2 360 1 0 0 -0.001 m 0 6.18 a 2 2 360 1 0 0 -0.001 m 0 6.18 a 2 2 360 1 0 0 -0.001 m 0 6.18 a 2 2 360 1 0 0 -0.001 m 0 6.18 a 2 2 360 1 0 0 -0.001 m 0 6.18 a 2 2 360 1 0 0 -0.001 m 6.18 -43.26
    a 2 2 360 1 0 0 -0.001 m 0 6.18 a 2 2 360 1 0 0 -0.001 m 0 6.18 a 2 2 360 1 0 0 -0.001 m 0 6.18 a 2 2 360 1 0 0 -0.001 m 0 6.18 a 2 2 360 1 0 0 -0.001 m 0 6.18 a 2 2 360 1 0 0 -0.001 m 0 6.18 a 2 2 360 1 0 0 -0.001 m 0 6.18 a 2 2 360 1 0 0 -0.001 m 6.18 -43.26
    a 2 2 360 1 0 0 -0.001 m 0 6.18 a 2 2 360 1 0 0 -0.001 m 0 6.18 a 2 2 360 1 0 0 -0.001 m 0 6.18 a 2 2 360 1 0 0 -0.001 m 0 6.18 a 2 2 360 1 0 0 -0.001 m 0 6.18 a 2 2 360 1 0 0 -0.001 m 0 6.18 a 2 2 360 1 0 0 -0.001 m 0 6.18 a 2 2 360 1 0 0 -0.001 m 6.18 -43.26
    a 2 2 360 1 0 0 -0.001 m 0 6.18 a 2 2 360 1 0 0 -0.001 m 0 6.18 a 2 2 360 1 0 0 -0.001 m 0 6.18 a 2 2 360 1 0 0 -0.001 m 0 6.18 a 2 2 360 1 0 0 -0.001 m 0 6.18 a 2 2 360 1 0 0 -0.001 m 0 6.18 a 2 2 360 1 0 0 -0.001 m 0 6.18 a 2 2 360 1 0 0 -0.001 m 6.18 -43.26
    a 2 2 360 1 0 0 -0.001 m 0 6.18 a 2 2 360 1 0 0 -0.001 m 0 6.18 a 2 2 360 1 0 0 -0.001 m 0 6.18 a 2 2 360 1 0 0 -0.001 m 0 6.18 a 2 2 360 1 0 0 -0.001 m 0 6.18 a 2 2 360 1 0 0 -0.001 m 0 6.18 a 2 2 360 1 0 0 -0.001 m 0 6.18 a 2 2 360 1 0 0 -0.001 m 6.18 -43.26
    a 2 2 360 1 0 0 -0.001 m 0 6.18 a 2 2 360 1 0 0 -0.001 m 0 6.18 a 2 2 360 1 0 0 -0.001 m 0 6.18 a 2 2 360 1 0 0 -0.001 m 0 6.18 a 2 2 360 1 0 0 -0.001 m 0 6.18 a 2 2 360 1 0 0 -0.001 m 0 6.18 a 2 2 360 1 0 0 -0.001 m 0 6.18 a 2 2 360 1 0 0 -0.001 m 6.18 -43.26
    a 2 2 360 1 0 0 -0.001 m 0 6.18 a 2 2 360 1 0 0 -0.001 m 0 6.18 a 2 2 360 1 0 0 -0.001 m 0 6.18 a 2 2 360 1 0 0 -0.001 m 0 6.18 a 2 2 360 1 0 0 -0.001 m 0 6.18 a 2 2 360 1 0 0 -0.001 m 0 6.18 a 2 2 360 1 0 0 -0.001 m 0 6.18 a 2 2 360 1 0 0 -0.001 m 6.18 -43.26
    a 2 2 360 1 0 0 -0.001 m 0 6.18 a 2 2 360 1 0 0 -0.001 m 0 6.18 a 2 2 360 1 0 0 -0.001 m 0 6.18 a 2 2 360 1 0 0 -0.001 m 0 6.18 a 2 2 360 1 0 0 -0.001 m 0 6.18 a 2 2 360 1 0 0 -0.001 m 0 6.18 a 2 2 360 1 0 0 -0.001 m 0 6.18 a 2 2 360 1 0 0 -0.001 m 6.18 -43.26
    a 2 2 360 1 0 0 -0.001 m 0 6.18 a 2 2 360 1 0 0 -0.001 m 0 6.18 a 2 2 360 1 0 0 -0.001 m 0 6.18 a 2 2 360 1 0 0 -0.001 m 0 6.18 a 2 2 360 1 0 0 -0.001 m 0 6.18 a 2 2 360 1 0 0 -0.001 m 0 6.18 a 2 2 360 1 0 0 -0.001 m 0 6.18 a 2 2 360 1 0 0 -0.001 m 6.18 -43.26
    a 2 2 360 1 0 0 -0.001 m 0 6.18 a 2 2 360 1 0 0 -0.001 m 0 6.18 a 2 2 360 1 0 0 -0.001 m 0 6.18 a 2 2 360 1 0 0 -0.001 m 0 6.18 a 2 2 360 1 0 0 -0.001 m 0 6.18 a 2 2 360 1 0 0 -0.001 m 0 6.18 a 2 2 360 1 0 0 -0.001 m 0 6.18 a 2 2 360 1 0 0 -0.001 m 6.18 -43.26
    a 2 2 360 1 0 0 -0.001 m 0 6.18 a 2 2 360 1 0 0 -0.001 m 0 6.18 a 2 2 360 1 0 0 -0.001 m 0 6.18 a 2 2 360 1 0 0 -0.001 m 0 6.18 a 2 2 360 1 0 0 -0.001 m 0 6.18 a 2 2 360 1 0 0 -0.001 m 0 6.18 a 2 2 360 1 0 0 -0.001 m 0 6.18 a 2 2 360 1 0 0 -0.001 m 6.18 -43.26
    a 2 2 360 1 0 0 -0.001 m 0 6.18 a 2 2 360 1 0 0 -0.001 m 0 6.18 a 2 2 360 1 0 0 -0.001 m 0 6.18 a 2 2 360 1 0 0 -0.001 m 0 6.18 a 2 2 360 1 0 0 -0.001 m 0 6.18 a 2 2 360 1 0 0 -0.001 m 0 6.18 a 2 2 360 1 0 0 -0.001 m 0 6.18 a 2 2 360 1 0 0 -0.001 m 6.18 -43.26
    a 2 2 360 1 0 0 -0.001 m 0 6.18 a 2 2 360 1 0 0 -0.001 m 0 6.18 a 2 2 360 1 0 0 -0.001 m 0 6.18 a 2 2 360 1 0 0 -0.001 m 0 6.18 a 2 2 360 1 0 0 -0.001 m 0 6.18 a 2 2 360 1 0 0 -0.001 m 0 6.18 a 2 2 360 1 0 0 -0.001 m 0 6.18 a 2 2 360 1 0 0 -0.001 m 6.18 -43.26
    a 2 2 360 1 0 0 -0.001 m 0 6.18 a 2 2 360 1 0 0 -0.001 m 0 6.18 a 2 2 360 1 0 0 -0.001 m 0 6.18 a 2 2 360 1 0 0 -0.001 m 0 6.18 a 2 2 360 1 0 0 -0.001 m 0 6.18 a 2 2 360 1 0 0 -0.001 m 0 6.18 a 2 2 360 1 0 0 -0.001 m 0 6.18 a 2 2 360 1 0 0 -0.001 m 6.18 -43.26
    a 2 2 360 1 0 0 -0.001 m 0 6.18 a 2 2 360 1 0 0 -0.001 m 0 6.18 a 2 2 360 1 0 0 -0.001 m 0 6.18 a 2 2 360 1 0 0 -0.001 m 0 6.18 a 2 2 360 1 0 0 -0.001 m 0 6.18 a 2 2 360 1 0 0 -0.001 m 0 6.18 a 2 2 360 1 0 0 -0.001 m 0 6.18 a 2 2 360 1 0 0 -0.001 m 6.18 -43.26
    a 2 2 360 1 0 0 -0.001 m 0 6.18 a 2 2 360 1 0 0 -0.001 m 0 6.18 a 2 2 360 1 0 0 -0.001 m 0 6.18 a 2 2 360 1 0 0 -0.001 m 0 6.18 a 2 2 360 1 0 0 -0.001 m 0 6.18 a 2 2 360 1 0 0 -0.001 m 0 6.18 a 2 2 360 1 0 0 -0.001 m 0 6.18 a 2 2 360 1 0 0 -0.001 m 6.18 -43.26
    a 2 2 360 1 0 0 -0.001 m 0 6.18 a 2 2 360 1 0 0 -0.001 m 0 6.18 a 2 2 360 1 0 0 -0.001 m 0 6.18 a 2 2 360 1 0 0 -0.001 m 0 6.18 a 2 2 360 1 0 0 -0.001 m 0 6.18 a 2 2 360 1 0 0 -0.001 m 0 6.18 a 2 2 360 1 0 0 -0.001 m 0 6.18 a 2 2 360 1 0 0 -0.001 m 6.18 -43.26
    z"></path>
  </clipPath>
</defs>
<rect width="100%" height="100%" fill="url(#grid)"></rect>
<g id="moduino" fill="none" font-size="20pt" font-family="Consolas" transform="scale(2.5)">
  <g id="EDGE" fill="url(#vent)" stroke="#345" stroke-width="6">
    <path d="m 100 100 l 0 190 l 79 0 l 0 -190 l -79 0 z"></path>
    <path d="m 192 100 l 330 0 l 0 190 l -330 0 l 0 -190 z" clip-path="url(#hole)"></path>
    <path d="m 535 100 l 0 190 l 75 0 l 10 -10 l 0 -10 l 10 -10 l 0 -130 l -10 -10 l 0 -10 l -10 -10 l -75 0 z"></path>
    <path d="m 652 78 l -50 0 l 50 50 z" fill="#FFF" stroke="#FFF" stroke-width="15" stroke-linejoin="round"></path>
    <path d="m 652 312 l -50 0 l 50 -50 z" fill="#FFF" stroke="#FFF" stroke-width="15" stroke-linejoin="round"></path>
    <path d="m 80 80 l 0 220 l 0 10 l 10 0 l 525 0 l 25 -25 l 0 -10 l 10 -10 l 0 -140 l -10 -10 l 0 -10 l -25 -25 l -500 0 z" fill="none" stroke="#067" stroke-width="20" stroke-linejoin="round"></path>
  </g>
  <g id="TABS" fill="#FFF" stroke="#FFF" stroke-width="6">
    <rect x="93.00" y="110" width="1" height="15"></rect>
    <rect x="93.00" y="265" width="1" height="15"></rect>
    <rect x="185.0" y="110" width="1" height="15"></rect>
    <rect x="185.0" y="265" width="1" height="15"></rect>
    <rect x="349.5" y="93" width="15" height="1"></rect>
    <rect x="349.5" y="296" width="15" height="1"></rect>
    <rect x="528.0" y="110" width="1" height="15"></rect>
    <rect x="528.0" y="265" width="1" height="15"></rect>
  </g>
  <g id="SPACER" fill="#FFF" stroke="#FFF">
    <rect x="170" y="114" width="1" height="163"></rect>
    <rect x="590" y="134" width="1" height="123"></rect>
  </g>
  <g id="WIRE" fill="none" stroke="#477" stroke-width="1" stroke-linejoin="round" stroke-linecap="round">
    <path d="m 312 210 l 0 15 m 0 10 l 0 10 L 267 258 l 0 2"></path>
    <path d="m 322 210 l 0 15 m 0 10 l 0 10 L 287 258 l 0 2"></path>
    <path d="m 332 210 l 0 15 m 0 10 l 0 10 L 307 258 l 0 2"></path>
    <path d="m 342 210 l 0 15 m 0 10 l 0 10 L 327 258 l 0 2"></path>
    <path d="m 352 210 l 0 15 m 0 10 l 0 10 L 347 258 l 0 2"></path>
    <path d="m 362 210 l 0 15 m 0 10 l 0 10 L 367 258 l 0 2"></path>
    <path d="m 372 210 l 0 15 m 0 10 l 0 10 L 387 258 l 0 2"></path>
    <path d="m 382 210 l 0 15 m 0 10 l 0 10 L 407 258 l 0 2"></path>
    <path d="m 392 210 l 0 15 m 0 10 l 0 10 L 427 258 l 0 2"></path>
    <path d="m 402 210 l 0 15 m 0 10 l 0 10 L 447 258 l 0 2"></path>
    <path d="m 270 193.5 l 20 0"></path><path d="m 270 196.5 l 20 0"></path>
    <path d="m 425 193.5 l 20 0"></path><path d="m 425 196.5 l 20 0"></path>
    <path d="m 555.5 135 l -10 0 l 0 30 l 10 0"></path>
    <path d="m 555.5 180 l -10 0 l 0 30 l 10 0"></path>
    <path d="m 585 135 l 10 0 m -10 15 l 10 0 m -10 15 l 10 0"></path>
    <path d="m 585 180 l 10 0 m -10 15 l 10 0 m -10 15 l 10 0"></path>
    <path d="m 585 225 l 10 0 m -10 15 l 10 0 m -10 15 l 10 0"></path>
  </g>
  <g id="REG" fill="#111" stroke="#FFF">
    <path d="m 110 230 l 40 0 l 0 30 l -40 0 l 0 -30.5 m 5 15.5 a 5 5 360 1 0 0 -0.001 z"></path>
    <path d="m 110 230 l 3 3 l 18 0 l 0 -3 m 0 30 l 0 -3 l -18 0 l -3 3 m 3 -3 l 0 -24 m 18 0 l 0 24"></path>
    <path d="m 150 235.5 l 10 0 l 1 1 l 5 0 l 0 1 l -5 0 l -1 1 l -10 0" fill="#999"></path>
    <path d="m 150 243.5 l 10 0 l 1 1 l 5 0 l 0 1 l -5 0 l -1 1 l -10 0" fill="#999"></path>
    <path d="m 150 251.5 l 10 0 l 1 1 l 5 0 l 0 1 l -5 0 l -1 1 l -10 0" fill="#999"></path>
  </g>
  <g id="PORT" fill="#777" stroke="#FFF">
    <rect x="92" y="130" width="70" height="50"></rect>
    <path d="m 595 130 l 40 0 l 0 40 l -40 0 l 0 -40 z m 40 10 l 10 0 l 0 20 l -10 0 z" fill="#AFC"></path>
    <path d="m 595 175 l 40 0 l 0 40 l -40 0 l 0 -40 z m 40 10 l 10 0 l 0 20 l -10 0 z" fill="#ACF"></path>
    <path d="m 595 220 l 40 0 l 0 40 l -40 0 l 0 -40 z m 40 10 l 10 0 l 0 20 l -10 0 z" fill="#FAA"></path>
  </g>
  <g id="LED" fill="#F055" stroke="#FFF">
    <rect x="110" y="187" width="7" height="4"></rect>
    <rect x="121" y="187" width="7" height="4"></rect>
    <rect x="132" y="187" width="7" height="4"></rect>
    <rect x="143" y="187" width="7" height="4"></rect>
    <rect x="154" y="187" width="7" height="4"></rect>
    <rect x="110" y="195" width="7" height="4"></rect>
    <rect x="121" y="195" width="7" height="4"></rect>
    <rect x="132" y="195" width="7" height="4"></rect>
    <rect x="143" y="195" width="7" height="4"></rect>
    <rect x="154" y="195" width="7" height="4"></rect>
    <rect x="110" y="203" width="7" height="4"></rect>
    <rect x="121" y="203" width="7" height="4"></rect>
    <rect x="132" y="203" width="7" height="4"></rect>
    <rect x="143" y="203" width="7" height="4"></rect>
    <rect x="154" y="203" width="7" height="4"></rect>
    <rect x="110" y="211" width="7" height="4"></rect>
    <rect x="121" y="211" width="7" height="4"></rect>
    <rect x="132" y="211" width="7" height="4"></rect>
    <rect x="143" y="211" width="7" height="4"></rect>
    <rect x="154" y="211" width="7" height="4"></rect>
    <rect x="110" y="219" width="7" height="4"></rect>
    <rect x="121" y="219" width="7" height="4"></rect>
    <rect x="132" y="219" width="7" height="4"></rect>
    <rect x="143" y="219" width="7" height="4"></rect>
    <rect x="154" y="219" width="7" height="4"></rect>
  </g>
  <g id="HEADER" fill="url(#hole)" stroke="#FFF">
    <rect x="110" y="115" width="50" height="6"></rect>
    <rect x="110" y="270" width="50" height="6"></rect>
    <rect x="570" y="270" width="50" height="6"></rect>
    <rect x="570" y="115" width="50" height="6"></rect>
    <path d="m 257 260 l 200 0 l 0 30 l -200 0 z" fill="#000"></path>
  </g>
  <g id="PAD" fill="#FED" stroke="#FFF">
    <rect x="309" y="217" width="6" height="8"></rect><rect x="309" y="229" width="6" height="8"></rect>
    <rect x="319" y="217" width="6" height="8"></rect><rect x="319" y="229" width="6" height="8"></rect>
    <rect x="329" y="217" width="6" height="8"></rect><rect x="329" y="229" width="6" height="8"></rect>
    <rect x="339" y="217" width="6" height="8"></rect><rect x="339" y="229" width="6" height="8"></rect>
    <rect x="349" y="217" width="6" height="8"></rect><rect x="349" y="229" width="6" height="8"></rect>
    <rect x="359" y="217" width="6" height="8"></rect><rect x="359" y="229" width="6" height="8"></rect>
    <rect x="369" y="217" width="6" height="8"></rect><rect x="369" y="229" width="6" height="8"></rect>
    <rect x="379" y="217" width="6" height="8"></rect><rect x="379" y="229" width="6" height="8"></rect>
    <rect x="389" y="217" width="6" height="8"></rect><rect x="389" y="229" width="6" height="8"></rect>
    <rect x="399" y="217" width="6" height="8"></rect><rect x="399" y="229" width="6" height="8"></rect>
  </g>
  <g id="SOCKET" fill="#212A" stroke="#FFF" stroke-width="4" stroke-linejoin="round">
    <rect x="287" y="180" width="140" height="30"></rect>
    <rect x="555" y="125" width="30" height="140"></rect>
  </g>
  <g id="CAP" fill="#0AF" stroke="#0AF">
    <rect x="542.5" y="140" width="6" height="20"></rect>
    <rect x="542.5" y="185" width="6" height="20"></rect>
  </g>
  <g id="MISC" stroke="#FFF">
    <circle cx="248" cy="195" r="20" fill="#555"></circle>
    <circle cx="248" cy="195" r="15" fill="#EEF"></circle>
    <rect x="260" y="190" width="10" height="10" fill="#333"></rect>
    <circle cx="466" cy="195" r="20" fill="#555"></circle>
    <circle cx="466" cy="195" r="15" fill="#EEF"></circle>
    <rect x="444" y="190" width="10" height="10" fill="#333"></rect>
  </g>
</g>
</svg>