<!-- moduino mega audio kit -->
<svg xmlns="http://www.w3.org/2000/svg" style="background: #111; width: 100%; height: 100%;">
<defs>
  <pattern id="grid" width="10" height="10" patternUnits="userSpaceOnUse">
    <rect width="10" height="10" fill="#111"></rect>
    <rect width="1" height="1" fill="#FFF"></rect>
  </pattern>
  <pattern id="vent" width="50" height="50" patternUnits="userSpaceOnUse">
    <rect width="50" height="50" fill="#0F1F2F"></rect>
    <path d="m 0 0 l 0 25 l 25 -25 z m 50 0 l 0 25 l -25 25 l -25 0 z" fill="#1F2F3F"></path>
  </pattern>
  <pattern id="hole" width="8" height="6" patternUnits="userSpaceOnUse">
    <rect width="8" height="6" fill="#000"></rect>
    <rect width="3" height="3" fill="#333" x="2.5" y="1.5"></rect>
  </pattern>
</defs>
<rect width="100%" height="100%" fill="url(#grid)"></rect>
<g id="moduino" fill="none" font-size="20pt" font-family="Consolas">
  <g id="EDGE" fill="url(#vent)" stroke="#345" stroke-width="6">
    <path d="m 100 280 l 0 190 l 415 0 l 0 -190 l -415 0 z"></path>
    <path d="m 525 280 l 0 190 l 85 0 l 10 -10 l -30 0 l 0 -13.5 l 30 0 l 10 -10 l 0 -122.5 l -10 -10 l -30 0 l 0 -13.5 l 30 0 l -10 -10 l -88 0"></path>
    <path d="m 652 258 l -50 0 l 50 50 z" fill="#FFF" stroke="#FFF" stroke-width="15" stroke-linejoin="round"></path>
    <path d="m 652 492 l -50 0 l 50 -50 z" fill="#FFF" stroke="#FFF" stroke-width="15" stroke-linejoin="round"></path>
    <path d="m 80 260 l 0 220 l 0 10 l 10 0 l 525 0 l 25 -25 l 0 -10 l 10 -10 l 0 -140 l -10 -10 l 0 -10 l -25 -25 l -500 0 z" fill="none" stroke="#067" stroke-width="20" stroke-linejoin="round"></path>
  </g>
  <g id="TABS" fill="#FFF" stroke="#FFF">
    <rect x="93.00" y="290" width="1" height="15" stroke-width="6"></rect>
    <rect x="519.5" y="290" width="1" height="15" stroke-width="4"></rect>
    <rect x="332.5" y="273" width="15" height="1" stroke-width="6"></rect>
    <rect x="332.5" y="476" width="15" height="1" stroke-width="6"></rect>
    <rect x="519.5" y="445" width="1" height="15" stroke-width="4"></rect>
    <rect x="93.00" y="445" width="1" height="15" stroke-width="6"></rect>
  </g>
  <g id="WIRE" fill="none" stroke="#477" stroke-width="1" stroke-linejoin="round" stroke-linecap="round">
    <path d="m 275 360 l 0 -10 m 0 -10 l 0 -10 L 200 320 l 0 -10"></path>
    <path d="m 285 360 l 0 -10 m 0 -10 l 0 -10 L 210 320 l 0 -10"></path>
    <path d="m 295 360 l 0 -10 m 0 -10 l 0 -10 L 245 320 l 0 -10"></path>
    <path d="m 305 360 l 0 -10 m 0 -10 l 0 -10 L 255 320 l 0 -10"></path>
    <path d="m 315 360 l 0 -10 m 0 -10 l 0 -10 L 290 320 l 0 -10"></path>
    <path d="m 325 360 l 0 -10 m 0 -10 l 0 -10 L 300 320 l 0 -10"></path>
    <path d="m 335 360 l 0 -10 m 0 -10 l 0 -10 L 335 320 l 0 -10"></path>
    <path d="m 345 360 l 0 -10 m 0 -10 l 0 -10 L 345 320 l 0 -10"></path>
    <path d="m 355 360 l 0 -10 m 0 -10 l 0 -10 L 380 320 l 0 -10"></path>
    <path d="m 365 360 l 0 -10 m 0 -10 l 0 -10 L 390 320 l 0 -10"></path>
    <path d="m 375 360 l 0 -10 m 0 -10 l 0 -10 L 425 320 l 0 -10"></path>
    <path d="m 385 360 l 0 -10 m 0 -10 l 0 -10 L 435 320 l 0 -10"></path>
    <path d="m 395 360 l 0 -10 m 0 -10 l 0 -10 L 470 320 l 0 -10"></path>
    <path d="m 405 360 l 0 -10 m 0 -10 l 0 -10 L 480 320 l 0 -10"></path>
    <path d="m 275 390 l 0  10 m 0  10 l 0  10 L 200 430 l 0  10"></path>
    <path d="m 285 390 l 0  10 m 0  10 l 0  10 L 210 430 l 0  10"></path>
    <path d="m 295 390 l 0  10 m 0  10 l 0  10 L 245 430 l 0  10"></path>
    <path d="m 305 390 l 0  10 m 0  10 l 0  10 L 255 430 l 0  10"></path>
    <path d="m 315 390 l 0  10 m 0  10 l 0  10 L 290 430 l 0  10"></path>
    <path d="m 325 390 l 0  10 m 0  10 l 0  10 L 300 430 l 0  10"></path>
    <path d="m 335 390 l 0  10 m 0  10 l 0  10 L 335 430 l 0  10"></path>
    <path d="m 345 390 l 0  10 m 0  10 l 0  10 L 345 430 l 0  10"></path>
    <path d="m 355 390 l 0  10 m 0  10 l 0  10 L 380 430 l 0  10"></path>
    <path d="m 365 390 l 0  10 m 0  10 l 0  10 L 390 430 l 0  10"></path>
    <path d="m 375 390 l 0  10 m 0  10 l 0  10 L 425 430 l 0  10"></path>
    <path d="m 385 390 l 0  10 m 0  10 l 0  10 L 435 430 l 0  10"></path>
    <path d="m 395 390 l 0  10 m 0  10 l 0  10 L 470 430 l 0  10"></path>
    <path d="m 405 390 l 0  10 m 0  10 l 0  10 L 480 430 l 0  10"></path>
  </g>
  <g id="WIRE_EXT" fill="none" stroke="#477" stroke-width="1" stroke-linejoin="round" stroke-linecap="round">
    <path d="m 160 373.5 l 110 0"></path>
    <path d="m 160 376.5 l 110 0"></path>
    <path d="m 600 315 l 10 0 l 0 30 l -10 0"></path>
    <path d="m 600 360 l 10 0 l 0 30 l -10 0"></path>
    <path d="m 570 315 l -10 0 l 0 30 l 10 0 m -10 0 m 0 -15 l 10 0"></path>
    <path d="m 570 360 l -10 0 l 0 30 l 10 0 m -10 0 m 0 -15 l 10 0"></path>
    <path d="m 570 405 l -10 0 l 0 30 l 10 0 m -10 0 m 0 -15 l 10 0"></path>
    <path d="m 270 370.5 l -10 0 l -24 -24 l -10 0"></path><path d="m 270 367.5 l -10 0 l -24 -24 l -10 0"></path>
    <path d="m 270 379.5 l -10 0 l -24  24 l -10 0"></path><path d="m 270 382.5 l -10 0 l -24  24 l -10 0"></path>
    <path d="m 410 370.5 l  10 0 l  24 -24 l  10 0"></path><path d="m 410 367.5 l  10 0 l  24 -24 l  10 0"></path>
    <path d="m 410 379.5 l  10 0 l  24  24 l  10 0"></path><path d="m 410 382.5 l  10 0 l  24  24 l  10 0"></path>
  </g>
  <g id="REG" fill="#111" stroke="#FFF">
    <path d="m 110 410 l 40 0 l 0 30 l -40 0 l 0 -30.5 m 5 15.5 a 5 5 360 1 0 0 -0.001 z"></path>
    <path d="m 110 410 l 3 3 l 18 0 l 0 -3 m 0 30 l 0 -3 l -18 0 l -3 3 m 3 -3 l 0 -24 m 18 0 l 0 24"></path>
    <path d="m 150 415.5 l 10 0 l 1 1 l 5 0 l 0 1 l -5 0 l -1 1 l -10 0" fill="#999"></path>
    <path d="m 150 423.5 l 10 0 l 1 1 l 5 0 l 0 1 l -5 0 l -1 1 l -10 0" fill="#999"></path>
    <path d="m 150 431.5 l 10 0 l 1 1 l 5 0 l 0 1 l -5 0 l -1 1 l -10 0" fill="#999"></path>
  </g>
  <g id="PORT" fill="#777" stroke="#FFF">
    <rect x="92" y="350" width="70" height="50"></rect>
    <path d="m 520 310 l 40 0 l 0 40 l -40 0 l 0 -40 z m 0 10 l 0 20 l -10 0 l 0 -20 z" fill="#AFC"></path>
    <path d="m 520 355 l 40 0 l 0 40 l -40 0 l 0 -40 z m 0 10 l 0 20 l -10 0 l 0 -20 z" fill="#ACF"></path>
    <path d="m 520 400 l 40 0 l 0 40 l -40 0 l 0 -40 z m 0 10 l 0 20 l -10 0 l 0 -20 z" fill="#FAA"></path>
    <path d="m 185 275 l 40 0 l 0 40 l -40 0 l 0 -40 z m 10 0 l 0 -10 l 20 0 l 0  10 z" fill="#333"></path>
    <path d="m 230 275 l 40 0 l 0 40 l -40 0 l 0 -40 z m 10 0 l 0 -10 l 20 0 l 0  10 z" fill="#333"></path>
    <path d="m 275 275 l 40 0 l 0 40 l -40 0 l 0 -40 z m 10 0 l 0 -10 l 20 0 l 0  10 z" fill="#333"></path>
    <path d="m 320 275 l 40 0 l 0 40 l -40 0 l 0 -40 z m 10 0 l 0 -10 l 20 0 l 0  10 z" fill="#333"></path>
    <path d="m 365 275 l 40 0 l 0 40 l -40 0 l 0 -40 z m 10 0 l 0 -10 l 20 0 l 0  10 z" fill="#333"></path>
    <path d="m 410 275 l 40 0 l 0 40 l -40 0 l 0 -40 z m 10 0 l 0 -10 l 20 0 l 0  10 z" fill="#333"></path>
    <path d="m 455 275 l 40 0 l 0 40 l -40 0 l 0 -40 z m 10 0 l 0 -10 l 20 0 l 0  10 z" fill="#333"></path>
    <path d="m 185 435 l 40 0 l 0 40 l -40 0 l 0 -40 z m 10 40 l 0 10 l 20 0 l 0 -10 z" fill="#333"></path>
    <path d="m 230 435 l 40 0 l 0 40 l -40 0 l 0 -40 z m 10 40 l 0 10 l 20 0 l 0 -10 z" fill="#333"></path>
    <path d="m 275 435 l 40 0 l 0 40 l -40 0 l 0 -40 z m 10 40 l 0 10 l 20 0 l 0 -10 z" fill="#333"></path>
    <path d="m 320 435 l 40 0 l 0 40 l -40 0 l 0 -40 z m 10 40 l 0 10 l 20 0 l 0 -10 z" fill="#333"></path>
    <path d="m 365 435 l 40 0 l 0 40 l -40 0 l 0 -40 z m 10 40 l 0 10 l 20 0 l 0 -10 z" fill="#333"></path>
    <path d="m 410 435 l 40 0 l 0 40 l -40 0 l 0 -40 z m 10 40 l 0 10 l 20 0 l 0 -10 z" fill="#333"></path>
    <path d="m 455 435 l 40 0 l 0 40 l -40 0 l 0 -40 z m 10 40 l 0 10 l 20 0 l 0 -10 z" fill="#333"></path>
  </g>
  <g id="LED" fill="#F055" stroke="#FFF">
    <circle cx="120" cy="310" r="4"></circle><circle cx="120" cy="320" r="4"></circle>
    <circle cx="130" cy="310" r="4"></circle><circle cx="130" cy="320" r="4"></circle>
    <circle cx="140" cy="310" r="4"></circle><circle cx="140" cy="320" r="4"></circle>
    <circle cx="150" cy="310" r="4"></circle><circle cx="150" cy="320" r="4"></circle>
    <circle cx="120" cy="330" r="4"></circle><circle cx="120" cy="340" r="4"></circle>
    <circle cx="130" cy="330" r="4"></circle><circle cx="130" cy="340" r="4"></circle>
    <circle cx="140" cy="330" r="4"></circle><circle cx="140" cy="340" r="4"></circle>
    <circle cx="150" cy="330" r="4"></circle><circle cx="150" cy="340" r="4"></circle>
  </g>
  <g id="SPACER" fill="#FFF" stroke="#FFF">
    <rect x="170" y="294" width="1" height="163"></rect>
    <rect x="620" y="314" width="1" height="123"></rect>
  </g>
  <g id="HEADER" fill="url(#hole)" stroke="#FFF">
    <rect x="110" y="294" width="50" height="6"></rect>
    <rect x="110" y="450" width="50" height="6"></rect>
    <rect x="535" y="294" width="50" height="6"></rect>
    <rect x="535" y="450" width="50" height="6"></rect> 
  </g>
  <g id="SOCKET" fill="#212A" stroke="#FFF" stroke-width="4" stroke-linejoin="round">
    <rect x="270" y="360" width="140" height="30"></rect>
    <rect x="570" y="305" width="30" height="140"></rect>
  </g>
  <g id="PAD" fill="#FED" stroke="#FFF">
    <rect x="272" y="333" width="6" height="8"></rect><rect x="272" y="345" width="6" height="8"></rect><rect x="272" y="397" width="6" height="8"></rect><rect x="272" y="409" width="6" height="8"></rect>
    <rect x="282" y="333" width="6" height="8"></rect><rect x="282" y="345" width="6" height="8"></rect><rect x="282" y="397" width="6" height="8"></rect><rect x="282" y="409" width="6" height="8"></rect>
    <rect x="292" y="333" width="6" height="8"></rect><rect x="292" y="345" width="6" height="8"></rect><rect x="292" y="397" width="6" height="8"></rect><rect x="292" y="409" width="6" height="8"></rect>
    <rect x="302" y="333" width="6" height="8"></rect><rect x="302" y="345" width="6" height="8"></rect><rect x="302" y="397" width="6" height="8"></rect><rect x="302" y="409" width="6" height="8"></rect>
    <rect x="312" y="333" width="6" height="8"></rect><rect x="312" y="345" width="6" height="8"></rect><rect x="312" y="397" width="6" height="8"></rect><rect x="312" y="409" width="6" height="8"></rect>
    <rect x="322" y="333" width="6" height="8"></rect><rect x="322" y="345" width="6" height="8"></rect><rect x="322" y="397" width="6" height="8"></rect><rect x="322" y="409" width="6" height="8"></rect>
    <rect x="332" y="333" width="6" height="8"></rect><rect x="332" y="345" width="6" height="8"></rect><rect x="332" y="397" width="6" height="8"></rect><rect x="332" y="409" width="6" height="8"></rect>
    <rect x="342" y="333" width="6" height="8"></rect><rect x="342" y="345" width="6" height="8"></rect><rect x="342" y="397" width="6" height="8"></rect><rect x="342" y="409" width="6" height="8"></rect>
    <rect x="352" y="333" width="6" height="8"></rect><rect x="352" y="345" width="6" height="8"></rect><rect x="352" y="397" width="6" height="8"></rect><rect x="352" y="409" width="6" height="8"></rect>
    <rect x="362" y="333" width="6" height="8"></rect><rect x="362" y="345" width="6" height="8"></rect><rect x="362" y="397" width="6" height="8"></rect><rect x="362" y="409" width="6" height="8"></rect>
    <rect x="372" y="333" width="6" height="8"></rect><rect x="372" y="345" width="6" height="8"></rect><rect x="372" y="397" width="6" height="8"></rect><rect x="372" y="409" width="6" height="8"></rect>
    <rect x="382" y="333" width="6" height="8"></rect><rect x="382" y="345" width="6" height="8"></rect><rect x="382" y="397" width="6" height="8"></rect><rect x="382" y="409" width="6" height="8"></rect>
    <rect x="392" y="333" width="6" height="8"></rect><rect x="392" y="345" width="6" height="8"></rect><rect x="392" y="397" width="6" height="8"></rect><rect x="392" y="409" width="6" height="8"></rect>
    <rect x="402" y="333" width="6" height="8"></rect><rect x="402" y="345" width="6" height="8"></rect><rect x="402" y="397" width="6" height="8"></rect><rect x="402" y="409" width="6" height="8"></rect>
  </g>
  <g id="CAP" fill="#0AF" stroke="#0AF">
    <rect x="607" y="320" width="6" height="20"></rect>
    <rect x="607" y="365" width="6" height="20"></rect>
  </g>
  <g id="MISC" stroke="#FFF">
    <circle cx="205" cy="345" r="20" fill="#555"></circle>
    <circle cx="205" cy="345" r="15" fill="#EEF"></circle>
    <rect x="217" y="340" width="10" height="10" fill="#333"></rect>
    <circle cx="205" cy="405" r="20" fill="#555"></circle>
    <circle cx="205" cy="405" r="15" fill="#EEF"></circle>
    <rect x="217" y="400" width="10" height="10" fill="#333"></rect>
    <circle cx="475" cy="345" r="20" fill="#555"></circle>
    <circle cx="475" cy="345" r="15" fill="#EEF"></circle>
    <rect x="453" y="340" width="10" height="10" fill="#333"></rect>
    <circle cx="475" cy="405" r="20" fill="#555"></circle>
    <circle cx="475" cy="405" r="15" fill="#EEF"></circle>
    <rect x="453" y="400" width="10" height="10" fill="#333"></rect>
  </g>
</g>
</svg>