<!-- moduino mega audio mixer mod eq -->
<svg xmlns="http://www.w3.org/2000/svg" style="background: #111; width: 100%; height: 100%;">
<defs>
  <pattern id="grid" width="10" height="10" patternUnits="userSpaceOnUse">
    <rect width="10" height="10" fill="#111"></rect>
    <rect width="1" height="1" fill="#FFF"></rect>
  </pattern>
  <pattern id="vent" width="50" height="50" patternUnits="userSpaceOnUse">
    <rect width="50" height="50" fill="#000"></rect>
    <path d="m 0 0 l 0 25 l 25 -25 z m 50 0 l 0 25 l -25 25 l -25 0 z" fill="#111"></path>
  </pattern>
  <pattern id="hdr1" width="8" height="6" patternUnits="userSpaceOnUse">
    <rect width="8" height="6" fill="#000"></rect>
    <rect width="3" height="3" fill="#333" x="1.5" y="2.5"></rect>
  </pattern>
  <pattern id="hdr2" width="8" height="6" patternUnits="userSpaceOnUse">
    <rect width="8" height="6" fill="#000"></rect>
    <rect width="3" height="3" fill="#333" x="1.5" y="1.5"></rect>
  </pattern>
  <pattern id="hdr3" width="8" height="6" patternUnits="userSpaceOnUse">
    <rect width="8" height="6" fill="#000"></rect>
    <rect width="3" height="3" fill="#333" x="5.5" y="2.5"></rect>
  </pattern>
  <pattern id="hdr4" width="8" height="6" patternUnits="userSpaceOnUse">
    <rect width="8" height="6" fill="#000"></rect>
    <rect width="3" height="3" fill="#333" x="5.5" y="1.5"></rect>
  </pattern>
  <pattern id="hdr5" width="8" height="6" patternUnits="userSpaceOnUse">
    <rect width="8" height="6" fill="#000"></rect>
    <rect width="3" height="3" fill="#333" x="2.5" y="2.5"></rect>
  </pattern>
  <pattern id="hdr6" width="8" height="6" patternUnits="userSpaceOnUse">
    <rect width="8" height="6" fill="#000"></rect>
    <rect width="3" height="3" fill="#333" x="2.5" y="1.5"></rect>
  </pattern>
  <pattern id="hdr7" width="8" height="6" patternUnits="userSpaceOnUse">
    <rect width="8" height="6" fill="#000"></rect>
    <rect width="3" height="3" fill="#333" x="2.5" y="2.5"></rect>
  </pattern>
  <pattern id="hdr8" width="8" height="6" patternUnits="userSpaceOnUse">
    <rect width="8" height="6" fill="#000"></rect>
    <rect width="3" height="3" fill="#333" x="2.5" y="1.5"></rect>
  </pattern>
  <pattern id="hdr9" width="8" height="6" patternUnits="userSpaceOnUse">
    <rect width="8" height="6" fill="#000"></rect>
    <rect width="3" height="3" fill="#333" x="1.9" y="2.0"></rect>
  </pattern>
  <filter id="blur">
    <feGaussianBlur stdDeviation="0.5"></feGaussianBlur>
  </filter>
</defs>
<rect width="100%" height="100%" fill="url(#grid)"></rect>
<g id="moduino" fill="none" font-size="20pt" font-family="Consolas" transform="scale(2.5)">
  <g id="EDGE" fill="url(#vent)" stroke="#333" stroke-width="6">
    <path d="m 100 100 l 0 190 l 510 0 l 10 -10 l 0 -10 l 10 -10 l 0 -130 l -10 -10 l 0 -10 l -10 -10 l -510 0 z"></path>
    <path d="m 652 78 l -50 0 l 50 50 z" fill="#FFF" stroke="#FFF" stroke-width="15" stroke-linejoin="round"></path>
    <path d="m 652 312 l -50 0 l 50 -50 z" fill="#FFF" stroke="#FFF" stroke-width="15" stroke-linejoin="round"></path>
    <path d="m 80 80 l 0 220 l 0 10 l 10 0 l 525 0 l 25 -25 l 0 -10 l 10 -10 l 0 -140 l -10 -10 l 0 -10 l -25 -25 l -500 0 z" fill="none" stroke="#477" stroke-width="20" stroke-linejoin="round"></path>
  </g>
  <g id="TABS" fill="#FFF" stroke="#FFF" stroke-width="6">
    <rect x="93.00" y="110" width="1" height="15"></rect>
    <rect x="93.00" y="265" width="1" height="15"></rect>
    <rect x="355.3" y="93" width="15" height="1"></rect>
    <rect x="355.3" y="296" width="15" height="1"></rect>
  </g>
  <g id="SPACER" fill="#FFF" stroke="#FFF">
    <rect x="160" y="117.5" width="411" height="1" stroke="#FF0"></rect>
    <rect x="160" y="272.5" width="411" height="1" stroke="#FF0"></rect>
    <rect x="170" y="114" width="1" height="163"></rect>
    <rect x="570" y="134" width="1" height="123"></rect>
    <rect x="111" y="108" width="373" height="1"></rect><rect x="520.5" y="108" width="88" height="1"></rect>
    <rect x="111" y="282" width="373" height="1"></rect><rect x="520.5" y="282" width="88" height="1"></rect>
  </g>
  <g id="WIRE" fill="none" stroke="#477" stroke-width="1" stroke-linejoin="round" stroke-linecap="round">
    <path d="m 535.5 145 l -10 0 l 0 30 l 10 0"></path>
    <path d="m 535.5 215 l -10 0 l 0 30 l 10 0"></path>
    <path d="m 565 137.5 l 10 0 m -10 15 l 10 0 m -10 15 l 10 0 m -10 15 l 10 0"></path>
    <path d="m 565 207.5 l 10 0 m -10 15 l 10 0 m -10 15 l 10 0 m -10 15 l 10 0"></path>
    <!--<path d="m 235 172.5 l 24.5 0 l 0 -27 l 56 0 l 0 27 l -56 0 m 50 0 l 0 -27 m 0 27 l 6 0 l 20 0 l 0 -27 l 56 0 l 0 27 l -56 0 m 50 0 l 0 -27 m 0 27 l 6 0 l 20 0 l 0 -27 l 56 0 l 0 27 l -56 0 m 50 0 l 0 -27 m 0 27 l 6 0 l 10 0 l 0 -50 l -225 0 l 0 45 l -15 0"></path>-->
    <path d="m 235 172.5 l 24.5 0 l 0 -50 m 0 50 l 6 0 l 0 -27 l 50 0 l 0 27 l -56 0 m 56 0 l 20 0 l 0 -50 m 0 50 l 6 0 l 0 -27 l 50 0 l 0 27 l -50 0 m 50 0 l 20 0 l 0 -50 m 0 50 l 6 0 l 0 -27 l 50 0 l 0 27 l -56 0 m 50 0 l 20 0 l 0 -50 l -235 0 l 0 45 l -15 0"></path>
    <path d="m 235 177.5 l 260 0 s 0 0 0 0 l 0 -11"></path>
    <path d="m 235 182.5 l 260 0 s 5 0 5 -5 l 0 -11"></path>
    <path d="m 235 187.5 l 260 0 s 10 0 10 -10 l 0 -11"></path>
    <path d="m 235 192.5 l 260 0 s 15 0 15 -15 l 0 -11"></path>
    <path d="m 235 197.5 l 260 0 s 15 0 15 15 l 0 11"></path>
    <path d="m 235 202.5 l 260 0 s 10 0 10 10 l 0 11"></path>
    <path d="m 235 207.5 l 260 0 s 5 0 5 5 l 0 11"></path>
    <path d="m 235 212.5 l 260 0 s 0 0 0 0 l 0 11"></path>
    <!--<path d="m 235 217.5 l 24.5 0 l 0 27 l 56 0 l 0 -27 l -56 0 m 50 0 l 0 27 m 0 -27 l 6 0 l 20 0 l 0 27 l 56 0 l 0 -27 l -56 0 m 50 0 l 0 27 m 0 -27 l 6 0 l 20 0 l 0 27 l 56 0 l 0 -27 l -56 0 m 50 0 l 0 27 m 0 -27 l 6 0 l 10 0 l 0 50 l -225 0 l 0 -45 l -15 0"></path>-->
    <path d="m 235 217.5 l 24.5 0 l 0 50 m 0 -50 l 6 0 l 0 27 l 50 0 l 0 -27 l -56 0 m 56 0 l 20 0 l 0 50 m 0 -50 l 6 0 l 0 27 l 50 0 l 0 -27 l -50 0 m 50 0 l 20 0 l 0 50 m 0 -50 l 6 0 l 0 27 l 50 0 l 0 -27 l -56 0 m 50 0 l 20 0 l 0 50 l -235 0 l 0 -45 l -15 0"></path>
  </g>
  <g id="REG" fill="#17F" stroke="#999">
    <path d="m 110 230 l 40 0 l 0 30 l -40 0 l 0 -30.5 m 5 15.5 a 5 5 360 1 0 0 -0.001 z"></path>
    <path d="m 110 230 l 3 3 l 18 0 l 0 -3 m 0 30 l 0 -3 l -18 0 l -3 3 m 3 -3 l 0 -24 m 18 0 l 0 24"></path>
    <path d="m 150 235.5 l 10 0 l 1 1 l 5 0 l 0 1 l -5 0 l -1 1 l -10 0" fill="#999"></path>
    <path d="m 150 243.5 l 10 0 l 1 1 l 5 0 l 0 1 l -5 0 l -1 1 l -10 0" fill="#999"></path>
    <path d="m 150 251.5 l 10 0 l 1 1 l 5 0 l 0 1 l -5 0 l -1 1 l -10 0" fill="#999"></path>
    <circle id="REGLED" cx="120" cy="245" r="5" fill="#F05C"></circle>
    <use href="#REGLED" filter="url(#blur)" fill="#FFF"></use>
  </g>
  <g id="PORT" fill="#333" stroke="#FFF">
    <rect x="92" y="130" width="70" height="50" fill="#777"></rect>
    <path d="m 487.5  95 l 30 0 l 0 80 l -30 0 l 0 -40 z m 2.5 0 l 0 -10 l 25 0 l 0 10 z"></path>
    <path d="m 487.5 295 l 30 0 l 0 -80 l -30 0 l 0 80 z m 2.5 0 l 0 10 l 25 0 l 0 -10 z"></path>
    <path d="m 575 130 l 60 0 l 0 60 l -60 0 l 0 -60 z"></path><path d="m 575 130 m 60 0 m 0 5 l 5 0 l 0 50 l -5 0 z"></path>
    <path d="m 575 200 l 60 0 l 0 60 l -60 0 l 0 -60 z"></path><path d="m 575 200 m 60 0 m 0 5 l 5 0 l 0 50 l -5 0 z"></path>
  </g>
  <g id="LED">
    <rect x="110" y="187" width="7" height="4"></rect>
    <rect x="121" y="187" width="7" height="4"></rect>
    <rect x="132" y="187" width="7" height="4"></rect>
    <rect x="143" y="187" width="7" height="4"></rect>
    <rect x="154" y="187" width="7" height="4"></rect>
    <rect x="110" y="195" width="7" height="4"></rect>
    <rect x="121" y="195" width="7" height="4"></rect>
    <rect x="132" y="195" width="7" height="4"></rect>
    <rect x="143" y="195" width="7" height="4"></rect>
    <rect x="154" y="195" width="7" height="4"></rect>
    <rect x="110" y="203" width="7" height="4"></rect>
    <rect x="121" y="203" width="7" height="4"></rect>
    <rect x="132" y="203" width="7" height="4"></rect>
    <rect x="143" y="203" width="7" height="4"></rect>
    <rect x="154" y="203" width="7" height="4"></rect>
    <rect x="110" y="211" width="7" height="4"></rect>
    <rect x="121" y="211" width="7" height="4"></rect>
    <rect x="132" y="211" width="7" height="4"></rect>
    <rect x="143" y="211" width="7" height="4"></rect>
    <rect x="154" y="211" width="7" height="4"></rect>
    <rect x="110" y="219" width="7" height="4"></rect>
    <rect x="121" y="219" width="7" height="4"></rect>
    <rect x="132" y="219" width="7" height="4"></rect>
    <rect x="143" y="219" width="7" height="4"></rect>
    <rect x="154" y="219" width="7" height="4"></rect>
  </g>
  <use href="#LED" filter="url(#blur)" stroke="#FFF"></use>
  <use href="#LED" fill="#F055" stroke="#FFF" stroke-width="0.1"></use>
  <g id="HEADER" stroke="#FF0">
    <rect x="110" y="115" width="50" height="6" fill="url(#hdr1)"></rect>
    <rect x="110" y="270" width="50" height="6" fill="url(#hdr2)"></rect>
    <rect x="570" y="115" width="50" height="6" fill="url(#hdr3)"></rect>
    <rect x="570" y="270" width="50" height="6" fill="url(#hdr4)"></rect>
    <rect x="205" y="115" width="30" height="6" fill="url(#hdr5)"></rect>
    <rect x="205" y="270" width="30" height="6" fill="url(#hdr6)"></rect>
    <rect x="535" y="115" width="30" height="6" fill="url(#hdr5)"></rect>
    <rect x="535" y="270" width="30" height="6" fill="url(#hdr6)"></rect>
    <rect x="177.5" y="115" width="20" height="161" fill="url(#hdr9)" stroke="#FFF" stroke-width="3"></rect>
  </g>
  <g id="SOCKET" fill="#212A" stroke="#FFF" stroke-width="4" stroke-linejoin="round">
    <rect x="205" y="125" width="30" height="140"></rect>
    <rect x="535" y="125" width="30" height="140"></rect>
  </g>
  <g id="CAP">
    <rect x="522.5" y="150" width="6" height="20" fill="#F06" stroke="#F06"></rect>
    <rect x="522.5" y="220" width="6" height="20" fill="#0AF" stroke="#0AF"></rect>
    <rect x="256.5" y="150" width="6" height="20" fill="#F06" stroke="#F06"></rect>
    <rect x="312.5" y="150" width="6" height="20" fill="#F06" stroke="#F06"></rect>
    <rect x="332.5" y="150" width="6" height="20" fill="#F06" stroke="#F06"></rect>
    <rect x="388.5" y="150" width="6" height="20" fill="#F06" stroke="#F06"></rect>
    <rect x="408.5" y="150" width="6" height="20" fill="#F06" stroke="#F06"></rect>
    <rect x="464.5" y="150" width="6" height="20" fill="#F06" stroke="#F06"></rect>
    <rect x="256.5" y="220" width="6" height="20" fill="#0AF" stroke="#0AF"></rect>
    <rect x="312.5" y="220" width="6" height="20" fill="#0AF" stroke="#0AF"></rect>
    <rect x="332.5" y="220" width="6" height="20" fill="#0AF" stroke="#0AF"></rect>
    <rect x="388.5" y="220" width="6" height="20" fill="#0AF" stroke="#0AF"></rect>
    <rect x="408.5" y="220" width="6" height="20" fill="#0AF" stroke="#0AF"></rect>
    <rect x="464.5" y="220" width="6" height="20" fill="#0AF" stroke="#0AF"></rect>
  </g>
  <g id="POT">
    <rect x="270" y="127" width="35" height="35" fill="#F17" stroke="#AAA"></rect><circle cx="287.5" cy="145" r="7" fill="#FFF" stroke="#FFF"></circle><rect x="282.5" y="143.5" width="10" height="3" fill="#777"></rect>
    <rect x="346" y="127" width="35" height="35" fill="#F17" stroke="#AAA"></rect><circle cx="363.5" cy="145" r="7" fill="#FFF" stroke="#FFF"></circle><rect x="358.5" y="143.5" width="10" height="3" fill="#777"></rect>
    <rect x="422" y="127" width="35" height="35" fill="#F17" stroke="#AAA"></rect><circle cx="439.5" cy="145" r="7" fill="#FFF" stroke="#FFF"></circle><rect x="434.5" y="143.5" width="10" height="3" fill="#777"></rect>
    <rect x="270" y="228" width="35" height="35" fill="#17F" stroke="#AAA"></rect><circle cx="287.5" cy="245" r="7" fill="#FFF" stroke="#FFF"></circle><rect x="282.5" y="243.5" width="10" height="3" fill="#777"></rect>
    <rect x="346" y="228" width="35" height="35" fill="#17F" stroke="#AAA"></rect><circle cx="363.5" cy="245" r="7" fill="#FFF" stroke="#FFF"></circle><rect x="358.5" y="243.5" width="10" height="3" fill="#777"></rect>
    <rect x="422" y="228" width="35" height="35" fill="#17F" stroke="#AAA"></rect><circle cx="439.5" cy="245" r="7" fill="#FFF" stroke="#FFF"></circle><rect x="434.5" y="243.5" width="10" height="3" fill="#777"></rect>
  </g>
  <g id="MISC">
    <rect x="150" y="150" width="20" height="20" fill="#F055"></rect>
  </g>
</g>
</svg>