<!-- moduino mega audio mixer mod uijmp -->
<svg xmlns="http://www.w3.org/2000/svg" style="background: #111; width: 100%; height: 100%;">
<defs>
  <filter id="blur">
    <feGaussianBlur stdDeviation="0.5"></feGaussianBlur>
  </filter>
  <pattern id="grid" x="0.0" y="0.0" width="10" height="10" patternUnits="userSpaceOnUse">
    <rect width="10" height="10" fill="#111"></rect>
    <rect width="1" height="1" fill="#FFF"></rect>
  </pattern>
  <pattern id="vent" width="50" height="50" patternUnits="userSpaceOnUse">
    <rect width="50" height="50" fill="#000"></rect>
    <path d="m 0 0 l 0 25 l 25 -25 z m 50 0 l 0 25 l -25 25 l -25 0 z" fill="#111"></path>
  </pattern>
  <pattern id="hdr1" x="4.5" y="2.5" width="6" height="6" patternUnits="userSpaceOnUse">
    <rect width="6" height="6" fill="#000"></rect>
    <rect width="3" height="3" fill="#333"></rect>
  </pattern>
  <pattern id="hdr2" x="4.5" y="1.5" width="6" height="6" patternUnits="userSpaceOnUse">
    <rect width="6" height="6" fill="#000"></rect>
    <rect width="3" height="3" fill="#333"></rect>
  </pattern>
  <pattern id="hdr3" x="2.5" y="2.5" width="6" height="6" patternUnits="userSpaceOnUse">
    <rect width="6" height="6" fill="#000"></rect>
    <rect width="3" height="3" fill="#333"></rect>
  </pattern>
  <pattern id="hdr4" x="2.5" y="1.5" width="6" height="6" patternUnits="userSpaceOnUse">
    <rect width="6" height="6" fill="#000"></rect>
    <rect width="3" height="3" fill="#333"></rect>
  </pattern>
  <pattern id="hdr5" x="5.5" y="2.5" width="6" height="6" patternUnits="userSpaceOnUse">
    <rect width="6" height="6" fill="#000"></rect>
    <rect width="3" height="3" fill="#333"></rect>
  </pattern>
  <pattern id="hdr6" x="5.5" y="1.5" width="6" height="6" patternUnits="userSpaceOnUse">
    <rect width="6" height="6" fill="#000"></rect>
    <rect width="3" height="3" fill="#333"></rect>
  </pattern>
  <pattern id="hdr7" x="1.5" y="2.5" width="6" height="6" patternUnits="userSpaceOnUse">
    <rect width="6" height="6" fill="#000"></rect>
    <rect width="3" height="3" fill="#333"></rect>
  </pattern>
  <pattern id="hdr8" x="1.5" y="1.5" width="6" height="6" patternUnits="userSpaceOnUse">
    <rect width="6" height="6" fill="#000"></rect>
    <rect width="3" height="3" fill="#333"></rect>
  </pattern>
  <pattern id="hdr9" x="5.5" y="5.5" width="8" height="8" patternUnits="userSpaceOnUse">
    <rect width="8" height="8" fill="#000"></rect>
    <rect width="4" height="4" fill="#333"></rect>
  </pattern>
  <pattern id="hdrA" x="7.5" y="5.5" width="8" height="8" patternUnits="userSpaceOnUse">
    <rect width="8" height="8" fill="#000"></rect>
    <rect width="4" height="4" fill="#333"></rect>
  </pattern>
</defs>
<rect width="100%" height="100%" fill="url(#grid)"></rect>
<g id="moduino" fill="none" font-size="20pt" font-family="Consolas" transform="scale(2.5)">
  <g id="EDGE" fill="url(#vent)" stroke="#333" stroke-width="6">
    <path d="m 100 100 l 0 190 l 510 0 l 10 -10 l 0 -10 l 10 -10 l 0 -130 l -10 -10 l 0 -10 l -10 -10 l -510 0 z"></path>
    <path d="m 652 78 l -50 0 l 50 50 z" fill="#FFF" stroke="#FFF" stroke-width="15" stroke-linejoin="round"></path>
    <path d="m 652 312 l -50 0 l 50 -50 z" fill="#FFF" stroke="#FFF" stroke-width="15" stroke-linejoin="round"></path>
    <path d="m 80 80 l 0 220 l 0 10 l 10 0 l 525 0 l 25 -25 l 0 -10 l 10 -10 l 0 -140 l -10 -10 l 0 -10 l -25 -25 l -500 0 z" fill="none" stroke="#F06" stroke-width="20" stroke-linejoin="round"></path>
  </g>
  <g id="TABS" fill="#FFF" stroke="#FFF" stroke-width="6">
    <rect x="93" y="110" width="1" height="15"></rect>
    <rect x="93" y="265" width="1" height="15"></rect>
    <rect x="358" y="93" width="15" height="1"></rect>
    <rect x="358" y="296" width="15" height="1"></rect>
  </g>
  <g id="SPACER" fill="#FFF" stroke="#FFF">
    <rect x="160" y="117.5" width="411" height="1" stroke="#F06"></rect>
    <rect x="160" y="272.5" width="411" height="1" stroke="#0AF"></rect>
    <rect x="173" y="125" width="1" height="140"></rect>
    <rect x="277" y="125" width="1" height="140"></rect>
    <rect x="452" y="125" width="1" height="140"></rect>
    <rect x="555" y="125" width="1" height="140"></rect>
    <rect x="110" y="108" width="460" height="1"></rect><rect x="520.5" y="108" width="88" height="1"></rect>
    <rect x="110" y="282" width="460" height="1"></rect><rect x="520.5" y="282" width="88" height="1"></rect>
  </g>
  <g id="WIRE" fill="none" stroke="#477" stroke-width="1" stroke-linejoin="round" stroke-linecap="round">
    <path d="m 560 137.5 l 15 0 m -10 15 l 15 0 m -15 15 l 15 0 m -20 15 l 15 0" stroke="#A99" stroke-width="6"></path>
    <path d="m 560 207.5 l 15 0 m -10 15 l 15 0 m -15 15 l 15 0 m -20 15 l 15 0" stroke="#A99" stroke-width="6"></path>
    <path d="m 235 189.5 l 52.75 0 l 0 -65 m 0 65 l 22.75 0 l 0 -3 m -10 -8 l 0 -4 m 20 0 l 0 4 m -10 -37 l 0 -4 m 10.25 -8 l -8 -5.5 m -4.25 0 l -8 5.5 m 0 7 l 33 33 l 0 2 m 0 -2 l 0 -45 m 4 65 l 5 0 l 0 -65 m 0 65 l 22.75 0 l 0 -3 m -10 -8 l 0 -4 m 20 0 l 0 4 m -10 -37 l 0 -4 m 10.25 -8 l -8 -5.5 m -4.25 0 l -8 5.5 m 0 7 l 33 33 l 0 2 m 0 -2 l 0 -45 m 4 65 l 5 0 l 0 -65 m 0 65 l 22.75 0 l 0 -3 m -10 -8 l 0 -4 m 20 0 l 0 4 m -10 -37 l 0 -4 m 10.25 -8 l -8 -5.5 m -4.25 0 l -8 5.5 m 0 7 l 33 33 l 0 2 m 0 -2 l 0 -45 m 4 65 l 48.5 0" stroke="#0FF" stroke-width="3"></path>
    <path d="m 235 177.5 l 15 0 l 0 0 l 0 -11"></path><path d="m 495 177.5 l -15 0 l 0 0 l 0 -11"></path>
    <path d="m 235 179.5 l 15 0 l 5 -2.5 l 0 -11"></path><path d="m 495 179.5 l -15 0 l -5 -2.5 l 0 -11"></path>
    <path d="m 235 181.5 l 15 0 l 10 -5 l 0 -11"></path><path d="m 495 181.5 l -15 0 l -10 -5 l 0 -11"></path>
    <path d="m 235 183.5 l 15 0 l 15 -7.5 l 0 -11"></path><path d="m 495 183.5 l -15 0 l -15 -7.5 l 0 -11"></path>
    <path d="m 235 206.5 l 15 0 l 15 7.5 l 0 11"></path><path d="m 495 206.5 l -15 0 l -15 7.5 l 0 11"></path>
    <path d="m 235 208.5 l 15 0 l 10 5 l 0 11"></path><path d="m 495 208.5 l -15 0 l -10 5 l 0 11"></path>
    <path d="m 235 210.5 l 15 0 l 5 2.5 l 0 11"></path><path d="m 495 210.5 l -15 0 l -5 2.5 l 0 11"></path>
    <path d="m 235 212.5 l 15 0 l 0 0 l 0 11"></path><path d="m 495 212.5 l -15 0 l 0 0 l 0 11"></path>
    <path d="m 235 200.5 l 52.75 0 l 0 65 m 0 -65 l 22.75 0 l 0 3 m -10 8 l 0 4 m 20 0 l 0 -4 m -10 37 l 0 4 m 10.25 8 l -8 5.5 m -4.25 0 l -8 -5.5 m 0 -7 l 33 -33 l 0 -2 m 0 2 l 0 45 m 4 -65 l 5 0 l 0 65 m 0 -65 l 22.75 0 l 0 3 m -10 8 l 0 4 m 20 0 l 0 -4 m -10 37 l 0 4 m 10.25 8 l -8 5.5 m -4.25 0 l -8 -5.5 m 0 -7 l 33 -33 l 0 -2 m 0 2 l 0 45 m 4 -65 l 5 0 l 0 65 m 0 -65 l 22.75 0 l 0 3 m -10 8 l 0 4 m 20 0 l 0 -4 m -10 37 l 0 4 m 10.25 8 l -8 5.5 m -4.25 0 l -8 -5.5 m 0 -7 l 33 -33 l 0 -2 m 0 2 l 0 45 m 4 -65 l 48.5 0" stroke="#0FF" stroke-width="3"></path>
  </g>
  <g id="REG" fill="#17F" stroke="#999">
    <path d="m 110 230 l 40 0 l 0 30 l -40 0 l 0 -30.5 m 5 15.5 a 5 5 360 1 0 0 -0.001 z"></path>
    <path d="m 110 230 l 3 3 l 18 0 l 0 -3 m 0 30 l 0 -3 l -18 0 l -3 3 m 3 -3 l 0 -24 m 18 0 l 0 24"></path>
    <path d="m 150 235.5 l 10 0 l 1 1 l 5 0 l 0 1 l -5 0 l -1 1 l -10 0" fill="#999"></path>
    <path d="m 150 243.5 l 10 0 l 1 1 l 5 0 l 0 1 l -5 0 l -1 1 l -10 0" fill="#999"></path>
    <path d="m 150 251.5 l 10 0 l 1 1 l 5 0 l 0 1 l -5 0 l -1 1 l -10 0" fill="#999"></path>
    <circle id="REGLED" cx="120" cy="245" r="5" fill="#F05C"></circle>
    <use href="#REGLED" filter="url(#blur)" fill="#FFF"></use>
  </g>
  <g id="USB_2B" fill="#333" stroke="#FFF">
    <rect x="92" y="130" width="70" height="50" fill="#777"></rect>
  </g>
  <g id="JACK_QI" fill="#222" stroke="#FFF">
    <path d="m 241.75  95 l 30 0 l 0 80 l -30 0 l 0 -40 z m 2.5 0 l 0 -10 l 25 0 l 0 10 z"></path>
    <path d="m 241.75 295 l 30 0 l 0 -80 l -30 0 l 0 80 z m 2.5 0 l 0 10 l 25 0 l 0 -10 z"></path>
    <path d="m 458.25  95 l 30 0 l 0 80 l -30 0 l 0 -40 z m 2.5 0 l 0 -10 l 25 0 l 0 10 z"></path>
    <path d="m 458.25 295 l 30 0 l 0 -80 l -30 0 l 0 80 z m 2.5 0 l 0 10 l 25 0 l 0 -10 z"></path>
  </g>
  <g id="XLR_3P" fill="#111" stroke="#FFF">
    <path d="m 575 130 l 60 0 l 0 60 l -60 0 l 0 -60 z"></path><path d="m 575 130 m 60 0 m 0 5 l 5 0 l 0 50 l -5 0 z"></path>
    <path d="m 575 200 l 60 0 l 0 60 l -60 0 l 0 -60 z"></path><path d="m 575 200 m 60 0 m 0 5 l 5 0 l 0 50 l -5 0 z"></path>
  </g>
  <g id="LED">
    <rect x="110" y="187" width="7" height="4"></rect>
    <rect x="121" y="187" width="7" height="4"></rect>
    <rect x="132" y="187" width="7" height="4"></rect>
    <rect x="143" y="187" width="7" height="4"></rect>
    <rect x="154" y="187" width="7" height="4"></rect>
    <rect x="110" y="195" width="7" height="4"></rect>
    <rect x="121" y="195" width="7" height="4"></rect>
    <rect x="132" y="195" width="7" height="4"></rect>
    <rect x="143" y="195" width="7" height="4"></rect>
    <rect x="154" y="195" width="7" height="4"></rect>
    <rect x="110" y="203" width="7" height="4"></rect>
    <rect x="121" y="203" width="7" height="4"></rect>
    <rect x="132" y="203" width="7" height="4"></rect>
    <rect x="143" y="203" width="7" height="4"></rect>
    <rect x="154" y="203" width="7" height="4"></rect>
    <rect x="110" y="211" width="7" height="4"></rect>
    <rect x="121" y="211" width="7" height="4"></rect>
    <rect x="132" y="211" width="7" height="4"></rect>
    <rect x="143" y="211" width="7" height="4"></rect>
    <rect x="154" y="211" width="7" height="4"></rect>
    <rect x="110" y="219" width="7" height="4"></rect>
    <rect x="121" y="219" width="7" height="4"></rect>
    <rect x="132" y="219" width="7" height="4"></rect>
    <rect x="143" y="219" width="7" height="4"></rect>
    <rect x="154" y="219" width="7" height="4"></rect>
  </g>
  <use href="#LED" filter="url(#blur)" stroke="#FFF"></use>
  <use href="#LED" fill="#F055" stroke="#FFF" stroke-width="0.1"></use>
  <g id="HEADER">
    <rect x="110.0" y="115" width="50" height="6" fill="url(#hdr1)" stroke="#F06"></rect>
    <rect x="110.0" y="270" width="50" height="6" fill="url(#hdr2)" stroke="#0AF"></rect>
    <rect x="570.0" y="115" width="50" height="6" fill="url(#hdr3)" stroke="#F06"></rect>
    <rect x="570.0" y="270" width="50" height="6" fill="url(#hdr4)" stroke="#0AF"></rect>
    <rect x="207.5" y="115" width="25" height="6" fill="url(#hdr5)" stroke="#F06"></rect>
    <rect x="207.5" y="270" width="25" height="6" fill="url(#hdr6)" stroke="#0AF"></rect>
    <rect x="497.5" y="115" width="25" height="6" fill="url(#hdr7)" stroke="#F06"></rect>
    <rect x="497.5" y="270" width="25" height="6" fill="url(#hdr8)" stroke="#0AF"></rect>
    <rect x="177.5" y="115" width="20" height="161" fill="url(#hdr9)" stroke="#444" stroke-width="3"></rect>
    <rect x="531.5" y="115" width="20" height="161" fill="url(#hdrA)" stroke="#444" stroke-width="3"></rect>
  </g>
  <g id="SOCKET" fill="#212A" stroke="#FFF" stroke-width="4" stroke-linejoin="round">
    <rect x="205" y="125.5" width="30" height="140"></rect>
    <rect x="495" y="125.5" width="30" height="140"></rect>
  </g>
  <g id="CAP">
    <rect x="288.75" y="121" width="20" height="6" fill="#F06" stroke="#F06"></rect>
    <rect x="312.50" y="121" width="20" height="6" fill="#F06" stroke="#F06"></rect>
    <rect x="343.50" y="121" width="20" height="6" fill="#F06" stroke="#F06"></rect>
    <rect x="367.00" y="121" width="20" height="6" fill="#F06" stroke="#F06"></rect>
    <rect x="398.00" y="121" width="20" height="6" fill="#F06" stroke="#F06"></rect>
    <rect x="421.50" y="121" width="20" height="6" fill="#F06" stroke="#F06"></rect>
    <rect x="288.75" y="264" width="20" height="6" fill="#0AF" stroke="#0AF"></rect>
    <rect x="312.50" y="264" width="20" height="6" fill="#0AF" stroke="#0AF"></rect>
    <rect x="343.50" y="264" width="20" height="6" fill="#0AF" stroke="#0AF"></rect>
    <rect x="367.00" y="264" width="20" height="6" fill="#0AF" stroke="#0AF"></rect>
    <rect x="398.00" y="264" width="20" height="6" fill="#0AF" stroke="#0AF"></rect>
    <rect x="421.50" y="264" width="20" height="6" fill="#0AF" stroke="#0AF"></rect>
  </g>
  <g id="VIA" stroke="#FB1" stroke-width="2">
    <circle r="3" cx="300.50" cy="133"></circle><circle r="3" cx="310.50" cy="133"></circle><circle r="3" cx="320.50" cy="133"></circle>
    <circle r="3" cx="355.25" cy="133"></circle><circle r="3" cx="365.25" cy="133"></circle><circle r="3" cx="375.25" cy="133"></circle>
    <circle r="3" cx="410.00" cy="133"></circle><circle r="3" cx="420.00" cy="133"></circle><circle r="3" cx="430.00" cy="133"></circle>
    <circle r="3" cx="300.50" cy="182"></circle><circle r="3" cx="310.50" cy="182"></circle><circle r="3" cx="320.50" cy="182"></circle>
    <circle r="3" cx="355.25" cy="182"></circle><circle r="3" cx="365.25" cy="182"></circle><circle r="3" cx="375.25" cy="182"></circle>
    <circle r="3" cx="410.00" cy="182"></circle><circle r="3" cx="420.00" cy="182"></circle><circle r="3" cx="430.00" cy="182"></circle>
    <circle r="3" cx="300.50" cy="208"></circle><circle r="3" cx="310.50" cy="208"></circle><circle r="3" cx="320.50" cy="208"></circle>
    <circle r="3" cx="355.25" cy="208"></circle><circle r="3" cx="365.25" cy="208"></circle><circle r="3" cx="375.25" cy="208"></circle>
    <circle r="3" cx="410.00" cy="208"></circle><circle r="3" cx="420.00" cy="208"></circle><circle r="3" cx="430.00" cy="208"></circle>
    <circle r="3" cx="300.50" cy="257"></circle><circle r="3" cx="310.50" cy="257"></circle><circle r="3" cx="320.50" cy="257"></circle>
    <circle r="3" cx="355.25" cy="257"></circle><circle r="3" cx="365.25" cy="257"></circle><circle r="3" cx="375.25" cy="257"></circle>
    <circle r="3" cx="410.00" cy="257"></circle><circle r="3" cx="420.00" cy="257"></circle><circle r="3" cx="430.00" cy="257"></circle>
    <circle r="3" cx="333.66" cy="175.5"></circle><circle r="3" cx="333.66" cy="189.5"></circle>
    <circle r="3" cx="388.32" cy="175.5"></circle><circle r="3" cx="388.32" cy="189.5"></circle>
    <circle r="3" cx="442.98" cy="175.5"></circle><circle r="3" cx="442.98" cy="189.5"></circle>
    <circle r="3" cx="333.66" cy="214.5"></circle><circle r="3" cx="333.66" cy="200.5"></circle>
    <circle r="3" cx="388.32" cy="214.5"></circle><circle r="3" cx="388.32" cy="200.5"></circle>
    <circle r="3" cx="442.98" cy="214.5"></circle><circle r="3" cx="442.98" cy="200.5"></circle>
  </g>
  <g id="UIJMP" stroke="#77F" stroke-width="3" stroke-linecap="round">
    <path d="m 300.50 133 l 10 0"></path><path d="m 355.25 133 l 20 0"></path><path d="m 420.00 133 l 10 0"></path>
    <path d="m 310.50 182 l 10 0"></path><path d="m 355.25 182 l 20 0"></path><path d="m 410.00 182 l 10 0"></path>
    <path d="m 300.50 208 l 10 0"></path><path d="m 355.25 208 l 20 0"></path><path d="m 420.00 208 l 10 0"></path>
    <path d="m 300.50 257 l 10 0"></path><path d="m 355.25 257 l 20 0"></path><path d="m 420.00 257 l 10 0"></path>
    <path d="m 333.66 176 l 0 13"></path><path d="m 388.32 176 l 0 13"></path><path d="m 442.98 176 l 0 13"></path>
    <path d="m 333.66 201 l 0 13"></path><path d="m 388.32 201 l 0 13"></path><path d="m 442.98 201 l 0 13"></path>
  </g>
  <g id="POT">
    <rect x="292.5" y="140" width="35" height="35" fill="#F17" stroke="#AAA"></rect><circle cx="310.5" cy="157.5" r="7" fill="#FFF" stroke="#FFF"></circle><rect x="305.5" y="156" width="10" height="3" fill="#777"></rect><rect x="309" y="152.5" width="3" height="10" fill="#777"></rect>
    <rect x="347.5" y="140" width="35" height="35" fill="#F17" stroke="#AAA"></rect><circle cx="365.5" cy="157.5" r="7" fill="#FFF" stroke="#FFF"></circle><rect x="360.5" y="156" width="10" height="3" fill="#777"></rect><rect x="364" y="152.5" width="3" height="10" fill="#777"></rect>
    <rect x="402.5" y="140" width="35" height="35" fill="#F17" stroke="#AAA"></rect><circle cx="420.5" cy="157.5" r="7" fill="#FFF" stroke="#FFF"></circle><rect x="415.5" y="156" width="10" height="3" fill="#777"></rect><rect x="419" y="152.5" width="3" height="10" fill="#777"></rect>
    <rect x="292.5" y="215" width="35" height="35" fill="#17F" stroke="#AAA"></rect><circle cx="310.5" cy="232.5" r="7" fill="#FFF" stroke="#FFF"></circle><rect x="305.5" y="231" width="10" height="3" fill="#777"></rect><rect x="309" y="227.5" width="3" height="10" fill="#777"></rect>
    <rect x="347.5" y="215" width="35" height="35" fill="#17F" stroke="#AAA"></rect><circle cx="365.5" cy="232.5" r="7" fill="#FFF" stroke="#FFF"></circle><rect x="360.5" y="231" width="10" height="3" fill="#777"></rect><rect x="364" y="227.5" width="3" height="10" fill="#777"></rect>
    <rect x="402.5" y="215" width="35" height="35" fill="#17F" stroke="#AAA"></rect><circle cx="420.5" cy="232.5" r="7" fill="#FFF" stroke="#FFF"></circle><rect x="415.5" y="231" width="10" height="3" fill="#777"></rect><rect x="419" y="227.5" width="3" height="10" fill="#777"></rect>
  </g>
  <g id="MISC">
    <rect x="150" y="150" width="25" height="20" fill="#FB15"></rect>
  </g>
</g>
</svg>