<!-- moduino mega audio hifi -->
<svg xmlns="http://www.w3.org/2000/svg" style="background: #111; width: 100%; height: 100%;">
<defs>
  <pattern id="grid" width="10" height="10" patternUnits="userSpaceOnUse">
    <rect width="10" height="10" fill="#111"></rect>
    <rect width="1" height="1" fill="#FFF"></rect>
  </pattern>
  <pattern id="vent" width="50" height="50" patternUnits="userSpaceOnUse">
    <rect width="50" height="50" fill="#0F1F2F"></rect>
    <path d="m 0 0 l 0 25 l 25 -25 z m 50 0 l 0 25 l -25 25 l -25 0 z" fill="#1F2F3F"></path>
  </pattern>
  <pattern id="hdr1" width="8" height="6" patternUnits="userSpaceOnUse">
    <rect width="8" height="6" fill="#000"></rect>
    <rect width="3" height="3" fill="#333" x="1.5" y="2.5"></rect>
  </pattern>
  <pattern id="hdr2" width="8" height="6" patternUnits="userSpaceOnUse">
    <rect width="8" height="6" fill="#000"></rect>
    <rect width="3" height="3" fill="#333" x="1.5" y="1.5"></rect>
  </pattern>
  <pattern id="hdr3" width="8" height="6" patternUnits="userSpaceOnUse">
    <rect width="8" height="6" fill="#000"></rect>
    <rect width="3" height="3" fill="#333" x="5.5" y="2.5"></rect>
  </pattern>
  <pattern id="hdr4" width="8" height="6" patternUnits="userSpaceOnUse">
    <rect width="8" height="6" fill="#000"></rect>
    <rect width="3" height="3" fill="#333" x="5.5" y="1.5"></rect>
  </pattern>
  <pattern id="hdr5" width="8" height="6" patternUnits="userSpaceOnUse">
    <rect width="8" height="6" fill="#000"></rect>
    <rect width="3" height="3" fill="#333" x="2.5" y="2.5"></rect>
  </pattern>
  <pattern id="hdr6" width="8" height="6" patternUnits="userSpaceOnUse">
    <rect width="8" height="6" fill="#000"></rect>
    <rect width="3" height="3" fill="#333" x="2.5" y="1.5"></rect>
  </pattern>
</defs>
<rect width="100%" height="100%" fill="url(#grid)"></rect>
<g id="moduino" fill="none" font-size="20pt" font-family="Consolas" transform="scale(2.5)">
  <g id="EDGE" fill="url(#vent)" stroke="#345" stroke-width="6">
    <path d="m 100 100 l 0 190 l 79 0 l 0 -190 l -79 0 z"></path>
    <path d="m 192 100 l 330 0 l 0 190 l -330 0 l 0 -190 z" clip-path="url(#hole)"></path>
    <path d="m 535 100 l 0 190 l 75 0 l 10 -10 l 0 -10 l 10 -10 l 0 -130 l -10 -10 l 0 -10 l -10 -10 l -75 0 z"></path>
    <path d="m 652 78 l -50 0 l 50 50 z" fill="#FFF" stroke="#FFF" stroke-width="15" stroke-linejoin="round"></path>
    <path d="m 652 312 l -50 0 l 50 -50 z" fill="#FFF" stroke="#FFF" stroke-width="15" stroke-linejoin="round"></path>
    <path d="m 80 80 l 0 220 l 0 10 l 10 0 l 525 0 l 25 -25 l 0 -10 l 10 -10 l 0 -140 l -10 -10 l 0 -10 l -25 -25 l -500 0 z" fill="none" stroke="#067" stroke-width="20" stroke-linejoin="round"></path>
  </g>
  <g id="TABS" fill="#FFF" stroke="#FFF" stroke-width="6">
    <rect x="93.00" y="110" width="1" height="15"></rect>
    <rect x="93.00" y="265" width="1" height="15"></rect>
    <rect x="185.0" y="110" width="1" height="15"></rect>
    <rect x="185.0" y="265" width="1" height="15"></rect>
    <rect x="349.5" y="93" width="15" height="1"></rect>
    <rect x="349.5" y="296" width="15" height="1"></rect>
    <rect x="528.0" y="110" width="1" height="15"></rect>
    <rect x="528.0" y="265" width="1" height="15"></rect>
  </g>
  <g id="SPACER" fill="#FFF" stroke="#FFF">
    <rect x="170" y="114" width="1" height="163"></rect>
    <rect x="590" y="134" width="1" height="123"></rect>
  </g>
  <g id="WIRE" fill="none" stroke="#477" stroke-width="1" stroke-linejoin="round" stroke-linecap="round">
    <path d="m 555.5 135 l -10 0 l 0 30 l 10 0"></path>
    <path d="m 555.5 180 l -10 0 l 0 30 l 10 0"></path>
    <path d="m 585 135 l 10 0 m -10 15 l 10 0 m -10 15 l 10 0"></path>
    <path d="m 585 180 l 10 0 m -10 15 l 10 0 m -10 15 l 10 0"></path>
    <path d="m 585 225 l 10 0 m -10 15 l 10 0 m -10 15 l 10 0"></path>
    <path d="m 235 180 l 275 0 l 0 -60"></path>
    <path d="m 235 185 l 270 0 l 0 -60"></path>
    <path d="m 235 190 l 265 0 l 0 -60"></path>
    <path d="m 235 195 l 260 0 l 0 -60"></path>
    <path d="m 235 200 l 260 0 l 0  60"></path>
    <path d="m 235 205 l 265 0 l 0  60"></path>
    <path d="m 235 210 l 270 0 l 0  60"></path>
    <path d="m 235 215 l 275 0 l 0  60"></path>
    <path d="m 235 175 l 230 0"></path>
    <path d="m 235 170 l 200 0"></path>
    <path d="m 235 165 l 170 0"></path>
    <path d="m 235 160 l 140 0"></path>
    <path d="m 235 155 l 110 0"></path>
    <path d="m 235 150 l  80 0"></path>
    <path d="m 235 145 l  50 0"></path>
    <path d="m 235 140 l  20 0"></path>
    <path d="m 235 220 l 230 0"></path>
    <path d="m 235 225 l 200 0"></path>
    <path d="m 235 230 l 170 0"></path>
    <path d="m 235 235 l 140 0"></path>
    <path d="m 235 240 l 110 0"></path>
    <path d="m 235 245 l 80 0"></path>
    <path d="m 235 250 l 50 0"></path>
    <path d="m 235 255 l 20 0"></path>
  </g>
  <g id="REG" fill="#111" stroke="#FFF">
    <path d="m 110 230 l 40 0 l 0 30 l -40 0 l 0 -30.5 m 5 15.5 a 5 5 360 1 0 0 -0.001 z"></path>
    <path d="m 110 230 l 3 3 l 18 0 l 0 -3 m 0 30 l 0 -3 l -18 0 l -3 3 m 3 -3 l 0 -24 m 18 0 l 0 24"></path>
    <path d="m 150 235.5 l 10 0 l 1 1 l 5 0 l 0 1 l -5 0 l -1 1 l -10 0" fill="#999"></path>
    <path d="m 150 243.5 l 10 0 l 1 1 l 5 0 l 0 1 l -5 0 l -1 1 l -10 0" fill="#999"></path>
    <path d="m 150 251.5 l 10 0 l 1 1 l 5 0 l 0 1 l -5 0 l -1 1 l -10 0" fill="#999"></path>
  </g>
  <g id="PORT" fill="#777" stroke="#FFF">
    <rect x="92" y="130" width="70" height="50"></rect>
    <path d="m 482  95 l 40 0 l 0 40 l -40 0 l 0 -40 z m 10 0 l 0 -10 l 20 0 l 0 10 z" fill="#333"></path>
    <path d="m 482 255 l 40 0 l 0 40 l -40 0 l 0 -40 z m 10 40 l 0 10 l 20 0 l 0 -10 z" fill="#333"></path>
    <path d="m 595 130 l 40 0 l 0 40 l -40 0 l 0 -40 z m 40 10 l 10 0 l 0 20 l -10 0 z" fill="#333"></path>
    <path d="m 595 175 l 40 0 l 0 40 l -40 0 l 0 -40 z" fill="#F05"></path><path d="m 595 175 m 40 0 m 0 40 m -40 0 m 0 -40 z m 40 7.5 l 30 0 l 0 25 l -30 0 z"></path>
    <path d="m 595 220 l 40 0 l 0 40 l -40 0 l 0 -40 z" fill="#FFF"></path><path d="m 595 220 m 40 0 m 0 40 m -40 0 m 0 -40 z m 40 5.5 l 30 0 l 0 25 l -30 0 z"></path>
  </g>
  <g id="LED" fill="#F055" stroke="#FFF">
    <rect x="110" y="187" width="7" height="4"></rect>
    <rect x="121" y="187" width="7" height="4"></rect>
    <rect x="132" y="187" width="7" height="4"></rect>
    <rect x="143" y="187" width="7" height="4"></rect>
    <rect x="154" y="187" width="7" height="4"></rect>
    <rect x="110" y="195" width="7" height="4"></rect>
    <rect x="121" y="195" width="7" height="4"></rect>
    <rect x="132" y="195" width="7" height="4"></rect>
    <rect x="143" y="195" width="7" height="4"></rect>
    <rect x="154" y="195" width="7" height="4"></rect>
    <rect x="110" y="203" width="7" height="4"></rect>
    <rect x="121" y="203" width="7" height="4"></rect>
    <rect x="132" y="203" width="7" height="4"></rect>
    <rect x="143" y="203" width="7" height="4"></rect>
    <rect x="154" y="203" width="7" height="4"></rect>
    <rect x="110" y="211" width="7" height="4"></rect>
    <rect x="121" y="211" width="7" height="4"></rect>
    <rect x="132" y="211" width="7" height="4"></rect>
    <rect x="143" y="211" width="7" height="4"></rect>
    <rect x="154" y="211" width="7" height="4"></rect>
    <rect x="110" y="219" width="7" height="4"></rect>
    <rect x="121" y="219" width="7" height="4"></rect>
    <rect x="132" y="219" width="7" height="4"></rect>
    <rect x="143" y="219" width="7" height="4"></rect>
    <rect x="154" y="219" width="7" height="4"></rect>
  </g>
  <g id="HEADER" stroke="#FFF">
    <rect x="110" y="115" width="50" height="6" fill="url(#hdr1)"></rect>
    <rect x="110" y="270" width="50" height="6" fill="url(#hdr2)"></rect>
    <rect x="570" y="115" width="50" height="6" fill="url(#hdr3)"></rect>
    <rect x="570" y="270" width="50" height="6" fill="url(#hdr4)"></rect>
    <rect x="205" y="115" width="30" height="6" fill="url(#hdr5)"></rect>
    <rect x="205" y="270" width="30" height="6" fill="url(#hdr6)"></rect>
  </g>
  <g id="SOCKET" fill="#212A" stroke="#FFF" stroke-width="4" stroke-linejoin="round">
    <rect x="205" y="125" width="30" height="140"></rect>
    <rect x="555" y="125" width="30" height="140"></rect>
  </g>
  <g id="CAP" fill="#0AF" stroke="#0AF">
    <rect x="542.5" y="140" width="6" height="20"></rect>
    <rect x="542.5" y="185" width="6" height="20"></rect>
  </g>
  <g id="FADER" fill="#334" stroke="#778" stroke-width="6">
    <rect x="250" y="120" width="15" height="150"></rect><rect x="253.5" y="145" width="8" height="20" fill="#F99" stroke="#FFF" stroke-width="1"></rect>
    <rect x="280" y="120" width="15" height="150"></rect><rect x="283.5" y="145" width="8" height="20" fill="#F99" stroke="#FFF" stroke-width="1"></rect>
    <rect x="310" y="120" width="15" height="150"></rect><rect x="313.5" y="165" width="8" height="20" fill="#F99" stroke="#FFF" stroke-width="1"></rect>
    <rect x="340" y="120" width="15" height="150"></rect><rect x="343.5" y="185" width="8" height="20" fill="#F99" stroke="#FFF" stroke-width="1"></rect>
    <rect x="370" y="120" width="15" height="150"></rect><rect x="373.5" y="185" width="8" height="20" fill="#F99" stroke="#FFF" stroke-width="1"></rect>
    <rect x="400" y="120" width="15" height="150"></rect><rect x="403.5" y="165" width="8" height="20" fill="#F99" stroke="#FFF" stroke-width="1"></rect>
    <rect x="430" y="120" width="15" height="150"></rect><rect x="433.5" y="145" width="8" height="20" fill="#F99" stroke="#FFF" stroke-width="1"></rect>
    <rect x="460" y="120" width="15" height="150"></rect><rect x="463.5" y="145" width="8" height="20" fill="#F99" stroke="#FFF" stroke-width="1"></rect>
  </g>
</g>
</svg>