<!-- moduino mega audio module -->
<svg xmlns="http://www.w3.org/2000/svg" style="background: #111; width: 100%; height: 100%;">
<defs>
  <pattern id="grid" width="10" height="10" patternUnits="userSpaceOnUse">
    <rect width="10" height="10" fill="#111"></rect>
    <rect width="1" height="1" fill="#FFF"></rect>
  </pattern>
  <pattern id="vent" width="50" height="50" patternUnits="userSpaceOnUse">
    <rect width="50" height="50" fill="#000"></rect>
    <path d="m 0 0 l 0 25 l 25 -25 z m 50 0 l 0 25 l -25 25 l -25 0 z" fill="#333"></path>
  </pattern>
  <pattern id="hole" width="8" height="6" patternUnits="userSpaceOnUse">
    <rect width="8" height="6" fill="#000"></rect>
    <rect width="3" height="3" fill="#333" x="2.5" y="1.5"></rect>
  </pattern>
  <pattern id="kiro" width="2" height="2" patternUnits="userSpaceOnUse">
    <path d="m 0 0 l 0 1 l 1 -1 z m 2 0 l 0 1 l -1 1 l -1 0 z" fill="#F05"></path>
  </pattern>
</defs>
<rect width="100%" height="100%" fill="url(#grid)"></rect>
<g id="moduino" fill="none" font-size="20pt" font-family="Consolas">
  <g id="EDGE" fill="url(#vent)" stroke="#F05" stroke-width="6">
    <path d="m 100 280 l 0 190 l 415 0 l 0 -190 l -415 0 z"></path>
    <path d="m 525 280 l 0 190 l 85 0 l 10 -10 l -30 0 l 0 -13.5 l 30 0 l 10 -10 l 0 -122.5 l -10 -10 l -30 0 l 0 -13.5 l 30 0 l -10 -10 l -88 0"></path>-->
    <path d="m 652 258 l -50 0 l 50 50 z" fill="#FFF" stroke="#FFF" stroke-width="15" stroke-linejoin="round"></path>
    <path d="m 652 492 l -50 0 l 50 -50 z" fill="#FFF" stroke="#FFF" stroke-width="15" stroke-linejoin="round"></path>
    <path d="m 80 260 l 0 220 l 0 10 l 10 0 l 525 0 l 25 -25 l 0 -10 l 10 -10 l 0 -140 l -10 -10 l 0 -10 l -25 -25 l -500 0 z" fill="none" stroke-width="20" stroke-linejoin="round"></path>
  </g>
  <g id="TABS" fill="#FFF" stroke="#FFF">
    <rect x="93" y="290" width="1" height="15" stroke-width="6"></rect>
    <rect x="519.5" y="290" width="1" height="15" stroke-width="4"></rect>
    <rect x="333" y="273" width="15" height="1" stroke-width="6"></rect>
    <rect x="333" y="476" width="15" height="1" stroke-width="6"></rect>
    <rect x="519.5" y="445" width="1" height="15" stroke-width="4"></rect>
    <rect x="93" y="445" width="1" height="15" stroke-width="6"></rect>
  </g>
  <g id="REG" fill="#111" stroke="#FFF">
    <path d="m 110 410 l 40 0 l 0 30 l -40 0 l 0 -30.5 m 5 15.5 a 5 5 360 1 0 0 -0.001 z"></path>
    <path d="m 110 410 l 3 3 l 18 0 l 0 -3 m 0 30 l 0 -3 l -18 0 l -3 3 m 3 -3 l 0 -24 m 18 0 l 0 24"></path>
    <path d="m 150 415.5 l 10 0 l 1 1 l 5 0 l 0 1 l -5 0 l -1 1 l -10 0" fill="#999"></path>
    <path d="m 150 423.5 l 10 0 l 1 1 l 5 0 l 0 1 l -5 0 l -1 1 l -10 0" fill="#999"></path>
    <path d="m 150 431.5 l 10 0 l 1 1 l 5 0 l 0 1 l -5 0 l -1 1 l -10 0" fill="#999"></path>
  </g>
  <g id="PORT" fill="#777" stroke="#FFF">
    <rect x="92" y="350" width="70" height="50"></rect>
    <path d="m 520 310 l 40 0 l 0 40 l -40 0 l 0 -40 z m 0 10 l 0 20 l -10 0 l 0 -20 z" fill="#AFC"></path>
    <path d="m 520 355 l 40 0 l 0 40 l -40 0 l 0 -40 z m 0 10 l 0 20 l -10 0 l 0 -20 z" fill="#ACF"></path>
    <path d="m 520 400 l 40 0 l 0 40 l -40 0 l 0 -40 z m 0 10 l 0 20 l -10 0 l 0 -20 z" fill="#FAA"></path>
  </g>
  <g id="LED" fill="#F055" stroke="#FFF">
    <circle cx="120" cy="310" r="4"></circle><circle cx="120" cy="320" r="4"></circle>
    <circle cx="130" cy="310" r="4"></circle><circle cx="130" cy="320" r="4"></circle>
    <circle cx="140" cy="310" r="4"></circle><circle cx="140" cy="320" r="4"></circle>
    <circle cx="150" cy="310" r="4"></circle><circle cx="150" cy="320" r="4"></circle>
    <circle cx="120" cy="330" r="4"></circle><circle cx="120" cy="340" r="4"></circle>
    <circle cx="130" cy="330" r="4"></circle><circle cx="130" cy="340" r="4"></circle>
    <circle cx="140" cy="330" r="4"></circle><circle cx="140" cy="340" r="4"></circle>
    <circle cx="150" cy="330" r="4"></circle><circle cx="150" cy="340" r="4"></circle>
  </g>
  <g id="SPACER" fill="#FFF" stroke="#FFF">
    <rect x="170" y="294" width="1" height="163"></rect>
    <rect x="620" y="314" width="1" height="123"></rect>
  </g>
  <g id="HEADER" fill="url(#hole)" stroke="#FFF">
    <rect x="110" y="294" width="50" height="6"></rect>
    <rect x="110" y="450" width="50" height="6"></rect>
    <rect x="180" y="294" width="70" height="6"></rect><rect x="180" y="450" width="70" height="6"></rect>
    <rect x="430" y="294" width="70" height="6"></rect><rect x="430" y="450" width="70" height="6"></rect>
    <rect x="535" y="294" width="50" height="6"></rect><rect x="535" y="450" width="50" height="6"></rect> 
  </g>
  <g id="SOCKET" fill="#212A" stroke="#FFF" stroke-width="4" stroke-linejoin="round">
    <rect x="270" y="360" width="140" height="30"></rect>
    <rect x="570" y="305" width="30" height="140"></rect>
  </g>
  <g id="RES" fill="url(#kiro)" stroke="#F05">
    <rect x="272" y="333" width="6" height="20"></rect><rect x="272" y="397" width="6" height="20"></rect>
    <rect x="282" y="333" width="6" height="20"></rect><rect x="282" y="397" width="6" height="20"></rect>
    <rect x="292" y="333" width="6" height="20"></rect><rect x="292" y="397" width="6" height="20"></rect>
    <rect x="302" y="333" width="6" height="20"></rect><rect x="302" y="397" width="6" height="20"></rect>
    <rect x="312" y="333" width="6" height="20"></rect><rect x="312" y="397" width="6" height="20"></rect>
    <rect x="322" y="333" width="6" height="20"></rect><rect x="322" y="397" width="6" height="20"></rect>
    <rect x="332" y="333" width="6" height="20"></rect><rect x="332" y="397" width="6" height="20"></rect>
    <rect x="342" y="333" width="6" height="20"></rect><rect x="342" y="397" width="6" height="20"></rect>
    <rect x="352" y="333" width="6" height="20"></rect><rect x="352" y="397" width="6" height="20"></rect>
    <rect x="362" y="333" width="6" height="20"></rect><rect x="362" y="397" width="6" height="20"></rect>
    <rect x="372" y="333" width="6" height="20"></rect><rect x="372" y="397" width="6" height="20"></rect>
    <rect x="382" y="333" width="6" height="20"></rect><rect x="382" y="397" width="6" height="20"></rect>
    <rect x="392" y="333" width="6" height="20"></rect><rect x="392" y="397" width="6" height="20"></rect>
    <rect x="402" y="333" width="6" height="20"></rect><rect x="402" y="397" width="6" height="20"></rect>
  </g>
  <g id="CAP" fill="#F05" stroke="#F05">
    <rect x="606" y="320" width="6" height="20"></rect><rect x="606" y="365" width="6" height="20"></rect>
  </g>
  <g id="WIRE" fill="none" stroke="#555" stroke-width="1" stroke-linejoin="round" stroke-linecap="round">
    <path d="m 275 360 l 0 -30 L 185 300"></path>
    <path d="m 285 360 l 0 -30 L 195 300"></path>
    <path d="m 295 360 l 0 -30 L 205 300"></path>
    <path d="m 305 360 l 0 -30 L 215 300"></path>
    <path d="m 315 360 l 0 -30 L 225 300"></path>
    <path d="m 325 360 l 0 -30 L 235 300"></path>
    <path d="m 335 360 l 0 -30 L 245 300"></path>
    <path d="m 345 360 l 0 -30 L 435 300"></path>
    <path d="m 355 360 l 0 -30 L 445 300"></path>
    <path d="m 365 360 l 0 -30 L 455 300"></path>
    <path d="m 375 360 l 0 -30 L 465 300"></path>
    <path d="m 385 360 l 0 -30 L 475 300"></path>
    <path d="m 395 360 l 0 -30 L 485 300"></path>
    <path d="m 405 360 l 0 -30 L 495 300"></path>
    <path d="m 275 390 l 0  30 L 185 450"></path>
    <path d="m 285 390 l 0  30 L 195 450"></path>
    <path d="m 295 390 l 0  30 L 205 450"></path>
    <path d="m 305 390 l 0  30 L 215 450"></path>
    <path d="m 315 390 l 0  30 L 225 450"></path>
    <path d="m 325 390 l 0  30 L 235 450"></path>
    <path d="m 335 390 l 0  30 L 245 450"></path>
    <path d="m 345 390 l 0  30 L 435 450"></path>
    <path d="m 355 390 l 0  30 L 445 450"></path>
    <path d="m 365 390 l 0  30 L 455 450"></path>
    <path d="m 375 390 l 0  30 L 465 450"></path>
    <path d="m 385 390 l 0  30 L 475 450"></path>
    <path d="m 395 390 l 0  30 L 485 450"></path>
    <path d="m 405 390 l 0  30 L 495 450"></path>
  </g>
  <g id="WIRE_EXT" fill="none" stroke="#555" stroke-width="1" stroke-linejoin="round" stroke-linecap="round">
    <path d="m 160 370 l 110 0"></path>
    <path d="m 160 380 l 110 0"></path>
    <path d="m 600 315 l 10 0 l 0 30 l -10 0"></path>
    <path d="m 600 360 l 10 0 l 0 30 l -10 0"></path>
    <path d="m 570 315 l -10 0 l 0 30 l 10 0 m -10 0 m 0 -15 l 10 0"></path>
    <path d="m 570 360 l -10 0 l 0 30 l 10 0 m -10 0 m 0 -15 l 10 0"></path>
    <path d="m 570 405 l -10 0 l 0 30 l 10 0 m -10 0 m 0 -15 l 10 0"></path>
  </g>
</g>
</svg>