<svg xmlns="http://www.w3.org/2000/svg" style="color-scheme: dark; background: black; width: 10000px; height: 10000px; overflow: scroll; user-select: none; ">
<title>Pirial Circuitry TrimPot Matrix Mixer</title>
<g mod="pirial" id="circuitry" addendum="trimpot" font-size="18pt" fill="none" stroke="none" stroke-linejoin="round" stroke-linecap="round" font-family="Permanent Marker" font-weight="bold" transform="scale(0.8)">
  <text id="title" x="550" y="70" text-anchor="middle" font-size="40pt" fill="#FFF">Pirial Circuitry TrimPot Matrix Mixer</text>
  <g id="tile-trimpot-matrix-mixer" transform="translate(50, 100)">
    <rect fill="#111" stroke="#333" width="1000" height="1000"></rect>
    <text id="label-trimpot-matrix-mixer" fill="#FFF" x="500" y="30" text-anchor="middle">TrimPot Matrix Mixer</text>
    <text id="emoji-trimpot-matrix-mixer" fill="#FFF" x="996" y="985" text-anchor="end">⚠️</text>
    <g id="scrub-trimpot-matrix-mixer" stroke="#777" stroke-width="5">
      <circle cx="62.5" cy="140" r="6"></circle><circle cx="62.5" cy="170" r="6"></circle>
      <circle cx="125" cy="140" r="6"></circle><circle cx="125" cy="170" r="6"></circle>
      <circle cx="225" cy="140" r="6"></circle><circle cx="225" cy="170" r="6"></circle>
      <circle cx="325" cy="140" r="6"></circle><circle cx="325" cy="170" r="6"></circle>
      <circle cx="425" cy="140" r="6"></circle><circle cx="425" cy="170" r="6"></circle>
      <circle cx="525" cy="140" r="6"></circle><circle cx="525" cy="170" r="6"></circle>
      <circle cx="625" cy="140" r="6"></circle><circle cx="625" cy="170" r="6"></circle>
      <circle cx="725" cy="140" r="6"></circle><circle cx="725" cy="170" r="6"></circle>
      <circle cx="825" cy="140" r="6"></circle><circle cx="825" cy="170" r="6"></circle>
      <circle cx="942.5" cy="140" r="6"></circle><circle cx="942.5" cy="170" r="6"></circle>

      <circle cx="62.5" cy="240" r="6"></circle><circle cx="62.5" cy="270" r="6"></circle>
      <circle cx="125" cy="240" r="6"></circle><circle cx="125" cy="270" r="6"></circle>
      <circle cx="225" cy="240" r="6"></circle><circle cx="225" cy="270" r="6"></circle>
      <circle cx="325" cy="240" r="6"></circle><circle cx="325" cy="270" r="6"></circle>
      <circle cx="425" cy="240" r="6"></circle><circle cx="425" cy="270" r="6"></circle>
      <circle cx="525" cy="240" r="6"></circle><circle cx="525" cy="270" r="6"></circle>
      <circle cx="625" cy="240" r="6"></circle><circle cx="625" cy="270" r="6"></circle>
      <circle cx="725" cy="240" r="6"></circle><circle cx="725" cy="270" r="6"></circle>
      <circle cx="825" cy="240" r="6"></circle><circle cx="825" cy="270" r="6"></circle>
      <circle cx="942.5" cy="240" r="6"></circle><circle cx="942.5" cy="270" r="6"></circle>

      <circle cx="62.5" cy="340" r="6"></circle><circle cx="62.5" cy="370" r="6"></circle>
      <circle cx="125" cy="340" r="6"></circle><circle cx="125" cy="370" r="6"></circle>
      <circle cx="225" cy="340" r="6"></circle><circle cx="225" cy="370" r="6"></circle>
      <circle cx="325" cy="340" r="6"></circle><circle cx="325" cy="370" r="6"></circle>
      <circle cx="425" cy="340" r="6"></circle><circle cx="425" cy="370" r="6"></circle>
      <circle cx="525" cy="340" r="6"></circle><circle cx="525" cy="370" r="6"></circle>
      <circle cx="625" cy="340" r="6"></circle><circle cx="625" cy="370" r="6"></circle>
      <circle cx="725" cy="340" r="6"></circle><circle cx="725" cy="370" r="6"></circle>
      <circle cx="825" cy="340" r="6"></circle><circle cx="825" cy="370" r="6"></circle>
      <circle cx="942.5" cy="340" r="6"></circle><circle cx="942.5" cy="370" r="6"></circle>

      <circle cx="62.5" cy="440" r="6"></circle><circle cx="62.5" cy="470" r="6"></circle>
      <circle cx="125" cy="440" r="6"></circle><circle cx="125" cy="470" r="6"></circle>
      <circle cx="225" cy="440" r="6"></circle><circle cx="225" cy="470" r="6"></circle>
      <circle cx="325" cy="440" r="6"></circle><circle cx="325" cy="470" r="6"></circle>
      <circle cx="425" cy="440" r="6"></circle><circle cx="425" cy="470" r="6"></circle>
      <circle cx="525" cy="440" r="6"></circle><circle cx="525" cy="470" r="6"></circle>
      <circle cx="625" cy="440" r="6"></circle><circle cx="625" cy="470" r="6"></circle>
      <circle cx="725" cy="440" r="6"></circle><circle cx="725" cy="470" r="6"></circle>
      <circle cx="825" cy="440" r="6"></circle><circle cx="825" cy="470" r="6"></circle>
      <circle cx="942.5" cy="440" r="6"></circle><circle cx="942.5" cy="470" r="6"></circle>

      <circle cx="62.5" cy="540" r="6"></circle><circle cx="62.5" cy="570" r="6"></circle>
      <circle cx="125" cy="540" r="6"></circle><circle cx="125" cy="570" r="6"></circle>
      <circle cx="225" cy="540" r="6"></circle><circle cx="225" cy="570" r="6"></circle>
      <circle cx="325" cy="540" r="6"></circle><circle cx="325" cy="570" r="6"></circle>
      <circle cx="425" cy="540" r="6"></circle><circle cx="425" cy="570" r="6"></circle>
      <circle cx="525" cy="540" r="6"></circle><circle cx="525" cy="570" r="6"></circle>
      <circle cx="625" cy="540" r="6"></circle><circle cx="625" cy="570" r="6"></circle>
      <circle cx="725" cy="540" r="6"></circle><circle cx="725" cy="570" r="6"></circle>
      <circle cx="825" cy="540" r="6"></circle><circle cx="825" cy="570" r="6"></circle>
      <circle cx="942.5" cy="540" r="6"></circle><circle cx="942.5" cy="570" r="6"></circle>

      <circle cx="62.5" cy="640" r="6"></circle><circle cx="62.5" cy="670" r="6"></circle>
      <circle cx="125" cy="640" r="6"></circle><circle cx="125" cy="670" r="6"></circle>
      <circle cx="225" cy="640" r="6"></circle><circle cx="225" cy="670" r="6"></circle>
      <circle cx="325" cy="640" r="6"></circle><circle cx="325" cy="670" r="6"></circle>
      <circle cx="425" cy="640" r="6"></circle><circle cx="425" cy="670" r="6"></circle>
      <circle cx="525" cy="640" r="6"></circle><circle cx="525" cy="670" r="6"></circle>
      <circle cx="625" cy="640" r="6"></circle><circle cx="625" cy="670" r="6"></circle>
      <circle cx="725" cy="640" r="6"></circle><circle cx="725" cy="670" r="6"></circle>
      <circle cx="825" cy="640" r="6"></circle><circle cx="825" cy="670" r="6"></circle>
      <circle cx="942.5" cy="640" r="6"></circle><circle cx="942.5" cy="670" r="6"></circle>

      <circle cx="62.5" cy="740" r="6"></circle><circle cx="62.5" cy="770" r="6"></circle>
      <circle cx="125" cy="740" r="6"></circle><circle cx="125" cy="770" r="6"></circle>
      <circle cx="225" cy="740" r="6"></circle><circle cx="225" cy="770" r="6"></circle>
      <circle cx="325" cy="740" r="6"></circle><circle cx="325" cy="770" r="6"></circle>
      <circle cx="425" cy="740" r="6"></circle><circle cx="425" cy="770" r="6"></circle>
      <circle cx="525" cy="740" r="6"></circle><circle cx="525" cy="770" r="6"></circle>
      <circle cx="625" cy="740" r="6"></circle><circle cx="625" cy="770" r="6"></circle>
      <circle cx="725" cy="740" r="6"></circle><circle cx="725" cy="770" r="6"></circle>
      <circle cx="825" cy="740" r="6"></circle><circle cx="825" cy="770" r="6"></circle>
      <circle cx="942.5" cy="740" r="6"></circle><circle cx="942.5" cy="770" r="6"></circle>

      <circle cx="62.5" cy="840" r="6"></circle><circle cx="62.5" cy="870" r="6"></circle>
      <circle cx="125" cy="840" r="6"></circle><circle cx="125" cy="870" r="6"></circle>
      <circle cx="225" cy="840" r="6"></circle><circle cx="225" cy="870" r="6"></circle>
      <circle cx="325" cy="840" r="6"></circle><circle cx="325" cy="870" r="6"></circle>
      <circle cx="425" cy="840" r="6"></circle><circle cx="425" cy="870" r="6"></circle>
      <circle cx="525" cy="840" r="6"></circle><circle cx="525" cy="870" r="6"></circle>
      <circle cx="625" cy="840" r="6"></circle><circle cx="625" cy="870" r="6"></circle>
      <circle cx="725" cy="840" r="6"></circle><circle cx="725" cy="870" r="6"></circle>
      <circle cx="825" cy="840" r="6"></circle><circle cx="825" cy="870" r="6"></circle>
      <circle cx="942.5" cy="840" r="6"></circle><circle cx="942.5" cy="870" r="6"></circle>

      <circle cx="140" cy="62.5" r="6"></circle><circle cx="170" cy="62.5" r="6"></circle>
      <circle cx="185" cy="155" r="6"></circle>
      <circle cx="185" cy="255" r="6"></circle>
      <circle cx="185" cy="355" r="6"></circle>
      <circle cx="185" cy="455" r="6"></circle>
      <circle cx="185" cy="555" r="6"></circle>
      <circle cx="185" cy="655" r="6"></circle>
      <circle cx="185" cy="755" r="6"></circle>
      <circle cx="185" cy="855" r="6"></circle>
      <circle cx="140" cy="942.5" r="6"></circle><circle cx="170" cy="942.5" r="6"></circle>

      <circle cx="240" cy="62.5" r="6"></circle><circle cx="270" cy="62.5" r="6"></circle>
      <circle cx="285" cy="155" r="6"></circle>
      <circle cx="285" cy="255" r="6"></circle>
      <circle cx="285" cy="355" r="6"></circle>
      <circle cx="285" cy="455" r="6"></circle>
      <circle cx="285" cy="555" r="6"></circle>
      <circle cx="285" cy="655" r="6"></circle>
      <circle cx="285" cy="755" r="6"></circle>
      <circle cx="285" cy="855" r="6"></circle>
      <circle cx="240" cy="942.5" r="6"></circle><circle cx="270" cy="942.5" r="6"></circle>

      <circle cx="340" cy="62.5" r="6"></circle><circle cx="370" cy="62.5" r="6"></circle>
      <circle cx="385" cy="155" r="6"></circle>
      <circle cx="385" cy="255" r="6"></circle>
      <circle cx="385" cy="355" r="6"></circle>
      <circle cx="385" cy="455" r="6"></circle>
      <circle cx="385" cy="555" r="6"></circle>
      <circle cx="385" cy="655" r="6"></circle>
      <circle cx="385" cy="755" r="6"></circle>
      <circle cx="385" cy="855" r="6"></circle>
      <circle cx="340" cy="942.5" r="6"></circle><circle cx="370" cy="942.5" r="6"></circle>

      <circle cx="440" cy="62.5" r="6"></circle><circle cx="470" cy="62.5" r="6"></circle>
      <circle cx="485" cy="155" r="6"></circle>
      <circle cx="485" cy="255" r="6"></circle>
      <circle cx="485" cy="355" r="6"></circle>
      <circle cx="485" cy="455" r="6"></circle>
      <circle cx="485" cy="555" r="6"></circle>
      <circle cx="485" cy="655" r="6"></circle>
      <circle cx="485" cy="755" r="6"></circle>
      <circle cx="485" cy="855" r="6"></circle>
      <circle cx="440" cy="942.5" r="6"></circle><circle cx="470" cy="942.5" r="6"></circle>

      <circle cx="540" cy="62.5" r="6"></circle><circle cx="570" cy="62.5" r="6"></circle>
      <circle cx="585" cy="155" r="6"></circle>
      <circle cx="585" cy="255" r="6"></circle>
      <circle cx="585" cy="355" r="6"></circle>
      <circle cx="585" cy="455" r="6"></circle>
      <circle cx="585" cy="555" r="6"></circle>
      <circle cx="585" cy="655" r="6"></circle>
      <circle cx="585" cy="755" r="6"></circle>
      <circle cx="585" cy="855" r="6"></circle>
      <circle cx="540" cy="942.5" r="6"></circle><circle cx="570" cy="942.5" r="6"></circle>

      <circle cx="640" cy="62.5" r="6"></circle><circle cx="670" cy="62.5" r="6"></circle>
      <circle cx="685" cy="155" r="6"></circle>
      <circle cx="685" cy="255" r="6"></circle>
      <circle cx="685" cy="355" r="6"></circle>
      <circle cx="685" cy="455" r="6"></circle>
      <circle cx="685" cy="555" r="6"></circle>
      <circle cx="685" cy="655" r="6"></circle>
      <circle cx="685" cy="755" r="6"></circle>
      <circle cx="685" cy="855" r="6"></circle>
      <circle cx="640" cy="942.5" r="6"></circle><circle cx="670" cy="942.5" r="6"></circle>

      <circle cx="740" cy="62.5" r="6"></circle><circle cx="770" cy="62.5" r="6"></circle>
      <circle cx="785" cy="155" r="6"></circle>
      <circle cx="785" cy="255" r="6"></circle>
      <circle cx="785" cy="355" r="6"></circle>
      <circle cx="785" cy="455" r="6"></circle>
      <circle cx="785" cy="555" r="6"></circle>
      <circle cx="785" cy="655" r="6"></circle>
      <circle cx="785" cy="755" r="6"></circle>
      <circle cx="785" cy="855" r="6"></circle>
      <circle cx="740" cy="942.5" r="6"></circle><circle cx="770" cy="942.5" r="6"></circle>

      <circle cx="840" cy="62.5" r="6"></circle><circle cx="870" cy="62.5" r="6"></circle>
      <circle cx="885" cy="155" r="6"></circle>
      <circle cx="885" cy="255" r="6"></circle>
      <circle cx="885" cy="355" r="6"></circle>
      <circle cx="885" cy="455" r="6"></circle>
      <circle cx="885" cy="555" r="6"></circle>
      <circle cx="885" cy="655" r="6"></circle>
      <circle cx="885" cy="755" r="6"></circle>
      <circle cx="885" cy="855" r="6"></circle>
      <circle cx="840" cy="942.5" r="6"></circle><circle cx="870" cy="942.5" r="6"></circle>
    </g>
    <g id="wires-trimpot-matrix-mixer" stroke-width="3">
      <g id="wires-upper" stroke="#F3F">
        <path d="m 140 62.5 l 0 883"></path><path d="m 170 62.5 l 0 883"></path>
        <path d="m 240 62.5 l 0 883"></path><path d="m 270 62.5 l 0 883"></path>
        <path d="m 340 62.5 l 0 883"></path><path d="m 370 62.5 l 0 883"></path>
        <path d="m 440 62.5 l 0 883"></path><path d="m 470 62.5 l 0 883"></path>
        <path d="m 540 62.5 l 0 883"></path><path d="m 570 62.5 l 0 883"></path>
        <path d="m 640 62.5 l 0 883"></path><path d="m 670 62.5 l 0 883"></path>
        <path d="m 740 62.5 l 0 883"></path><path d="m 770 62.5 l 0 883"></path>
        <path d="m 840 62.5 l 0 883"></path><path d="m 870 62.5 l 0 883"></path>
      </g>
      <g id="wires-lower" stroke="#3FF">
        <path d="m 62.5 140 l 880 0"></path><path d="m 62.5 170 l 880 0"></path>
        <path d="m 62.5 240 l 880 0"></path><path d="m 62.5 270 l 880 0"></path>
        <path d="m 62.5 340 l 880 0"></path><path d="m 62.5 370 l 880 0"></path>
        <path d="m 62.5 440 l 880 0"></path><path d="m 62.5 470 l 880 0"></path>
        <path d="m 62.5 540 l 880 0"></path><path d="m 62.5 570 l 880 0"></path>
        <path d="m 62.5 640 l 880 0"></path><path d="m 62.5 670 l 880 0"></path>
        <path d="m 62.5 740 l 880 0"></path><path d="m 62.5 770 l 880 0"></path>
        <path d="m 62.5 840 l 880 0"></path><path d="m 62.5 870 l 880 0"></path>
      </g>
    </g>
    <g id="parts-trimpot-matrix-mixer" stroke="#FED" stroke-width="3">
      <use href="#parts-trimpot-red" transform="translate(125, 125)"></use>
      <use href="#parts-trimpot-blu" transform="translate(225, 125)"></use>
      <use href="#parts-trimpot-red" transform="translate(325, 125)"></use>
      <use href="#parts-trimpot-blu" transform="translate(425, 125)"></use>
      <use href="#parts-trimpot-red" transform="translate(525, 125)"></use>
      <use href="#parts-trimpot-blu" transform="translate(625, 125)"></use>
      <use href="#parts-trimpot-red" transform="translate(725, 125)"></use>
      <use href="#parts-trimpot-blu" transform="translate(825, 125)"></use>

      <use href="#parts-trimpot-blu" transform="translate(125, 225)"></use>
      <use href="#parts-trimpot-red" transform="translate(225, 225)"></use>
      <use href="#parts-trimpot-blu" transform="translate(325, 225)"></use>
      <use href="#parts-trimpot-red" transform="translate(425, 225)"></use>
      <use href="#parts-trimpot-blu" transform="translate(525, 225)"></use>
      <use href="#parts-trimpot-red" transform="translate(625, 225)"></use>
      <use href="#parts-trimpot-blu" transform="translate(725, 225)"></use>
      <use href="#parts-trimpot-red" transform="translate(825, 225)"></use>

      <use href="#parts-trimpot-red" transform="translate(125, 325)"></use>
      <use href="#parts-trimpot-blu" transform="translate(225, 325)"></use>
      <use href="#parts-trimpot-red" transform="translate(325, 325)"></use>
      <use href="#parts-trimpot-blu" transform="translate(425, 325)"></use>
      <use href="#parts-trimpot-red" transform="translate(525, 325)"></use>
      <use href="#parts-trimpot-blu" transform="translate(625, 325)"></use>
      <use href="#parts-trimpot-red" transform="translate(725, 325)"></use>
      <use href="#parts-trimpot-blu" transform="translate(825, 325)"></use>

      <use href="#parts-trimpot-blu" transform="translate(125, 425)"></use>
      <use href="#parts-trimpot-red" transform="translate(225, 425)"></use>
      <use href="#parts-trimpot-blu" transform="translate(325, 425)"></use>
      <use href="#parts-trimpot-red" transform="translate(425, 425)"></use>
      <use href="#parts-trimpot-blu" transform="translate(525, 425)"></use>
      <use href="#parts-trimpot-red" transform="translate(625, 425)"></use>
      <use href="#parts-trimpot-blu" transform="translate(725, 425)"></use>
      <use href="#parts-trimpot-red" transform="translate(825, 425)"></use>

      <use href="#parts-trimpot-red" transform="translate(125, 525)"></use>
      <use href="#parts-trimpot-blu" transform="translate(225, 525)"></use>
      <use href="#parts-trimpot-red" transform="translate(325, 525)"></use>
      <use href="#parts-trimpot-blu" transform="translate(425, 525)"></use>
      <use href="#parts-trimpot-red" transform="translate(525, 525)"></use>
      <use href="#parts-trimpot-blu" transform="translate(625, 525)"></use>
      <use href="#parts-trimpot-red" transform="translate(725, 525)"></use>
      <use href="#parts-trimpot-blu" transform="translate(825, 525)"></use>

      <use href="#parts-trimpot-blu" transform="translate(125, 625)"></use>
      <use href="#parts-trimpot-red" transform="translate(225, 625)"></use>
      <use href="#parts-trimpot-blu" transform="translate(325, 625)"></use>
      <use href="#parts-trimpot-red" transform="translate(425, 625)"></use>
      <use href="#parts-trimpot-blu" transform="translate(525, 625)"></use>
      <use href="#parts-trimpot-red" transform="translate(625, 625)"></use>
      <use href="#parts-trimpot-blu" transform="translate(725, 625)"></use>
      <use href="#parts-trimpot-red" transform="translate(825, 625)"></use>

      <use href="#parts-trimpot-red" transform="translate(125, 725)"></use>
      <use href="#parts-trimpot-blu" transform="translate(225, 725)"></use>
      <use href="#parts-trimpot-red" transform="translate(325, 725)"></use>
      <use href="#parts-trimpot-blu" transform="translate(425, 725)"></use>
      <use href="#parts-trimpot-red" transform="translate(525, 725)"></use>
      <use href="#parts-trimpot-blu" transform="translate(625, 725)"></use>
      <use href="#parts-trimpot-red" transform="translate(725, 725)"></use>
      <use href="#parts-trimpot-blu" transform="translate(825, 725)"></use>

      <use href="#parts-trimpot-blu" transform="translate(125, 825)"></use>
      <use href="#parts-trimpot-red" transform="translate(225, 825)"></use>
      <use href="#parts-trimpot-blu" transform="translate(325, 825)"></use>
      <use href="#parts-trimpot-red" transform="translate(425, 825)"></use>
      <use href="#parts-trimpot-blu" transform="translate(525, 825)"></use>
      <use href="#parts-trimpot-red" transform="translate(625, 825)"></use>
      <use href="#parts-trimpot-blu" transform="translate(725, 825)"></use>
      <use href="#parts-trimpot-red" transform="translate(825, 825)"></use>
    </g>
  </g>
</g>
<defs>
  <g id="parts-trimpot-red">
    <rect width="60" height="60" fill="#F06" stroke="#FFF"></rect>
    <circle cx="30" cy="30" r="15" fill="#FFF" stroke="#FFF"></circle>
    <rect x="20" y="27.5" width="20" height="5" fill="#777" stroke="none"></rect>
    <rect x="27.5" y="20" width="5" height="20" fill="#777" stroke="none"></rect>
  </g>
  <g id="parts-trimpot-blu">
    <rect width="60" height="60" fill="#0AF" stroke="#FFF"></rect>
    <circle cx="30" cy="30" r="15" fill="#FFF" stroke="#FFF"></circle>
    <rect x="20" y="27.5" width="20" height="5" fill="#777" stroke="none"></rect>
    <rect x="27.5" y="20" width="5" height="20" fill="#777" stroke="none"></rect>
  </g>
</defs>
</svg>