<svg xmlns="http://www.w3.org/2000/svg" style="color-scheme: dark; background: black; width: 10000px; height: 10000px; overflow: scroll; user-select: none; ">
<title>Pirial Circuitry Componentry Matrix</title>
<g mod="pirial" id="circuitry" addendum="matrix" font-size="18pt" fill="none" stroke="none" stroke-linejoin="round" stroke-linecap="round" font-family="Permanent Marker" font-weight="bold" transform="scale(0.8)">
  <text id="title" x="550" y="70" text-anchor="middle" font-size="40pt" fill="#FFF">Pirial Circuitry Componentry Matrix</text>
  <g id="tile-componentry-matrix" transform="translate(50, 100)">
    <rect fill="#111" stroke="#333" width="1000" height="1000"></rect>
    <text id="label-componentry-matrix" fill="#FFF" x="500" y="30" text-anchor="middle">Componentry Matrix</text>
    <text id="emoji-componentry-matrix" fill="#FFF" x="996" y="985" text-anchor="end">⚠️</text>
    <text id="text-componentry-matrix" fill="#FFF" text-anchor="end" font-size="10pt">
      <tspan x="180" y="200">Componentry</tspan>
      <tspan x="180" y="220">Componentry</tspan>
      <tspan x="180" y="240">Componentry</tspan>
      <tspan x="180" y="260">Componentry</tspan>
      <tspan x="180" y="280">Componentry</tspan>
      <tspan x="180" y="300">Componentry</tspan>
      <tspan x="180" y="320">Componentry</tspan>
      <tspan x="180" y="340">Componentry</tspan>
      <tspan x="180" y="360">Componentry</tspan>
      <tspan x="180" y="380">Componentry</tspan>
      <tspan x="180" y="400">Componentry</tspan>
      <tspan x="180" y="420">Componentry</tspan>
      <tspan x="180" y="440">Componentry</tspan>
      <tspan x="180" y="460">Componentry</tspan>
      <tspan x="180" y="480">Componentry</tspan>
      <tspan x="180" y="500">Componentry</tspan>
      <tspan x="180" y="520">Componentry</tspan>
      <tspan x="180" y="540">Componentry</tspan>
      <tspan x="180" y="560">Componentry</tspan>
      <tspan x="180" y="580">Componentry</tspan>
      <tspan x="180" y="600">Componentry</tspan>
      <tspan x="180" y="620">Componentry</tspan>
      <tspan x="180" y="640">Componentry</tspan>
      <tspan x="180" y="660">Componentry</tspan>
      <tspan x="180" y="680">Componentry</tspan>
      <tspan x="180" y="700">Componentry</tspan>
      <tspan x="180" y="720">Componentry</tspan>
      <tspan x="180" y="740">Componentry</tspan>
      <tspan x="180" y="760">Componentry</tspan>
      <tspan x="180" y="780">Componentry</tspan>
      <tspan x="180" y="800">Componentry</tspan>
      <tspan x="180" y="820">Componentry</tspan>
      <tspan x="180" y="840">Componentry</tspan>
      <tspan x="180" y="860">Componentry</tspan>
      <tspan x="180" y="880">Componentry</tspan>
      <tspan x="180" y="900">Componentry</tspan>
      <tspan x="180" y="920">Componentry</tspan>
      <tspan x="180" y="940">_</tspan>
    </text>
    <use href="#text-componentry-matrix" transform="translate(0, 270) rotate(-90, 0, 0)"></use>
    <g id="memo-componentry-matrix" transform="translate(1050, 50)">
      <path d="m 0 0 l 1000 0 l 0 850 l -50 50 l -950 0 z" fill="#FFB" stroke="#FFB" stroke-width="15"></path>
      <text fill="#000" font-size="15pt" font-weight="bold" font-family="consolas">
        <tspan x="10" y="035" fill="#07F" font-size="30pt">__Complimentary_Metal-Oxide_Notepad__</tspan>
        <tspan x="10" y="070">### : ComponentryX x ComponentryY : Something Something Something Diode</tspan>
        <tspan x="10" y="090">__1 : Variable x Resistor : Varistor</tspan>
        <tspan x="10" y="110">__2 : Variable x Capacitor : Varacitor</tspan>
        <tspan x="10" y="130">__3 : Variable x Inductor : Varductor</tspan>
        <tspan x="10" y="150">__4 : Variable x Transactor : Varactor</tspan>
        <tspan x="10" y="170">__5 : Variable x Diode : Variode</tspan>
        <tspan x="10" y="190">__6 : Variable x Buffer : Varibuffer</tspan>
        <tspan x="10" y="210">__7 : Variable x Sequencer : Varisequencer</tspan>
        <tspan x="10" y="230">__8 : Variable x Ladder : Variladder</tspan>
        <tspan x="10" y="250"></tspan>
        <tspan x="10" y="270"></tspan>
        <tspan x="10" y="290"></tspan>
        <tspan x="10" y="310"></tspan>
        <tspan x="10" y="330"></tspan>
        <tspan x="10" y="350"></tspan>
        <tspan x="10" y="370"></tspan>
        <tspan x="10" y="390"></tspan>
        <tspan x="10" y="410"></tspan>
        <tspan x="10" y="430"></tspan>
        <tspan x="10" y="450"></tspan>
        <tspan x="10" y="470"></tspan>
        <tspan x="10" y="490"></tspan>
        <tspan x="10" y="510"></tspan>
        <tspan x="10" y="530"></tspan>
        <tspan x="10" y="550"></tspan>
        <tspan x="10" y="570"></tspan>
        <tspan x="10" y="590"></tspan>
        <tspan x="10" y="610"></tspan>
        <tspan x="10" y="630"></tspan>
        <tspan x="10" y="650"></tspan>
        <tspan x="10" y="670"></tspan>
        <tspan x="10" y="690"></tspan>
        <tspan x="10" y="710"></tspan>
        <tspan x="10" y="730"></tspan>
        <tspan x="10" y="750"></tspan>
        <tspan x="10" y="770"></tspan>
        <tspan x="10" y="790"></tspan>
        <tspan x="10" y="810"></tspan>
        <tspan x="10" y="830"></tspan>
        <tspan x="10" y="850"></tspan>
        <tspan x="10" y="870"></tspan>
        <tspan x="10" y="890"></tspan>
      </text>
    </g>
    <g id="intersect-componentry-matrix" stroke="#77C" stroke-width="1" font-size="15pt" font-family="sans-serif" font-weight="normal">
      <g transform="translate(200, 200)"><text x="15" y="25">1</text><path d="m 0 0 l 10 10 m -10 0 l 10 -10" stroke-width="5"></path></g>
      <g transform="translate(300, 300)"><text x="15" y="25">2</text><path d="m 0 0 l 10 10 m -10 0 l 10 -10" stroke-width="5"></path></g>
      <g transform="translate(400, 400)"><text x="15" y="25">3</text><path d="m 0 0 l 10 10 m -10 0 l 10 -10" stroke-width="5"></path></g>
      <g transform="translate(500, 500)"><text x="15" y="25">4</text><path d="m 0 0 l 10 10 m -10 0 l 10 -10" stroke-width="5"></path></g>
      <g transform="translate(600, 600)"><text x="15" y="25">5</text><path d="m 0 0 l 10 10 m -10 0 l 10 -10" stroke-width="5"></path></g>
      <g transform="translate(700, 700)"><text x="15" y="25">6</text><path d="m 0 0 l 10 10 m -10 0 l 10 -10" stroke-width="5"></path></g>
      <g transform="translate(800, 800)"><text x="15" y="25">7</text><path d="m 0 0 l 10 10 m -10 0 l 10 -10" stroke-width="5"></path></g>
      <g transform="translate(900, 900)"><text x="15" y="25">8</text><path d="m 0 0 l 10 10 m -10 0 l 10 -10" stroke-width="5"></path></g>
    </g>
    <g id="scrub-componentry-matrix" stroke="#777" stroke-width="5">
      <circle cx="50" cy="50" r="6"></circle><circle cx="50" cy="950" r="6"></circle>
      <circle cx="950" cy="50" r="6"></circle><circle cx="950" cy="950" r="6"></circle>
    </g>
    <g id="wires-componentry-matrix" stroke-width="3">
      <g id="wires-upper" stroke="#F3F"><path d="m 50 50 l 0 900"></path><path d="m 950 50 l 0 900"></path></g>
      <g id="wires-lower" stroke="#3FF"><path d="m 50 50 l 900 0"></path><path d="m 50 950 l 900 0"></path></g>
    </g>
  </g>
</g>
</svg>