# Blender v2.93.5 OBJ File: 'TrimPot.blend'
# www.blender.org
mtllib TrimPot.mtl
o Cube
v 1.000000 1.000000 -1.000000
v 1.000000 0.000000 -1.000000
v 1.000000 1.000000 1.000000
v 1.000000 0.000000 1.000000
v -1.000000 1.000000 -1.000000
v -1.000000 0.000000 -1.000000
v -1.000000 1.000000 1.000000
v -1.000000 0.000000 1.000000
v 0.000000 0.100000 -0.500000
v 0.097545 0.100000 -0.490393
v 0.191342 0.100000 -0.461940
v 0.277785 0.100000 -0.415735
v 0.353553 0.100000 -0.353553
v 0.415735 0.100000 -0.277785
v 0.461940 0.100000 -0.191342
v 0.490393 0.100000 -0.097545
v 0.500000 0.100000 0.000000
v 0.490393 0.100000 0.097545
v 0.461940 0.100000 0.191342
v 0.415735 0.100000 0.277785
v 0.353553 0.100000 0.353553
v 0.277785 0.100000 0.415735
v 0.191342 0.100000 0.461940
v 0.097545 0.100000 0.490393
v -0.000000 0.100000 0.500000
v -0.097545 0.100000 0.490393
v -0.191342 0.100000 0.461940
v -0.277785 0.100000 0.415735
v -0.353553 0.100000 0.353553
v -0.415735 0.100000 0.277785
v -0.461940 0.100000 0.191342
v -0.490393 0.100000 0.097545
v -0.500000 0.100000 -0.000000
v -0.490393 0.100000 -0.097545
v -0.461940 0.100000 -0.191342
v -0.415735 0.100000 -0.277785
v -0.353553 0.100000 -0.353553
v -0.277785 0.100000 -0.415735
v -0.191342 0.100000 -0.461940
v -0.097545 0.100000 -0.490393
v -0.000000 1.000000 0.500000
v -0.097545 1.000000 0.490393
v -0.500000 1.000000 -0.000000
v -0.490393 1.000000 -0.097545
v -0.490393 1.000000 0.097545
v -0.191342 1.000000 0.461940
v -0.415735 1.000000 0.277785
v -0.415735 1.000000 -0.277785
v -0.461940 1.000000 0.191342
v -0.461940 1.000000 -0.191342
v -0.353553 1.000000 -0.353553
v -0.277785 1.000000 -0.415735
v -0.097545 1.000000 -0.490393
v -0.191342 1.000000 -0.461940
v 0.097545 1.000000 -0.490393
v 0.353553 1.000000 -0.353553
v 0.277785 1.000000 -0.415735
v -0.277785 1.000000 0.415735
v 0.191342 1.000000 -0.461940
v 0.000000 1.000000 -0.500000
v -0.353553 1.000000 0.353553
v 0.277785 1.000000 0.415735
v 0.191342 1.000000 0.461940
v 0.097545 1.000000 0.490393
v 0.415735 1.000000 0.277785
v 0.415735 1.000000 -0.277785
v 0.500000 1.000000 0.000000
v 0.461940 1.000000 0.191342
v 0.490393 1.000000 0.097545
v 0.490393 1.000000 -0.097545
v 0.353553 1.000000 0.353553
v 0.461940 1.000000 -0.191342
vt 0.794194 0.580806
vt 0.875000 0.500000
vt 0.875000 0.750000
vt 0.625000 0.750000
vt 0.705806 0.669194
vt 0.715277 0.676967
vt 0.726082 0.682742
vt 0.737807 0.686299
vt 0.750000 0.687500
vt 0.762193 0.686299
vt 0.773918 0.682742
vt 0.784723 0.676967
vt 0.794194 0.669194
vt 0.801967 0.659723
vt 0.807742 0.648918
vt 0.811299 0.637193
vt 0.812500 0.625000
vt 0.811299 0.612807
vt 0.807743 0.601082
vt 0.801967 0.590277
vt 0.625000 0.500000
vt 0.784723 0.573033
vt 0.773918 0.567258
vt 0.762193 0.563701
vt 0.750000 0.562500
vt 0.737807 0.563701
vt 0.726082 0.567258
vt 0.715277 0.573033
vt 0.705806 0.580806
vt 0.698033 0.590277
vt 0.692258 0.601082
vt 0.688701 0.612807
vt 0.687500 0.625000
vt 0.688701 0.637193
vt 0.692258 0.648918
vt 0.698033 0.659723
vt 0.375000 0.750000
vt 0.625000 1.000000
vt 0.375000 1.000000
vt 0.375000 0.000000
vt 0.625000 0.000000
vt 0.625000 0.250000
vt 0.375000 0.250000
vt 0.125000 0.500000
vt 0.375000 0.500000
vt 0.125000 0.750000
vt 0.703178 0.014612
vt 0.750000 0.010000
vt 0.796822 0.014612
vt 0.841844 0.028269
vt 0.883337 0.050447
vt 0.919706 0.080294
vt 0.949553 0.116663
vt 0.971731 0.158156
vt 0.985388 0.203178
vt 0.990000 0.250000
vt 0.985388 0.296822
vt 0.971731 0.341844
vt 0.949553 0.383337
vt 0.919706 0.419706
vt 0.883337 0.449553
vt 0.841844 0.471731
vt 0.796822 0.485388
vt 0.750000 0.490000
vt 0.703178 0.485388
vt 0.658156 0.471731
vt 0.616663 0.449553
vt 0.580294 0.419706
vt 0.550447 0.383337
vt 0.528269 0.341844
vt 0.514612 0.296822
vt 0.510000 0.250000
vt 0.514612 0.203178
vt 0.528269 0.158156
vt 0.550447 0.116663
vt 0.580294 0.080294
vt 0.616663 0.050447
vt 0.658156 0.028269
vt 1.000000 0.950000
vt 1.000000 0.500000
vt 0.968750 0.500000
vt 0.968750 0.950000
vt 0.937500 0.500000
vt 0.937500 0.950000
vt 0.906250 0.500000
vt 0.906250 0.950000
vt 0.875000 0.500000
vt 0.875000 0.950000
vt 0.843750 0.500000
vt 0.843750 0.950000
vt 0.812500 0.500000
vt 0.812500 0.950000
vt 0.781250 0.500000
vt 0.781250 0.950000
vt 0.750000 0.500000
vt 0.750000 0.950000
vt 0.718750 0.500000
vt 0.718750 0.950000
vt 0.687500 0.500000
vt 0.687500 0.950000
vt 0.656250 0.500000
vt 0.656250 0.950000
vt 0.625000 0.500000
vt 0.625000 0.950000
vt 0.593750 0.500000
vt 0.593750 0.950000
vt 0.562500 0.500000
vt 0.562500 0.950000
vt 0.531250 0.500000
vt 0.531250 0.950000
vt 0.500000 0.500000
vt 0.500000 0.950000
vt 0.468750 0.500000
vt 0.468750 0.950000
vt 0.437500 0.500000
vt 0.437500 0.950000
vt 0.406250 0.500000
vt 0.406250 0.950000
vt 0.375000 0.500000
vt 0.375000 0.950000
vt 0.343750 0.500000
vt 0.343750 0.950000
vt 0.312500 0.500000
vt 0.312500 0.950000
vt 0.281250 0.500000
vt 0.281250 0.950000
vt 0.250000 0.500000
vt 0.250000 0.950000
vt 0.218750 0.500000
vt 0.218750 0.950000
vt 0.187500 0.500000
vt 0.187500 0.950000
vt 0.156250 0.500000
vt 0.156250 0.950000
vt 0.125000 0.500000
vt 0.125000 0.950000
vt 0.093750 0.500000
vt 0.093750 0.950000
vt 0.093750 0.950000
vt 0.062500 0.500000
vt 0.062500 0.950000
vt 0.031250 0.500000
vt 0.031250 0.950000
vt 0.000000 0.500000
vt 0.000000 0.950000
vn 0.0000 1.0000 0.0000
vn 0.0000 0.0000 1.0000
vn -1.0000 0.0000 0.0000
vn 0.0000 -1.0000 0.0000
vn 1.0000 0.0000 0.0000
vn 0.0000 0.0000 -1.0000
vn 0.0000 0.6857 0.7279
vn -0.1420 0.6857 0.7139
vn -0.2785 0.6857 0.6725
vn -0.4044 0.6857 0.6052
vn -0.5147 0.6857 0.5147
vn -0.6052 0.6857 0.4044
vn -0.6725 0.6857 0.2785
vn -0.7139 0.6857 0.1420
vn -0.7279 0.6857 0.0000
vn -0.7139 0.6857 -0.1420
vn -0.6725 0.6857 -0.2785
vn -0.6052 0.6857 -0.4044
vn -0.5147 0.6857 -0.5147
vn -0.4834 0.7298 -0.4834
vn -0.4044 0.6857 -0.6052
vn -0.2785 0.6857 -0.6725
vn -0.1420 0.6857 -0.7139
vn 0.0000 0.6857 -0.7279
vn 0.1420 0.6857 -0.7139
vn 0.2785 0.6857 -0.6725
vn 0.4044 0.6857 -0.6052
vn 0.5147 0.6857 -0.5147
vn 0.6052 0.6857 -0.4044
vn 0.6725 0.6857 -0.2785
vn 0.7139 0.6857 -0.1420
vn 0.7279 0.6857 0.0000
vn 0.7139 0.6857 0.1420
vn 0.6725 0.6857 0.2785
vn 0.6052 0.6857 0.4044
vn 0.5147 0.6857 0.5147
vn 0.4834 0.7298 0.4834
vn 0.4044 0.6857 0.6052
vn 0.2785 0.6857 0.6725
vn 0.1420 0.6857 0.7139
usemtl Material
s off
f 51/1/1 5/2/1 7/3/1 3/4/1 71/5/1 62/6/1 63/7/1 64/8/1 41/9/1 42/10/1 46/11/1 58/12/1 61/13/1 47/14/1 49/15/1 45/16/1 43/17/1 44/18/1 50/19/1 48/20/1
f 71/5/1 3/4/1 1/21/1 5/2/1 51/1/1 52/22/1 54/23/1 53/24/1 60/25/1 55/26/1 59/27/1 57/28/1 56/29/1 66/30/1 72/31/1 70/32/1 67/33/1 69/34/1 68/35/1 65/36/1
f 4/37/2 3/4/2 7/38/2 8/39/2
f 8/40/3 7/41/3 5/42/3 6/43/3
f 6/44/4 2/45/4 4/37/4 8/46/4
f 2/45/5 1/21/5 3/4/5 4/37/5
f 6/43/6 5/42/6 1/21/6 2/45/6
f 26/47/1 25/48/1 24/49/1 23/50/1 22/51/1 21/52/1 20/53/1 19/54/1 18/55/1 17/56/1 16/57/1 15/58/1 14/59/1 13/60/1 12/61/1 11/62/1 10/63/1 9/64/1 40/65/1 39/66/1 38/67/1 37/68/1 36/69/1 35/70/1 34/71/1 33/72/1 32/73/1 31/74/1 30/75/1 29/76/1 28/77/1 27/78/1
s 1
f 60/79/7 9/80/7 10/81/8 55/82/8
f 55/82/8 10/81/8 11/83/9 59/84/9
f 59/84/9 11/83/9 12/85/10 57/86/10
f 57/86/10 12/85/10 13/87/11 56/88/11
f 13/87/11 14/89/12 66/90/12 56/88/11
f 14/89/12 15/91/13 72/92/13 66/90/12
f 15/91/13 16/93/14 70/94/14 72/92/13
f 16/93/14 17/95/15 67/96/15 70/94/14
f 17/95/15 18/97/16 69/98/16 67/96/15
f 18/97/16 19/99/17 68/100/17 69/98/16
f 19/99/17 20/101/18 65/102/18 68/100/17
f 20/101/18 21/103/19 71/104/20 65/102/18
f 21/103/19 22/105/21 62/106/21 71/104/20
f 22/105/21 23/107/22 63/108/22 62/106/21
f 23/107/22 24/109/23 64/110/23 63/108/22
f 24/109/23 25/111/24 41/112/24 64/110/23
f 25/111/24 26/113/25 42/114/25 41/112/24
f 26/113/25 27/115/26 46/116/26 42/114/25
f 27/115/26 28/117/27 58/118/27 46/116/26
f 28/117/27 29/119/28 61/120/28 58/118/27
f 61/120/28 29/119/28 30/121/29 47/122/29
f 47/122/29 30/121/29 31/123/30 49/124/30
f 49/124/30 31/123/30 32/125/31 45/126/31
f 45/126/31 32/125/31 33/127/32 43/128/32
f 43/128/32 33/127/32 34/129/33 44/130/33
f 44/130/33 34/129/33 35/131/34 50/132/34
f 50/132/34 35/131/34 36/133/35 48/134/35
f 48/134/35 36/133/35 37/135/36 51/136/37
f 51/136/37 37/135/36 38/137/38 52/138/38
f 52/139/38 38/137/38 39/140/39 54/141/39
f 54/141/39 39/140/39 40/142/40 53/143/40
f 53/143/40 40/142/40 9/144/7 60/145/7
o Cylinder
v 0.000000 0.100000 -0.500000
v 0.000000 1.100000 -0.500000
v 0.097545 0.100000 -0.490393
v 0.097545 1.100000 -0.490393
v 0.191342 0.100000 -0.461940
v 0.191342 1.100000 -0.461940
v 0.277785 0.100000 -0.415735
v 0.277785 1.100000 -0.415735
v 0.353553 0.100000 -0.353553
v 0.353553 1.100000 -0.353553
v 0.415735 0.100000 -0.277785
v 0.415735 1.100000 -0.277785
v 0.461940 0.100000 -0.191342
v 0.461940 1.100000 -0.191342
v 0.490393 0.100000 -0.097545
v 0.490393 1.100000 -0.097545
v 0.500000 0.100000 0.000000
v 0.500000 1.100000 0.000000
v 0.490393 0.100000 0.097545
v 0.490393 1.100000 0.097545
v 0.461940 0.100000 0.191342
v 0.461940 1.100000 0.191342
v 0.415735 0.100000 0.277785
v 0.415735 1.100000 0.277785
v 0.353553 0.100000 0.353553
v 0.353553 1.100000 0.353553
v 0.277785 0.100000 0.415735
v 0.277785 1.100000 0.415735
v 0.191342 0.100000 0.461940
v 0.191342 1.100000 0.461940
v 0.097545 0.100000 0.490393
v 0.097545 1.100000 0.490393
v -0.000000 0.100000 0.500000
v -0.000000 1.100000 0.500000
v -0.097545 0.100000 0.490393
v -0.097545 1.100000 0.490393
v -0.191342 0.100000 0.461940
v -0.191342 1.100000 0.461940
v -0.277785 0.100000 0.415735
v -0.277785 1.100000 0.415735
v -0.353553 0.100000 0.353553
v -0.353553 1.100000 0.353553
v -0.415735 0.100000 0.277785
v -0.415735 1.100000 0.277785
v -0.461940 0.100000 0.191342
v -0.461940 1.100000 0.191342
v -0.490393 0.100000 0.097545
v -0.490393 1.100000 0.097545
v -0.500000 0.100000 -0.000000
v -0.500000 1.100000 -0.000000
v -0.490393 0.100000 -0.097545
v -0.490393 1.100000 -0.097545
v -0.461940 0.100000 -0.191342
v -0.461940 1.100000 -0.191342
v -0.415735 0.100000 -0.277785
v -0.415735 1.100000 -0.277785
v -0.353553 0.100000 -0.353553
v -0.353553 1.100000 -0.353553
v -0.277785 0.100000 -0.415735
v -0.277785 1.100000 -0.415735
v -0.191342 0.100000 -0.461940
v -0.191342 1.100000 -0.461940
v -0.097545 0.100000 -0.490393
v -0.097545 1.100000 -0.490393
v 0.350000 0.200000 -0.100000
v 0.350000 0.200000 0.100000
v -0.350000 0.200000 -0.100000
v -0.350000 0.200000 0.100000
v 0.350000 1.100000 -0.100000
v 0.350000 1.100000 0.100000
v -0.350000 1.100000 0.100000
v -0.350000 1.100000 -0.100000
v -0.100000 0.200000 -0.350000
v 0.100000 0.200000 -0.350000
v -0.100000 0.200000 0.350000
v 0.100000 0.200000 0.350000
v -0.100000 1.100000 0.100000
v -0.100000 1.100000 0.350000
v 0.100000 1.100000 0.100000
v 0.100000 1.100000 0.350000
v -0.100000 1.100000 -0.100000
v -0.100000 1.100000 -0.350000
v 0.100000 1.100000 -0.350000
v 0.100000 1.100000 -0.100000
v -0.100000 0.200000 0.100000
v 0.100000 0.200000 0.100000
v -0.100000 0.200000 -0.100000
v 0.100000 0.200000 -0.100000
v 0.028571 0.200000 -0.100000
v 0.100000 0.200000 0.028571
v 0.000000 0.200000 0.000000
vt 0.014612 0.203178
vt 0.028269 0.158156
vt 0.050447 0.116663
vt 0.080294 0.080294
vt 0.116663 0.050447
vt 0.158156 0.028269
vt 0.203178 0.014612
vt 0.250000 0.010000
vt 0.296822 0.014612
vt 0.341844 0.028269
vt 0.383337 0.050447
vt 0.419706 0.080294
vt 0.449553 0.116663
vt 0.471731 0.158156
vt 0.485388 0.203178
vt 0.418000 0.202000
vt 0.298000 0.202000
vt 0.298000 0.082000
vt 0.202000 0.082000
vt 0.202000 0.202000
vt 0.082000 0.202000
vt 0.490000 0.250000
vt 0.485388 0.296822
vt 0.471731 0.341844
vt 0.449553 0.383337
vt 0.419706 0.419706
vt 0.383337 0.449553
vt 0.341844 0.471731
vt 0.296822 0.485388
vt 0.250000 0.490000
vt 0.203178 0.485388
vt 0.158156 0.471731
vt 0.116663 0.449553
vt 0.080294 0.419706
vt 0.050447 0.383337
vt 0.028269 0.341844
vt 0.014612 0.296822
vt 0.010000 0.250000
vt 0.082000 0.298000
vt 0.202000 0.298000
vt 0.202000 0.418000
vt 0.298000 0.418000
vt 0.298000 0.298000
vt 0.418000 0.298000
vt 0.796822 0.485388
vt 0.841844 0.471731
vt 0.883337 0.449553
vt 0.919706 0.419706
vt 0.949553 0.383337
vt 0.971731 0.341844
vt 0.985388 0.296822
vt 0.990000 0.250000
vt 0.985388 0.203178
vt 0.971731 0.158156
vt 0.949553 0.116663
vt 0.919706 0.080294
vt 0.883337 0.050447
vt 0.841844 0.028269
vt 0.796822 0.014612
vt 0.750000 0.010000
vt 0.703178 0.014612
vt 0.658156 0.028269
vt 0.616663 0.050447
vt 0.580294 0.080294
vt 0.550447 0.116663
vt 0.528269 0.158156
vt 0.514612 0.203178
vt 0.510000 0.250000
vt 0.514612 0.296822
vt 0.528269 0.341844
vt 0.550447 0.383337
vt 0.580294 0.419706
vt 0.616663 0.449553
vt 0.658156 0.471731
vt 0.703178 0.485388
vt 0.750000 0.490000
vt 0.375000 0.910714
vt 0.375000 1.000000
vt 0.600000 1.000000
vt 0.600000 0.910714
vt 0.600000 0.839286
vt 0.600000 0.750000
vt 0.375000 0.750000
vt 0.375000 0.839286
vt 0.600000 0.000000
vt 0.375000 0.000000
vt 0.375000 0.250000
vt 0.600000 0.250000
vt 0.285714 0.660714
vt 0.285714 0.750000
vt 0.375000 0.500000
vt 0.285714 0.500000
vt 0.214286 0.500000
vt 0.125000 0.500000
vt 0.125000 0.750000
vt 0.214286 0.750000
vt 0.260204 0.500000
vt 0.250000 0.625000
vt 0.600000 0.500000
vt 0.600000 0.410714
vt 0.375000 0.410714
vt 0.600000 0.339286
vt 0.375000 0.339286
vt 0.600000 0.750000
vt 0.600000 0.750000
vt 0.375000 1.000000
vt 0.375000 1.000000
vt 0.375000 1.000000
vt 0.375000 1.000000
vt 0.600000 0.750000
vt 0.600000 0.750000
vt 0.375000 0.250000
vt 0.375000 0.250000
vt 0.600000 0.000000
vt 0.600000 0.000000
vt 0.214286 0.500000
vt 0.125000 0.500000
vt 0.125000 0.750000
vt 0.214286 0.750000
vt 0.285714 0.750000
vt 0.375000 0.750000
vt 0.375000 0.500000
vt 0.285714 0.500000
vt 0.285714 0.660714
vt 0.600000 0.500000
vt 0.375000 0.750000
vt 0.600000 0.500000
vt 0.600000 0.250000
vt 0.375000 0.500000
vt 0.375000 0.500000
vt 0.600000 0.250000
vt 0.600000 0.250000
vt 0.600000 0.250000
vt 0.375000 0.500000
vt 1.000000 0.500000
vt 1.000000 1.000000
vt 0.968750 1.000000
vt 0.968750 0.500000
vt 0.937500 1.000000
vt 0.937500 0.500000
vt 0.906250 1.000000
vt 0.906250 0.500000
vt 0.875000 1.000000
vt 0.875000 0.500000
vt 0.843750 1.000000
vt 0.843750 0.500000
vt 0.812500 1.000000
vt 0.812500 0.500000
vt 0.781250 1.000000
vt 0.781250 0.500000
vt 0.750000 1.000000
vt 0.750000 0.500000
vt 0.718750 1.000000
vt 0.718750 0.500000
vt 0.687500 1.000000
vt 0.687500 0.500000
vt 0.656250 1.000000
vt 0.656250 0.500000
vt 0.625000 1.000000
vt 0.625000 0.500000
vt 0.593750 1.000000
vt 0.593750 0.500000
vt 0.562500 1.000000
vt 0.562500 0.500000
vt 0.531250 1.000000
vt 0.531250 0.500000
vt 0.500000 1.000000
vt 0.500000 0.500000
vt 0.468750 1.000000
vt 0.468750 0.500000
vt 0.437500 1.000000
vt 0.437500 0.500000
vt 0.406250 1.000000
vt 0.406250 0.500000
vt 0.375000 1.000000
vt 0.375000 0.500000
vt 0.343750 1.000000
vt 0.343750 0.500000
vt 0.312500 1.000000
vt 0.312500 0.500000
vt 0.281250 1.000000
vt 0.281250 0.500000
vt 0.250000 1.000000
vt 0.250000 0.500000
vt 0.218750 1.000000
vt 0.218750 0.500000
vt 0.187500 1.000000
vt 0.187500 0.500000
vt 0.156250 1.000000
vt 0.156250 0.500000
vt 0.125000 1.000000
vt 0.125000 0.500000
vt 0.093750 1.000000
vt 0.093750 0.500000
vt 0.062500 1.000000
vt 0.062500 0.500000
vt 0.031250 1.000000
vt 0.031250 0.500000
vt 0.000000 1.000000
vt 0.000000 0.500000
vn 0.0000 1.0000 -0.0000
vn 0.0000 -1.0000 -0.0000
vn 0.0000 0.0000 -1.0000
vn 1.0000 0.0000 0.0000
vn -1.0000 0.0000 0.0000
vn 0.0000 0.0000 1.0000
vn 0.0000 -0.6857 -0.7279
vn 0.0000 0.6857 -0.7279
vn 0.1420 0.6857 -0.7139
vn 0.1420 -0.6857 -0.7139
vn 0.2785 0.6857 -0.6725
vn 0.2785 -0.6857 -0.6725
vn 0.4044 0.6857 -0.6052
vn 0.4044 -0.6857 -0.6052
vn 0.5147 0.6857 -0.5147
vn 0.5147 -0.6857 -0.5147
vn 0.6052 0.6857 -0.4044
vn 0.6052 -0.6857 -0.4044
vn 0.6725 0.6857 -0.2785
vn 0.6725 -0.6857 -0.2785
vn 0.7139 0.6857 -0.1420
vn 0.7139 -0.6857 -0.1420
vn 0.7279 0.6857 0.0000
vn 0.7279 -0.6857 0.0000
vn 0.7139 0.6857 0.1420
vn 0.7139 -0.6857 0.1420
vn 0.6725 0.6857 0.2785
vn 0.6725 -0.6857 0.2785
vn 0.6052 0.6857 0.4044
vn 0.6052 -0.6857 0.4044
vn 0.5147 0.6857 0.5147
vn 0.5147 -0.6857 0.5147
vn 0.4044 0.6857 0.6052
vn 0.4044 -0.6857 0.6052
vn 0.2785 0.6857 0.6725
vn 0.2785 -0.6857 0.6725
vn 0.1420 0.6857 0.7139
vn 0.1420 -0.6857 0.7139
vn 0.0000 0.6857 0.7279
vn 0.0000 -0.6857 0.7279
vn -0.1420 0.6857 0.7139
vn -0.1420 -0.6857 0.7139
vn -0.2785 0.6857 0.6725
vn -0.2785 -0.6857 0.6725
vn -0.4044 0.6857 0.6052
vn -0.4044 -0.6857 0.6052
vn -0.5147 0.6857 0.5147
vn -0.5147 -0.6857 0.5147
vn -0.6052 0.6857 0.4044
vn -0.6052 -0.6857 0.4044
vn -0.6725 0.6857 0.2785
vn -0.6725 -0.6857 0.2785
vn -0.7139 0.6857 0.1420
vn -0.7139 -0.6857 0.1420
vn -0.7279 0.6857 0.0000
vn -0.7279 -0.6857 0.0000
vn -0.7139 0.6857 -0.1420
vn -0.7139 -0.6857 -0.1420
vn -0.6725 0.6857 -0.2785
vn -0.6725 -0.6857 -0.2785
vn -0.6052 0.6857 -0.4044
vn -0.6052 -0.6857 -0.4044
vn -0.5147 0.6857 -0.5147
vn -0.5147 -0.6857 -0.5147
vn -0.4044 0.6857 -0.6052
vn -0.4044 -0.6857 -0.6052
vn -0.2785 0.6857 -0.6725
vn -0.2785 -0.6857 -0.6725
vn -0.1420 0.6857 -0.7139
vn -0.1420 -0.6857 -0.7139
usemtl Material.001
s off
f 120/146/41 118/147/41 116/148/41 114/149/41 112/150/41 110/151/41 108/152/41 106/153/41 104/154/41 102/155/41 100/156/41 98/157/41 96/158/41 94/159/41 92/160/41 142/161/41 151/162/41 152/163/41 150/164/41 149/165/41 143/166/41
f 92/160/41 90/167/41 88/168/41 86/169/41 84/170/41 82/171/41 80/172/41 78/173/41 76/174/41 74/175/41 136/176/41 134/177/41 132/178/41 130/179/41 128/180/41 126/181/41 124/182/41 122/183/41 120/146/41 143/166/41 144/184/41 153/185/41 154/186/41 155/187/41 156/188/41 141/189/41 142/161/41
f 75/190/42 77/191/42 79/192/42 81/193/42 83/194/42 85/195/42 87/196/42 89/197/42 91/198/42 93/199/42 95/200/42 97/201/42 99/202/42 101/203/42 103/204/42 105/205/42 107/206/42 109/207/42 111/208/42 113/209/42 115/210/42 117/211/42 119/212/42 121/213/42 123/214/42 125/215/42 127/216/42 129/217/42 131/218/42 133/219/42 135/220/42 73/221/42
f 157/222/43 140/223/43 143/224/43 149/225/43
f 151/226/43 142/227/43 138/228/43 158/229/43
f 143/230/44 140/231/44 139/232/44 144/233/44
f 162/234/41 158/235/41 138/228/41 137/236/41 160/237/41
f 159/238/41 139/239/41 140/240/41 157/241/41
f 161/242/41 163/243/41 162/234/41 160/237/41
f 157/241/41 158/235/41 162/234/41 163/243/41 161/242/41 159/238/41
f 137/236/45 138/228/45 142/227/45 141/244/45
f 137/236/46 141/244/46 156/245/46 160/246/46
f 153/247/46 144/233/46 139/232/46 159/248/46
f 156/249/45 155/250/45 146/251/45 160/252/45
f 158/253/45 148/254/45 152/255/45 151/256/45
f 148/257/43 147/258/43 150/259/43 152/260/43
f 157/261/41 147/262/41 148/263/41 158/264/41
f 160/265/41 146/266/41 145/267/41 159/268/41 161/269/41
f 154/270/46 145/271/46 146/266/46 155/272/46
f 150/273/44 147/274/44 157/275/44 149/276/44
f 145/267/44 154/277/44 153/278/44 159/279/44
s 1
f 73/280/47 74/281/48 76/282/49 75/283/50
f 75/283/50 76/282/49 78/284/51 77/285/52
f 77/285/52 78/284/51 80/286/53 79/287/54
f 79/287/54 80/286/53 82/288/55 81/289/56
f 81/289/56 82/288/55 84/290/57 83/291/58
f 83/291/58 84/290/57 86/292/59 85/293/60
f 85/293/60 86/292/59 88/294/61 87/295/62
f 87/295/62 88/294/61 90/296/63 89/297/64
f 89/297/64 90/296/63 92/298/65 91/299/66
f 91/299/66 92/298/65 94/300/67 93/301/68
f 93/301/68 94/300/67 96/302/69 95/303/70
f 95/303/70 96/302/69 98/304/71 97/305/72
f 97/305/72 98/304/71 100/306/73 99/307/74
f 99/307/74 100/306/73 102/308/75 101/309/76
f 101/309/76 102/308/75 104/310/77 103/311/78
f 103/311/78 104/310/77 106/312/79 105/313/80
f 105/313/80 106/312/79 108/314/81 107/315/82
f 107/315/82 108/314/81 110/316/83 109/317/84
f 109/317/84 110/316/83 112/318/85 111/319/86
f 111/319/86 112/318/85 114/320/87 113/321/88
f 113/321/88 114/320/87 116/322/89 115/323/90
f 115/323/90 116/322/89 118/324/91 117/325/92
f 117/325/92 118/324/91 120/326/93 119/327/94
f 119/327/94 120/326/93 122/328/95 121/329/96
f 121/329/96 122/328/95 124/330/97 123/331/98
f 123/331/98 124/330/97 126/332/99 125/333/100
f 125/333/100 126/332/99 128/334/101 127/335/102
f 127/335/102 128/334/101 130/336/103 129/337/104
f 129/337/104 130/336/103 132/338/105 131/339/106
f 131/339/106 132/338/105 134/340/107 133/341/108
f 133/341/108 134/340/107 136/342/109 135/343/110
f 135/343/110 136/342/109 74/344/48 73/345/47
