<svg xmlns="http://www.w3.org/2000/svg" style="color-scheme: dark; background: black; width: 10000px; height: 10000px; overflow: scroll; user-select: none;">
<title>Pirial Circuitry Addenda</title>
<g mod="pirial" id="circuitry" addendum="addenda" font-size="18pt" fill="none" stroke="none" stroke-linejoin="round" stroke-linecap="round" font-family="Permanent Marker" font-weight="bold">
  <text id="title" x="360" y="60" text-anchor="middle" font-size="40pt" fill="#FFF">Pirial Circuitry Addenda</text>
  <g id="tile-pirial-cell" transform="translate(50, 100)">
    <rect fill="#111" stroke="#333" width="300" height="300"></rect>
    <text id="label-pirial-cell" fill="#FFF" x="150" y="30" text-anchor="middle">Pirial Cell</text>
    <text id="emoji-pirial-cell" fill="#FFF" x="296" y="285" text-anchor="end">⚠️</text>
    <g id="wires-pirial-cell" stroke="#0FF" stroke-width="1">
      <path d="m 50 150 l 50 0 l 0 50 l 50 0 l 0 -20 m 0 -10 l 0 -20 l -50 0 m 50 0 l 0 -20 m 0 -10 l 0 -20 l -50 0 l 0 50 m 50 50 l 50 0 l 0 -100 l -50 0 m 0 50 l 50 0 l 50 0, l 0 100 l -77.5 0 m -45 0 l -77.5 0 l 0 -100"></path>
    </g>
    <g id="parts-pirial-cell" stroke="#FED" stroke-width="3">
      <path d="m 140 130 l 20 0 m  10 -10 l -40 0"></path>
      <path d="m 130 180 l 40 0 m -10 -10 l -20 0"></path>
      <path d="m 170 250 m -30 -10 l 20 20 m -20 0 l 20 -20"></path>
    </g>
    <g id="scrub-pirial-cell" stroke="#60C" stroke-width="5">
      <path d="m 120 105 l 0 -10 l 5 5 l -5 5 m 12 0 l 0 -10 m -12 60 l 0 -10 l 5 5 l -5 5 m 12 0 l 0 -10 m -12 60 l 0 -10 l 5 5 l -5 5 m 12 0 l 0 -10 m 37 10 l 0 -10 l 5 5 l -5 5 m 12 0 l 0 -10 m -12 -40 l 0 -10 l 5 5 l -5 5 m 12 0 l 0 -10 m -12 -40 l 0 -10 l 5 5 l -5 5 m 12 0 l 0 -10 m 0 10"></path>
      <path d="m 170 250 a 20 20 0 1 0 0 0.0001"></path>
    </g>
    <text id="label-pirial-cell" fill="#FFF" x="150" y="30" text-anchor="middle">Pirial Cell</text>
  </g>
  <g id="tile-ground-loop-isolator" transform="translate(400, 100)">
    <rect fill="#111" stroke="#333" width="300" height="300"></rect>
    <text id="label-ground-loop-isolator" fill="#FFF" x="150" y="30" text-anchor="middle">Ground Loop Isolator</text>
    <text id="emoji-ground-loop-isolator" fill="#FFF" x="296" y="285" text-anchor="end">⚠️</text>
    <g id="wires-ground-loop-isolator" stroke="#0FF" stroke-width="1">
      <path d="m 50 100 l 70 0 m 60 0 l 70 0 m 0 60 l -70 0 m -60 0 l -70 0 m 0 30 l 70 0 m 60 0 l 70 0 m 0 60 l -70 0 m -60 0 l -70 0"></path>
    </g>
    <g id="scrub-ground-loop-isolator" stroke="#60C" stroke-width="5">
      <path d="m 132.5  95.0 l 0 70 l 35 0 l 0 -70 l -35 0"></path>
      <path d="m 115.0 202.5 l 0 35 l 70 0 l 0 -35 l -70 0"></path>
    </g>
    <g id="parts-ground-loop-isolator" stroke="#FED" stroke-width="3">
      <path d="m 120 100 l  10   0 s  10   0  10  10 m 0 0 s 0 5 -10   5 m 0 0 s -5  0 -5 -5 m 0 0 s  0 -5  5 -5 m 0 0 s  10   0  10  10 m 0 0 s 0 5 -10   5 m 0 0 s -5  0 -5 -5 m 0 0 s  0 -5  5 -5 m 0 0 s  10   0  10  10 m 0 0 s 0 5 -10   5 m 0 0 s -5  0 -5 -5 m 0 0 s  0 -5  5 -5 m 0 0 s  10   0  10  10 m 0 0 s 0 5 -10   5 m 0 0 s -5  0 -5 -5 m 0 0 s  0 -5  5 -5 m 0 0 s  10   0  10  10 m 0 0 s 0 5 -10   5 m 0 0 s -5  0 -5 -5 m 0 0 s  0 -5  5 -5 m 0 0 s  10   0  10  10 m 0 0 s 0 5 -10   5 m 0 0 s -5  0 -5 -5 m 0 0 s  0 -5  5 -5 m 0 0 s  10   0  10  10 m 0 0 s 0 5 -10   5 m 0 0 s -5  0 -5 -5 m 0 0 s  0 -5  5 -5 m 0 0 s  10   0  10  10 m 0 0 s 0 5 -10   5 m 0 0 s -5  0 -5 -5 m 0 0 s  0 -5  5 -5 m 0 0 s  10   0  10  10 m 0 0 s 0 5 -10   5 m 0 0 s -5  0 -5 -5 m 0 0 s  0 -5  5 -5 m 0 0 s  10   0  10  10 m 0 0 s 0 5 -10   5 m 0 0 l -10   0"></path>
      <path d="m 180 100 l -10   0 s -10   0 -10  10 m 0 0 s 0 5  10   5 m 0 0 s  5  0  5 -5 m 0 0 s  0 -5 -5 -5 m 0 0 s -10   0 -10  10 m 0 0 s 0 5  10   5 m 0 0 s  5  0  5 -5 m 0 0 s  0 -5 -5 -5 m 0 0 s -10   0 -10  10 m 0 0 s 0 5  10   5 m 0 0 s  5  0  5 -5 m 0 0 s  0 -5 -5 -5 m 0 0 s -10   0 -10  10 m 0 0 s 0 5  10   5 m 0 0 s  5  0  5 -5 m 0 0 s  0 -5 -5 -5 m 0 0 s -10   0 -10  10 m 0 0 s 0 5  10   5 m 0 0 s  5  0  5 -5 m 0 0 s  0 -5 -5 -5 m 0 0 s -10   0 -10  10 m 0 0 s 0 5  10   5 m 0 0 s  5  0  5 -5 m 0 0 s  0 -5 -5 -5 m 0 0 s -10   0 -10  10 m 0 0 s 0 5  10   5 m 0 0 s  5  0  5 -5 m 0 0 s  0 -5 -5 -5 m 0 0 s -10   0 -10  10 m 0 0 s 0 5  10   5 m 0 0 s  5  0  5 -5 m 0 0 s  0 -5 -5 -5 m 0 0 s -10   0 -10  10 m 0 0 s 0 5  10   5 m 0 0 s  5  0  5 -5 m 0 0 s  0 -5 -5 -5 m 0 0 s -10   0 -10  10 m 0 0 s 0 5  10   5 m 0 0 l  10   0"></path>
      <path d="m 120 190 l   0  10 s   0  10  10  10 m 0 0 s 5 0   5 -10 m 0 0 s  0 -5 -5 -5 m 0 0 s -5  0 -5  5 m 0 0 s   0  10  10  10 m 0 0 s 5 0   5 -10 m 0 0 s  0 -5 -5 -5 m 0 0 s -5  0 -5  5 m 0 0 s   0  10  10  10 m 0 0 s 5 0   5 -10 m 0 0 s  0 -5 -5 -5 m 0 0 s -5  0 -5  5 m 0 0 s   0  10  10  10 m 0 0 s 5 0   5 -10 m 0 0 s  0 -5 -5 -5 m 0 0 s -5  0 -5  5 m 0 0 s   0  10  10  10 m 0 0 s 5 0   5 -10 m 0 0 s  0 -5 -5 -5 m 0 0 s -5  0 -5  5 m 0 0 s   0  10  10  10 m 0 0 s 5 0   5 -10 m 0 0 s  0 -5 -5 -5 m 0 0 s -5  0 -5  5 m 0 0 s   0  10  10  10 m 0 0 s 5 0   5 -10 m 0 0 s  0 -5 -5 -5 m 0 0 s -5  0 -5  5 m 0 0 s   0  10  10  10 m 0 0 s 5 0   5 -10 m 0 0 s  0 -5 -5 -5 m 0 0 s -5  0 -5  5 m 0 0 s   0  10  10  10 m 0 0 s 5 0   5 -10 m 0 0 s  0 -5 -5 -5 m 0 0 s -5  0 -5  5 m 0 0 s   0  10  10  10 m 0 0 s 5 0   5 -10 m 0 0 l   0 -10"></path>
      <path d="m 120 250 l   0 -10 s   0 -10  10 -10 m 0 0 s 5 0   5  10 m 0 0 s  0  5 -5  5 m 0 0 s -5  0 -5 -5 m 0 0 s   0 -10  10 -10 m 0 0 s 5 0   5  10 m 0 0 s  0  5 -5  5 m 0 0 s -5  0 -5 -5 m 0 0 s   0 -10  10 -10 m 0 0 s 5 0   5  10 m 0 0 s  0  5 -5  5 m 0 0 s -5  0 -5 -5 m 0 0 s   0 -10  10 -10 m 0 0 s 5 0   5  10 m 0 0 s  0  5 -5  5 m 0 0 s -5  0 -5 -5 m 0 0 s   0 -10  10 -10 m 0 0 s 5 0   5  10 m 0 0 s  0  5 -5  5 m 0 0 s -5  0 -5 -5 m 0 0 s   0 -10  10 -10 m 0 0 s 5 0   5  10 m 0 0 s  0  5 -5  5 m 0 0 s -5  0 -5 -5 m 0 0 s   0 -10  10 -10 m 0 0 s 5 0   5  10 m 0 0 s  0  5 -5  5 m 0 0 s -5  0 -5 -5 m 0 0 s   0 -10  10 -10 m 0 0 s 5 0   5  10 m 0 0 s  0  5 -5  5 m 0 0 s -5  0 -5 -5 m 0 0 s   0 -10  10 -10 m 0 0 s 5 0   5  10 m 0 0 s  0  5 -5  5 m 0 0 s -5  0 -5 -5 m 0 0 s   0 -10  10 -10 m 0 0 s 5 0   5  10 m 0 0 l   0  10"></path>
    </g>
  </g>
  <g id="tile-mosfet-floating-gate" transform="translate(50, 450)">
    <rect fill="#111" stroke="#333" width="300" height="300"></rect>
    <text id="label-mosfet-floating-gate" fill="#FFF" x="150" y="30" text-anchor="middle">MOSFET Floating Gate</text>
    <text id="emoji-mosfet-floating-gate" fill="#FFF" x="296" y="285" text-anchor="end">⚠️</text>
    <g id="wires-mosfet-floating-gate" stroke="#0FF" stroke-width="1">
      <path d="m  35 230 l 50 0 l 0 -50 m 10 0 l 0 80 m 10 0 l 0 -80"></path>
      <path d="m 155 230 l 50 0 l 0 -50 m 10 0 l 0 80 m 10 0 l 0 -80"></path>
    </g>
    <g id="parts-mosfet-floating-gate" stroke="#FED" stroke-width="3">
      <path d="m  85 130 l 0 50 m 10 0 l 0 -50 m 10 0 l 0 50"></path>
      <path d="m 205 130 l 0 50 m 10 0 l 0 -50 m 10 0 l 0 50"></path>
    </g>
    <g id="scrub-mosfet-floating-gate" stroke="#60C" stroke-width="5">
      <path d="m  77.5 80 l 0 50 l 35 0 l 0 -50 l -35 0 m 0 20 l 35 0 m -12 -10 a 5 5 0 1 0 0 0.001"></path>
      <path d="m 197.5 80 l 0 50 l 35 0 l 0 -50 l -35 0 m 0 20 l 35 0 m -12 -10 a 5 5 0 1 0 0 0.001"></path>
    </g>
  </g>
  <g id="tile-thyristor-switched-capacitor" transform="translate(400, 450)">
    <rect fill="#111" stroke="#333" width="300" height="300"></rect>
    <text id="label-thyristor-switched-capacitor" fill="#FFF" x="150" y="30" text-anchor="middle" font-size="15pt">Thyristor Switched Capacitor</text>
    <text id="emoji-thyristor-switched-capacitor" fill="#FFF" x="296" y="285" text-anchor="end">⚠️</text>
    <g id="wires-thyristor-switched-capacitor" stroke="#0FF" stroke-width="1">
      <path d="m 150 250 l 0 -50 l -50 0 l 0 -100 l 100 0 l 0 100 l -50 0 m 0 -100 l 0 -50"></path>
    </g>
    <g id="parts-thyristor-switched-capacitor" stroke="#FED" stroke-width="3">
      <path d="m 140  75 l 20 0 m 0 -5 l -20 0"></path>
      <path d="m 140 225 l 20 0 m 0 -5 l -20 0"></path>
    </g>
    <g id="scrub-thyristor-switched-capacitor" stroke="#60C" stroke-width="5">
      <path d="m  95 155 l 10 0 l -5 -5 l -5  5 m 0 -12 l 10 0 l 5 -5 m -15  5 l -5  5"></path>
      <path d="m 195 145 l 10 0 l -5  5 l -5 -5 m 0  12 l 10 0 l 5  5 m -15 -5 l -5 -5"></path>
    </g>
  </g>
</g>
</svg>