<svg xmlns="http://www.w3.org/2000/svg" style="color-scheme: dark; background: black; width: 10000px; height: 10000px; overflow: scroll; user-select: none;">
<title>Pirial Circuitry Audio Echo</title>
<g mod="pirial" id="circuitry" addendum="PT2399" font-size="18pt" fill="none" stroke="none" stroke-linejoin="round" stroke-linecap="round" font-family="Permanent Marker" font-weight="bold">
  <text id="title" x="360" y="60" text-anchor="middle" font-size="40pt" fill="#FFF">Pirial Circuitry Audio Echo</text>
  <g id="tile-pirial-cell" transform="translate(50, 100)">
    <rect fill="#111" stroke="#333" width="650" height="300"></rect>
    <text id="label-pirial-cell" fill="#FFF" x="340" y="30" text-anchor="middle">PT2399 Granular Audio Processor</text>
    <text id="emoji-pirial-cell" fill="#FFF" x="646" y="285" text-anchor="end">⚠️</text>
    <g id="scrub-pirial-cell" stroke="#60C" stroke-width="5">
      <rect x="50" y="50" width="550" height="1"></rect>
      <rect x="50" y="70" width="550" height="1"></rect>
      <rect x="50" y="260" width="550" height="1"></rect>
      <rect x="50" y="280" width="550" height="1"></rect>
      <rect x="20" y="49" width="11" height="2"></rect><rect x="20" y="70" width="11" height="2"></rect><rect x="24.5" y="65.5" width="2" height="11"></rect>
      <rect x="20" y="259" width="11" height="2"></rect><rect x="20" y="280" width="11" height="2"></rect><rect x="24.5" y="275.5" width="2" height="11"></rect>
    </g>
    <g id="wires-pirial-cell" stroke="#0FF" stroke-width="1">
      <path d="m 120 110 l 150 0 l 0 42"></path>
      <path d="m 120 220 l 135 0 l 0 -10 l 10 0 l 0 10 l 10 0 l 0 10 l 10 0 l 0 -10 l 10 0 l 0 10 l 10 0 l 0 10 l 10 0 l 0 10 l 60 0 l 0 -10 l 10 0 l 0 -10 l -10 0 l 0 -5 l 10 0 l 0 -10 l -10 0 l 0 -10 l -10 0 l 0 -10 l 10 0 l 0 -15"></path>
      <path d="m 120 120 l 15 0 l 0 90 l -15 0"></path>
      <path d="m 280 180 l 0 20 l 105 0 l 0 -20"></path>
      <path d="m 260 180 l 0 75 l 10 0 l 0 10 l -10 0 l 0 15"></path>
      <path d="m 290 180 l 0 15 l 10 0 l 0 10 l -10 0 l 0 55"></path>
      <path d="m 260 150 l 0 -20 l 5 0 l 0 10 l 10 0 l 0 -10 l 120 0 l 0 20"></path>
      <path d="m 385 150 l 0 -15 l -10 0 l 0 -10 l 10 0 l 0 -55"></path>
      <path d="m 365 150 l 0 -15 l -10 0 l 0 -10 l 10 0 l 0 -10 l 15 0 l 0 -10 l 10 0 l 0 10 l 95 0 l 0 65"></path>
      <path d="m 365 180 l 0 10 l -10 0 l 0 5 l -10 0 l 0 10 l 10 0 l 0 10 l 10 0 l 0 10 l -10 0 l 0 10 l 95 0 l 0 -65 l 25 0 l 0 10"></path>
      <path d="m 545 180 l 0 -50 l -55 0 l 0 10 l -10 0 l 0 -10 l -85 0"></path>
      <path d="m 605 180 l 0 -40 l -55 0 l 0 10 l -10 0 l 0 -10 l -40 0 l 0 10 l -10 0 l 0 10 l -10 0 l 0 -10 l -40 0 l 0 70 l -120 0 l 0 -15 l 10 0 l 0 -10 l -10 0 l 0 -15"></path>
      <path d="m 615 180 l 0 -50 l -35 0 l 0 -60"></path>
      <path d="m 595 180 l 0 -30 l -35 0 l 0 -5 l 10 0 l 0 -10 l -10 0 l 0 -60 l 10 0 l 0 -10 l -10 0 l 0 -15"></path>
      <path d="m 555 180 l 0 -10 l 35 0 l 0 -10 l 20 0 l 0 10 l 5 0"></path>
      <path d="m 535 180 l 0 -20 l 5 0 l 0 10 l 10 0 l 0 -10 l 10 0 l 0 -10"></path>
      <path d="m 395 180 l 0 35 l 10 0 l 0 10 l -10 0 l 0 5 l 10 0 l 0 10 l -10 0 l 0 20"></path>
    </g>
    <g id="parts-pirial-cell" stroke="#FED" stroke-width="3">
      <rect x="20"  y="100" width="100" height="30"></rect><text x="70" y="120" stroke="none" fill="#FFF" font-size="12pt" text-anchor="middle">Audio Out</text>
      <rect x="20"  y="200" width="100" height="30"></rect><text x="70" y="220" stroke="none" fill="#FFF" font-size="12pt" text-anchor="middle">Audio In</text>
      <rect x="250" y="150" width="100" height="30"></rect><text x="300" y="170" stroke="none" fill="#FFF" font-size="12pt" text-anchor="middle">PT2399_LM</text>
      <rect x="360" y="150" width="40"  height="30"></rect><text x="380" y="170" stroke="none" fill="#FFF" font-size="12pt" text-anchor="middle">386</text>
      <rect x="460" y="180" width="50"  height="70"></rect><text x="485" y="220" stroke="none" fill="#FFF" font-size="12pt" text-anchor="middle">50K</text>
      <rect x="520" y="180" width="50"  height="70"></rect><text x="545" y="220" stroke="none" fill="#FFF" font-size="12pt" text-anchor="middle">20K</text>
      <rect x="580" y="180" width="50"  height="70"></rect><text x="605" y="220" stroke="none" fill="#FFF" font-size="12pt" text-anchor="middle">10K</text>
      <circle cx="485" cy="235" r="10"></circle><line x1="0" y1="0" x2="0" y2="10" transform="translate(485, 235) rotate(35, 0, 0)"></line>
      <circle cx="545" cy="235" r="10"></circle><line x1="0" y1="0" x2="0" y2="10" transform="translate(545, 235) rotate(35, 0, 0)"></line>
      <circle cx="605" cy="235" r="10"></circle><line x1="0" y1="0" x2="0" y2="10" transform="translate(605, 235) rotate(235, 0, 0)"></line>
    </g>
  </g>
  <g id="tile-residual-current-device" transform="translate(50, 450)">
    <rect fill="#111" stroke="#333" width="300" height="300"></rect>
    <text id="label-residual-current-device" fill="#FFF" x="150" y="30" text-anchor="middle">Residual Current Device</text>
    <text id="emoji-residual-current-device" fill="#FFF" x="296" y="285" text-anchor="end">⚠️</text>
    <g id="wires-residual-current-device" stroke="#0FF" stroke-width="1">
      <path d="m 70 120 l 30 0 m 100 0 l 30 0 m 0 60 l -30 0 m -100 0 l -30 0 m -25 -95 l 0 30 m 0 70 l 0 30 m 210 0 l 0 -30 m 0 -70 l 0 -30"></path>
      <path d="m 20 70 l 20 0 l 0 10 m 10 0 l 0 -10 l 70 0 l 0 30 m 60 0 l 0 -30 l 70 0 l 0 10 m 10 0 l 0 -10 l 20 0 m 0 160 l -20 0 l 0 -10 m -10 0 l 0 10 l -70 0 l 0 -30 m -60 0 l 0 30 l -70 0 l 0 -10 m -10 0 l 0 10 l -15 0"></path>
    </g>
    <g id="scrub-residual-current-device" stroke="#60C" stroke-width="5">
      <path d="m 175 150 a 25 25 0 1 0 0 0.001"></path>
      <path d="m 195 150 a 45 45 0 1 0 0 0.001"></path>
      <rect x="20" y="115" width="50" height="70"></rect>
      <rect x="230" y="115" width="50" height="70"></rect>
    </g>
    <g id="parts-residual-current-device" stroke="#FED" stroke-width="1">
      <path d="m 100 120 l  10   0 s  10   0  10  10 m 0 0 s 0 5 -10   5 m 0 0 s -5  0 -5 -5 m 0 0 s  0 -5  5 -5 m 0 0 s  10   0  10  10 m 0 0 s 0 5 -10   5 m 0 0 s -5  0 -5 -5 m 0 0 s  0 -5  5 -5 m 0 0 s  10   0  10  10 m 0 0 s 0 5 -10   5 m 0 0 s -5  0 -5 -5 m 0 0 s  0 -5  5 -5 m 0 0 s  10   0  10  10 m 0 0 s 0 5 -10   5 m 0 0 s -5  0 -5 -5 m 0 0 s  0 -5  5 -5 m 0 0 s  10   0  10  10 m 0 0 s 0 5 -10   5 m 0 0 s -5  0 -5 -5 m 0 0 s  0 -5  5 -5 m 0 0 s  10   0  10  10 m 0 0 s 0 5 -10   5 m 0 0 s -5  0 -5 -5 m 0 0 s  0 -5  5 -5 m 0 0 s  10   0  10  10 m 0 0 s 0 5 -10   5 m 0 0 s -5  0 -5 -5 m 0 0 s  0 -5  5 -5 m 0 0 s  10   0  10  10 m 0 0 s 0 5 -10   5 m 0 0 s -5  0 -5 -5 m 0 0 s  0 -5  5 -5 m 0 0 s  10   0  10  10 m 0 0 s 0 5 -10   5 m 0 0 s -5  0 -5 -5 m 0 0 s  0 -5  5 -5 m 0 0 s  10   0  10  10 m 0 0 s 0 5 -10   5 m 0 0 l -10   0"></path>
      <path d="m 200 120 l -10   0 s -10   0 -10  10 m 0 0 s 0 5  10   5 m 0 0 s  5  0  5 -5 m 0 0 s  0 -5 -5 -5 m 0 0 s -10   0 -10  10 m 0 0 s 0 5  10   5 m 0 0 s  5  0  5 -5 m 0 0 s  0 -5 -5 -5 m 0 0 s -10   0 -10  10 m 0 0 s 0 5  10   5 m 0 0 s  5  0  5 -5 m 0 0 s  0 -5 -5 -5 m 0 0 s -10   0 -10  10 m 0 0 s 0 5  10   5 m 0 0 s  5  0  5 -5 m 0 0 s  0 -5 -5 -5 m 0 0 s -10   0 -10  10 m 0 0 s 0 5  10   5 m 0 0 s  5  0  5 -5 m 0 0 s  0 -5 -5 -5 m 0 0 s -10   0 -10  10 m 0 0 s 0 5  10   5 m 0 0 s  5  0  5 -5 m 0 0 s  0 -5 -5 -5 m 0 0 s -10   0 -10  10 m 0 0 s 0 5  10   5 m 0 0 s  5  0  5 -5 m 0 0 s  0 -5 -5 -5 m 0 0 s -10   0 -10  10 m 0 0 s 0 5  10   5 m 0 0 s  5  0  5 -5 m 0 0 s  0 -5 -5 -5 m 0 0 s -10   0 -10  10 m 0 0 s 0 5  10   5 m 0 0 s  5  0  5 -5 m 0 0 s  0 -5 -5 -5 m 0 0 s -10   0 -10  10 m 0 0 s 0 5  10   5 m 0 0 l  10   0"></path>
      <path d="m 120 100 l   0  10 s   0  10  10  10 m 0 0 s 5 0   5 -10 m 0 0 s  0 -5 -5 -5 m 0 0 s -5  0 -5  5 m 0 0 s   0  10  10  10 m 0 0 s 5 0   5 -10 m 0 0 s  0 -5 -5 -5 m 0 0 s -5  0 -5  5 m 0 0 s   0  10  10  10 m 0 0 s 5 0   5 -10 m 0 0 s  0 -5 -5 -5 m 0 0 s -5  0 -5  5 m 0 0 s   0  10  10  10 m 0 0 s 5 0   5 -10 m 0 0 s  0 -5 -5 -5 m 0 0 s -5  0 -5  5 m 0 0 s   0  10  10  10 m 0 0 s 5 0   5 -10 m 0 0 s  0 -5 -5 -5 m 0 0 s -5  0 -5  5 m 0 0 s   0  10  10  10 m 0 0 s 5 0   5 -10 m 0 0 s  0 -5 -5 -5 m 0 0 s -5  0 -5  5 m 0 0 s   0  10  10  10 m 0 0 s 5 0   5 -10 m 0 0 s  0 -5 -5 -5 m 0 0 s -5  0 -5  5 m 0 0 s   0  10  10  10 m 0 0 s 5 0   5 -10 m 0 0 s  0 -5 -5 -5 m 0 0 s -5  0 -5  5 m 0 0 s   0  10  10  10 m 0 0 s 5 0   5 -10 m 0 0 s  0 -5 -5 -5 m 0 0 s -5  0 -5  5 m 0 0 s   0  10  10  10 m 0 0 s 5 0   5 -10 m 0 0 l   0 -10"></path>
      <path d="m 120 200 l   0 -10 s   0 -10  10 -10 m 0 0 s 5 0   5  10 m 0 0 s  0  5 -5  5 m 0 0 s -5  0 -5 -5 m 0 0 s   0 -10  10 -10 m 0 0 s 5 0   5  10 m 0 0 s  0  5 -5  5 m 0 0 s -5  0 -5 -5 m 0 0 s   0 -10  10 -10 m 0 0 s 5 0   5  10 m 0 0 s  0  5 -5  5 m 0 0 s -5  0 -5 -5 m 0 0 s   0 -10  10 -10 m 0 0 s 5 0   5  10 m 0 0 s  0  5 -5  5 m 0 0 s -5  0 -5 -5 m 0 0 s   0 -10  10 -10 m 0 0 s 5 0   5  10 m 0 0 s  0  5 -5  5 m 0 0 s -5  0 -5 -5 m 0 0 s   0 -10  10 -10 m 0 0 s 5 0   5  10 m 0 0 s  0  5 -5  5 m 0 0 s -5  0 -5 -5 m 0 0 s   0 -10  10 -10 m 0 0 s 5 0   5  10 m 0 0 s  0  5 -5  5 m 0 0 s -5  0 -5 -5 m 0 0 s   0 -10  10 -10 m 0 0 s 5 0   5  10 m 0 0 s  0  5 -5  5 m 0 0 s -5  0 -5 -5 m 0 0 s   0 -10  10 -10 m 0 0 s 5 0   5  10 m 0 0 s  0  5 -5  5 m 0 0 s -5  0 -5 -5 m 0 0 s   0 -10  10 -10 m 0 0 s 5 0   5  10 m 0 0 l   0  10"></path>
      <rect x="35" y="85" width="20" height="2"></rect>
      <rect x="35" y="215" width="20" height="2"></rect>
      <rect x="245" y="215" width="20" height="2"></rect>
      <rect x="245" y="85" width="20" height="2"></rect>
    </g>
  </g>
  <g id="tile-solenoid-flux-throttle" transform="translate(400, 450)">
    <rect fill="#111" stroke="#333" width="300" height="300"></rect>
    <text id="label-solenoid-flux-throttle" fill="#FFF" x="150" y="30" text-anchor="middle">Solenoid Flux Throttle</text>
    <text id="emoji-solenoid-flux-throttle" fill="#FFF" x="296" y="285" text-anchor="end">⚠️</text>
    <g id="wires-solenoid-flux-throttle" stroke="#0FF" stroke-width="1">
      <path d="m  20 250 l 0 -73  l   5 0"></path>
      <path d="m  15 250 l 0 -133 l  10 0"></path>
      <path d="m 280 250 l 0 -73  l  -5 0"></path>
      <path d="m 285 250 l 0 -133 l -10 0"></path>
    </g>
    <g id="scrub-solenoid-flux-throttle" stroke="#60C" stroke-width="5">
      <path d="m 40 100 l 35 0 l 50 35 l 50 0 l 50 -35 l 35 0 l 0 100 l -35 0 l -50 -35 l -50 0 l -50 35 l -35 0 l 0 -100"></path>
    </g>
    <g id="parts-solenoid-flux-throttle" stroke="#FED" stroke-width="3">
      <path d="m 25  117 l  10   0 s  10   0  10  10 m 0 0 s 0 5 -10   5 m 0 0 s -5  0 -5 -5 m 0 0 s  0 -5  5 -5 m 0 0 s  10   0  10  10 m 0 0 s 0 5 -10   5 m 0 0 s -5  0 -5 -5 m 0 0 s  0 -5  5 -5 m 0 0 s  10   0  10  10 m 0 0 s 0 5 -10   5 m 0 0 s -5  0 -5 -5 m 0 0 s  0 -5  5 -5 m 0 0 s  10   0  10  10 m 0 0 s 0 5 -10   5 m 0 0 s -5  0 -5 -5 m 0 0 s  0 -5  5 -5 m 0 0 s  10   0  10  10 m 0 0 s 0 5 -10   5 m 0 0 s -5  0 -5 -5 m 0 0 s  0 -5  5 -5 m 0 0 s  10   0  10  10 m 0 0 s 0 5 -10   5 m 0 0 s -5  0 -5 -5 m 0 0 s  0 -5  5 -5 m 0 0 s  10   0  10  10 m 0 0 s 0 5 -10   5 m 0 0 s -5  0 -5 -5 m 0 0 s  0 -5  5 -5 m 0 0 s  10   0  10  10 m 0 0 s 0 5 -10   5 m 0 0 s -5  0 -5 -5 m 0 0 s  0 -5  5 -5 m 0 0 s  10   0  10  10 m 0 0 s 0 5 -10   5 m 0 0 s -5  0 -5 -5 m 0 0 s  0 -5  5 -5 m 0 0 s  10   0  10  10 m 0 0 s 0 5 -10   5 m 0 0 l -10   0"></path>
      <path d="m 275 117 l -10   0 s -10   0 -10  10 m 0 0 s 0 5  10   5 m 0 0 s  5  0  5 -5 m 0 0 s  0 -5 -5 -5 m 0 0 s -10   0 -10  10 m 0 0 s 0 5  10   5 m 0 0 s  5  0  5 -5 m 0 0 s  0 -5 -5 -5 m 0 0 s -10   0 -10  10 m 0 0 s 0 5  10   5 m 0 0 s  5  0  5 -5 m 0 0 s  0 -5 -5 -5 m 0 0 s -10   0 -10  10 m 0 0 s 0 5  10   5 m 0 0 s  5  0  5 -5 m 0 0 s  0 -5 -5 -5 m 0 0 s -10   0 -10  10 m 0 0 s 0 5  10   5 m 0 0 s  5  0  5 -5 m 0 0 s  0 -5 -5 -5 m 0 0 s -10   0 -10  10 m 0 0 s 0 5  10   5 m 0 0 s  5  0  5 -5 m 0 0 s  0 -5 -5 -5 m 0 0 s -10   0 -10  10 m 0 0 s 0 5  10   5 m 0 0 s  5  0  5 -5 m 0 0 s  0 -5 -5 -5 m 0 0 s -10   0 -10  10 m 0 0 s 0 5  10   5 m 0 0 s  5  0  5 -5 m 0 0 s  0 -5 -5 -5 m 0 0 s -10   0 -10  10 m 0 0 s 0 5  10   5 m 0 0 s  5  0  5 -5 m 0 0 s  0 -5 -5 -5 m 0 0 s -10   0 -10  10 m 0 0 s 0 5  10   5 m 0 0 l  10   0"></path>
    </g>
  </g>
</g>
</svg>