<svg xmlns="http://www.w3.org/2000/svg" style="color-scheme: dark; background: black; width: 10000px; height: 10000px; overflow: scroll; user-select: none;">
<title>Pirial Circuitry Audio Echo</title>
<g mod="pirial" id="circuitry" addendum="PT2399" font-size="18pt" fill="none" stroke="none" stroke-linejoin="round" stroke-linecap="round" font-family="Permanent Marker" font-weight="bold">
  <text id="title" x="360" y="60" text-anchor="middle" font-size="40pt" fill="#FFF">Pirial Circuitry Audio Echo</text>
  <g id="tile-pirial-cell" transform="translate(50, 100)">
    <rect fill="#111" stroke="#333" width="650" height="300"></rect>
    <text id="label-pirial-cell" fill="#FFF" x="340" y="30" text-anchor="middle">PT2399 Granular Audio Processor</text>
    <text id="emoji-pirial-cell" fill="#FFF" x="646" y="285" text-anchor="end">⚠️</text>
    <g id="scrub-pirial-cell" stroke="#60C" stroke-width="5">
      <rect x="50" y="50" width="550" height="1"></rect>
      <rect x="50" y="70" width="550" height="1"></rect>
      <rect x="50" y="260" width="550" height="1"></rect>
      <rect x="50" y="280" width="550" height="1"></rect>
      <rect x="20" y="49" width="11" height="2"></rect><rect x="20" y="70" width="11" height="2"></rect><rect x="24.5" y="65.5" width="2" height="11"></rect>
      <rect x="20" y="259" width="11" height="2"></rect><rect x="20" y="280" width="11" height="2"></rect><rect x="24.5" y="275.5" width="2" height="11"></rect>
    </g>
    <g id="wires-pirial-cell" stroke="#0FF" stroke-width="1">
      <path d="m 120 110 l 150 0 l 0 42"></path>
      <path d="m 120 220 l 135 0 l 0 -10 l 10 0 l 0 10 l 10 0 l 0 10 l 10 0 l 0 -10 l 10 0 l 0 10 l 10 0 l 0 10 l 10 0 l 0 10 l 60 0 l 0 -10 l 10 0 l 0 -10 l -10 0 l 0 -5 l 10 0 l 0 -10 l -10 0 l 0 -10 l -10 0 l 0 -10 l 10 0 l 0 -15"></path>
      <path d="m 120 120 l 15 0 l 0 90 l -15 0"></path>
      <path d="m 280 180 l 0 20 l 105 0 l 0 -20"></path>
      <path d="m 260 180 l 0 75 l 10 0 l 0 10 l -10 0 l 0 15"></path>
      <path d="m 290 180 l 0 15 l 10 0 l 0 10 l -10 0 l 0 55"></path>
      <path d="m 260 150 l 0 -20 l 5 0 l 0 10 l 10 0 l 0 -10 l 120 0 l 0 20"></path>
      <path d="m 385 150 l 0 -15 l -10 0 l 0 -10 l 10 0 l 0 -55"></path>
      <path d="m 365 150 l 0 -15 l -10 0 l 0 -10 l 10 0 l 0 -10 l 15 0 l 0 -10 l 10 0 l 0 10 l 95 0 l 0 65"></path>
      <path d="m 365 180 l 0 10 l -10 0 l 0 5 l -10 0 l 0 10 l 10 0 l 0 10 l 10 0 l 0 10 l -10 0 l 0 10 l 95 0 l 0 -65 l 25 0 l 0 10"></path>
      <path d="m 545 180 l 0 -50 l -55 0 l 0 10 l -10 0 l 0 -10 l -85 0"></path>
      <path d="m 605 180 l 0 -40 l -55 0 l 0 10 l -10 0 l 0 -10 l -40 0 l 0 10 l -10 0 l 0 10 l -10 0 l 0 -10 l -40 0 l 0 70 l -120 0 l 0 -15 l 10 0 l 0 -10 l -10 0 l 0 -15"></path>
      <path d="m 615 180 l 0 -50 l -35 0 l 0 -60"></path>
      <path d="m 595 180 l 0 -30 l -35 0 l 0 -5 l 10 0 l 0 -10 l -10 0 l 0 -60 l 10 0 l 0 -10 l -10 0 l 0 -15"></path>
      <path d="m 555 180 l 0 -10 l 35 0 l 0 -10 l 20 0 l 0 10 l 5 0"></path>
      <path d="m 535 180 l 0 -20 l 5 0 l 0 10 l 10 0 l 0 -10 l 10 0 l 0 -10"></path>
      <path d="m 395 180 l 0 35 l 10 0 l 0 10 l -10 0 l 0 5 l 10 0 l 0 10 l -10 0 l 0 20"></path>
    </g>
    <g id="parts-pirial-cell" stroke="#FED" stroke-width="3">
      <rect x="20"  y="100" width="100" height="30"></rect><text x="70" y="120" stroke="none" fill="#FFF" font-size="12pt" text-anchor="middle">Audio Out</text>
      <rect x="20"  y="200" width="100" height="30"></rect><text x="70" y="220" stroke="none" fill="#FFF" font-size="12pt" text-anchor="middle">Audio In</text>
      <rect x="250" y="150" width="100" height="30"></rect><text x="300" y="170" stroke="none" fill="#FFF" font-size="12pt" text-anchor="middle">PT2399_LM</text>
      <rect x="360" y="150" width="40"  height="30"></rect><text x="380" y="170" stroke="none" fill="#FFF" font-size="12pt" text-anchor="middle">386</text>
      <rect x="460" y="180" width="50"  height="70"></rect><text x="485" y="220" stroke="none" fill="#FFF" font-size="12pt" text-anchor="middle">50K</text>
      <rect x="520" y="180" width="50"  height="70"></rect><text x="545" y="220" stroke="none" fill="#FFF" font-size="12pt" text-anchor="middle">20K</text>
      <rect x="580" y="180" width="50"  height="70"></rect><text x="605" y="220" stroke="none" fill="#FFF" font-size="12pt" text-anchor="middle">10K</text>
      <circle cx="485" cy="235" r="10"></circle><line x1="0" y1="0" x2="0" y2="10" transform="translate(485, 235) rotate(35, 0, 0)"></line>
      <circle cx="545" cy="235" r="10"></circle><line x1="0" y1="0" x2="0" y2="10" transform="translate(545, 235) rotate(35, 0, 0)"></line>
      <circle cx="605" cy="235" r="10"></circle><line x1="0" y1="0" x2="0" y2="10" transform="translate(605, 235) rotate(235, 0, 0)"></line>
    </g>
  </g>
</g>
</svg>